<?xml version="1.0" encoding="utf-8" standalone="no"?>
<!DOCTYPE svg PUBLIC "-//W3C//DTD SVG 1.1//EN"
  "http://www.w3.org/Graphics/SVG/1.1/DTD/svg11.dtd">
<!-- Created with matplotlib (https://matplotlib.org/) -->
<svg height="504pt" version="1.1" viewBox="0 0 720 504" width="720pt" xmlns="http://www.w3.org/2000/svg" xmlns:xlink="http://www.w3.org/1999/xlink">
 <defs>
  <style type="text/css">
*{stroke-linecap:butt;stroke-linejoin:round;}
  </style>
 </defs>
 <g id="figure_1">
  <g id="patch_1">
   <path d="M 0 504 
L 720 504 
L 720 0 
L 0 0 
z
" style="fill:#ffffff;"/>
  </g>
  <g id="axes_1">
   <g id="patch_2">
    <path d="M 72 428.4 
L 648 428.4 
L 648 50.4 
L 72 50.4 
z
" style="fill:#ffffff;"/>
   </g>
   <g id="matplotlib.axis_1">
    <g id="xtick_1">
     <g id="line2d_1">
      <defs>
       <path d="M 0 0 
L 0 3.5 
" id="mc58cac13a5" style="stroke:#000000;stroke-width:0.8;"/>
      </defs>
      <g>
       <use style="stroke:#000000;stroke-width:0.8;" x="92.571429" xlink:href="#mc58cac13a5" y="428.4"/>
      </g>
     </g>
     <g id="text_1">
      <!-- 14&amp;Und -->
      <defs>
       <path d="M 12.40625 8.296875 
L 28.515625 8.296875 
L 28.515625 63.921875 
L 10.984375 60.40625 
L 10.984375 69.390625 
L 28.421875 72.90625 
L 38.28125 72.90625 
L 38.28125 8.296875 
L 54.390625 8.296875 
L 54.390625 0 
L 12.40625 0 
z
" id="DejaVuSans-49"/>
       <path d="M 37.796875 64.3125 
L 12.890625 25.390625 
L 37.796875 25.390625 
z
M 35.203125 72.90625 
L 47.609375 72.90625 
L 47.609375 25.390625 
L 58.015625 25.390625 
L 58.015625 17.1875 
L 47.609375 17.1875 
L 47.609375 0 
L 37.796875 0 
L 37.796875 17.1875 
L 4.890625 17.1875 
L 4.890625 26.703125 
z
" id="DejaVuSans-52"/>
       <path d="M 24.3125 39.203125 
Q 19.875 35.25 17.796875 31.3125 
Q 15.71875 27.390625 15.71875 23.09375 
Q 15.71875 15.96875 20.890625 11.234375 
Q 26.078125 6.5 33.890625 6.5 
Q 38.53125 6.5 42.578125 8.03125 
Q 46.625 9.578125 50.203125 12.703125 
z
M 31.203125 44.671875 
L 56 19.28125 
Q 58.890625 23.640625 60.5 28.59375 
Q 62.109375 33.546875 62.40625 39.109375 
L 71.484375 39.109375 
Q 70.90625 32.671875 68.359375 26.359375 
Q 65.828125 20.0625 61.28125 13.921875 
L 74.90625 0 
L 62.59375 0 
L 55.609375 7.171875 
Q 50.53125 2.828125 44.96875 0.703125 
Q 39.40625 -1.421875 33.015625 -1.421875 
Q 21.234375 -1.421875 13.765625 5.296875 
Q 6.296875 12.015625 6.296875 22.515625 
Q 6.296875 28.765625 9.5625 34.25 
Q 12.84375 39.75 19.390625 44.578125 
Q 17.046875 47.65625 15.8125 50.703125 
Q 14.59375 53.765625 14.59375 56.6875 
Q 14.59375 64.59375 20.015625 69.40625 
Q 25.4375 74.21875 34.421875 74.21875 
Q 38.484375 74.21875 42.5 73.34375 
Q 46.53125 72.46875 50.6875 70.703125 
L 50.6875 61.8125 
Q 46.4375 64.109375 42.578125 65.296875 
Q 38.71875 66.5 35.40625 66.5 
Q 30.28125 66.5 27.078125 63.78125 
Q 23.875 61.078125 23.875 56.78125 
Q 23.875 54.296875 25.3125 51.78125 
Q 26.765625 49.265625 31.203125 44.671875 
z
" id="DejaVuSans-38"/>
       <path d="M 8.6875 72.90625 
L 18.609375 72.90625 
L 18.609375 28.609375 
Q 18.609375 16.890625 22.84375 11.734375 
Q 27.09375 6.59375 36.625 6.59375 
Q 46.09375 6.59375 50.34375 11.734375 
Q 54.59375 16.890625 54.59375 28.609375 
L 54.59375 72.90625 
L 64.5 72.90625 
L 64.5 27.390625 
Q 64.5 13.140625 57.4375 5.859375 
Q 50.390625 -1.421875 36.625 -1.421875 
Q 22.796875 -1.421875 15.734375 5.859375 
Q 8.6875 13.140625 8.6875 27.390625 
z
" id="DejaVuSans-85"/>
       <path d="M 54.890625 33.015625 
L 54.890625 0 
L 45.90625 0 
L 45.90625 32.71875 
Q 45.90625 40.484375 42.875 44.328125 
Q 39.84375 48.1875 33.796875 48.1875 
Q 26.515625 48.1875 22.3125 43.546875 
Q 18.109375 38.921875 18.109375 30.90625 
L 18.109375 0 
L 9.078125 0 
L 9.078125 54.6875 
L 18.109375 54.6875 
L 18.109375 46.1875 
Q 21.34375 51.125 25.703125 53.5625 
Q 30.078125 56 35.796875 56 
Q 45.21875 56 50.046875 50.171875 
Q 54.890625 44.34375 54.890625 33.015625 
z
" id="DejaVuSans-110"/>
       <path d="M 45.40625 46.390625 
L 45.40625 75.984375 
L 54.390625 75.984375 
L 54.390625 0 
L 45.40625 0 
L 45.40625 8.203125 
Q 42.578125 3.328125 38.25 0.953125 
Q 33.9375 -1.421875 27.875 -1.421875 
Q 17.96875 -1.421875 11.734375 6.484375 
Q 5.515625 14.40625 5.515625 27.296875 
Q 5.515625 40.1875 11.734375 48.09375 
Q 17.96875 56 27.875 56 
Q 33.9375 56 38.25 53.625 
Q 42.578125 51.265625 45.40625 46.390625 
z
M 14.796875 27.296875 
Q 14.796875 17.390625 18.875 11.75 
Q 22.953125 6.109375 30.078125 6.109375 
Q 37.203125 6.109375 41.296875 11.75 
Q 45.40625 17.390625 45.40625 27.296875 
Q 45.40625 37.203125 41.296875 42.84375 
Q 37.203125 48.484375 30.078125 48.484375 
Q 22.953125 48.484375 18.875 42.84375 
Q 14.796875 37.203125 14.796875 27.296875 
z
" id="DejaVuSans-100"/>
      </defs>
      <g transform="translate(72.307366 442.998438)scale(0.1 -0.1)">
       <use xlink:href="#DejaVuSans-49"/>
       <use x="63.623047" xlink:href="#DejaVuSans-52"/>
       <use x="127.246094" xlink:href="#DejaVuSans-38"/>
       <use x="205.224609" xlink:href="#DejaVuSans-85"/>
       <use x="278.417969" xlink:href="#DejaVuSans-110"/>
       <use x="341.796875" xlink:href="#DejaVuSans-100"/>
      </g>
     </g>
    </g>
    <g id="xtick_2">
     <g id="line2d_2">
      <g>
       <use style="stroke:#000000;stroke-width:0.8;" x="133.714286" xlink:href="#mc58cac13a5" y="428.4"/>
      </g>
     </g>
     <g id="text_2">
      <!-- 15-19 -->
      <defs>
       <path d="M 10.796875 72.90625 
L 49.515625 72.90625 
L 49.515625 64.59375 
L 19.828125 64.59375 
L 19.828125 46.734375 
Q 21.96875 47.46875 24.109375 47.828125 
Q 26.265625 48.1875 28.421875 48.1875 
Q 40.625 48.1875 47.75 41.5 
Q 54.890625 34.8125 54.890625 23.390625 
Q 54.890625 11.625 47.5625 5.09375 
Q 40.234375 -1.421875 26.90625 -1.421875 
Q 22.3125 -1.421875 17.546875 -0.640625 
Q 12.796875 0.140625 7.71875 1.703125 
L 7.71875 11.625 
Q 12.109375 9.234375 16.796875 8.0625 
Q 21.484375 6.890625 26.703125 6.890625 
Q 35.15625 6.890625 40.078125 11.328125 
Q 45.015625 15.765625 45.015625 23.390625 
Q 45.015625 31 40.078125 35.4375 
Q 35.15625 39.890625 26.703125 39.890625 
Q 22.75 39.890625 18.8125 39.015625 
Q 14.890625 38.140625 10.796875 36.28125 
z
" id="DejaVuSans-53"/>
       <path d="M 4.890625 31.390625 
L 31.203125 31.390625 
L 31.203125 23.390625 
L 4.890625 23.390625 
z
" id="DejaVuSans-45"/>
       <path d="M 10.984375 1.515625 
L 10.984375 10.5 
Q 14.703125 8.734375 18.5 7.8125 
Q 22.3125 6.890625 25.984375 6.890625 
Q 35.75 6.890625 40.890625 13.453125 
Q 46.046875 20.015625 46.78125 33.40625 
Q 43.953125 29.203125 39.59375 26.953125 
Q 35.25 24.703125 29.984375 24.703125 
Q 19.046875 24.703125 12.671875 31.3125 
Q 6.296875 37.9375 6.296875 49.421875 
Q 6.296875 60.640625 12.9375 67.421875 
Q 19.578125 74.21875 30.609375 74.21875 
Q 43.265625 74.21875 49.921875 64.515625 
Q 56.59375 54.828125 56.59375 36.375 
Q 56.59375 19.140625 48.40625 8.859375 
Q 40.234375 -1.421875 26.421875 -1.421875 
Q 22.703125 -1.421875 18.890625 -0.6875 
Q 15.09375 0.046875 10.984375 1.515625 
z
M 30.609375 32.421875 
Q 37.25 32.421875 41.125 36.953125 
Q 45.015625 41.5 45.015625 49.421875 
Q 45.015625 57.28125 41.125 61.84375 
Q 37.25 66.40625 30.609375 66.40625 
Q 23.96875 66.40625 20.09375 61.84375 
Q 16.21875 57.28125 16.21875 49.421875 
Q 16.21875 41.5 20.09375 36.953125 
Q 23.96875 32.421875 30.609375 32.421875 
z
" id="DejaVuSans-57"/>
      </defs>
      <g transform="translate(119.185379 442.998438)scale(0.1 -0.1)">
       <use xlink:href="#DejaVuSans-49"/>
       <use x="63.623047" xlink:href="#DejaVuSans-53"/>
       <use x="127.246094" xlink:href="#DejaVuSans-45"/>
       <use x="163.330078" xlink:href="#DejaVuSans-49"/>
       <use x="226.953125" xlink:href="#DejaVuSans-57"/>
      </g>
     </g>
    </g>
    <g id="xtick_3">
     <g id="line2d_3">
      <g>
       <use style="stroke:#000000;stroke-width:0.8;" x="174.857143" xlink:href="#mc58cac13a5" y="428.4"/>
      </g>
     </g>
     <g id="text_3">
      <!-- 20-24 -->
      <defs>
       <path d="M 19.1875 8.296875 
L 53.609375 8.296875 
L 53.609375 0 
L 7.328125 0 
L 7.328125 8.296875 
Q 12.9375 14.109375 22.625 23.890625 
Q 32.328125 33.6875 34.8125 36.53125 
Q 39.546875 41.84375 41.421875 45.53125 
Q 43.3125 49.21875 43.3125 52.78125 
Q 43.3125 58.59375 39.234375 62.25 
Q 35.15625 65.921875 28.609375 65.921875 
Q 23.96875 65.921875 18.8125 64.3125 
Q 13.671875 62.703125 7.8125 59.421875 
L 7.8125 69.390625 
Q 13.765625 71.78125 18.9375 73 
Q 24.125 74.21875 28.421875 74.21875 
Q 39.75 74.21875 46.484375 68.546875 
Q 53.21875 62.890625 53.21875 53.421875 
Q 53.21875 48.921875 51.53125 44.890625 
Q 49.859375 40.875 45.40625 35.40625 
Q 44.1875 33.984375 37.640625 27.21875 
Q 31.109375 20.453125 19.1875 8.296875 
z
" id="DejaVuSans-50"/>
       <path d="M 31.78125 66.40625 
Q 24.171875 66.40625 20.328125 58.90625 
Q 16.5 51.421875 16.5 36.375 
Q 16.5 21.390625 20.328125 13.890625 
Q 24.171875 6.390625 31.78125 6.390625 
Q 39.453125 6.390625 43.28125 13.890625 
Q 47.125 21.390625 47.125 36.375 
Q 47.125 51.421875 43.28125 58.90625 
Q 39.453125 66.40625 31.78125 66.40625 
z
M 31.78125 74.21875 
Q 44.046875 74.21875 50.515625 64.515625 
Q 56.984375 54.828125 56.984375 36.375 
Q 56.984375 17.96875 50.515625 8.265625 
Q 44.046875 -1.421875 31.78125 -1.421875 
Q 19.53125 -1.421875 13.0625 8.265625 
Q 6.59375 17.96875 6.59375 36.375 
Q 6.59375 54.828125 13.0625 64.515625 
Q 19.53125 74.21875 31.78125 74.21875 
z
" id="DejaVuSans-48"/>
      </defs>
      <g transform="translate(160.328237 442.998438)scale(0.1 -0.1)">
       <use xlink:href="#DejaVuSans-50"/>
       <use x="63.623047" xlink:href="#DejaVuSans-48"/>
       <use x="127.246094" xlink:href="#DejaVuSans-45"/>
       <use x="163.330078" xlink:href="#DejaVuSans-50"/>
       <use x="226.953125" xlink:href="#DejaVuSans-52"/>
      </g>
     </g>
    </g>
    <g id="xtick_4">
     <g id="line2d_4">
      <g>
       <use style="stroke:#000000;stroke-width:0.8;" x="216" xlink:href="#mc58cac13a5" y="428.4"/>
      </g>
     </g>
     <g id="text_4">
      <!-- 25-29 -->
      <g transform="translate(201.471094 442.998438)scale(0.1 -0.1)">
       <use xlink:href="#DejaVuSans-50"/>
       <use x="63.623047" xlink:href="#DejaVuSans-53"/>
       <use x="127.246094" xlink:href="#DejaVuSans-45"/>
       <use x="163.330078" xlink:href="#DejaVuSans-50"/>
       <use x="226.953125" xlink:href="#DejaVuSans-57"/>
      </g>
     </g>
    </g>
    <g id="xtick_5">
     <g id="line2d_5">
      <g>
       <use style="stroke:#000000;stroke-width:0.8;" x="257.142857" xlink:href="#mc58cac13a5" y="428.4"/>
      </g>
     </g>
     <g id="text_5">
      <!-- 30-34 -->
      <defs>
       <path d="M 40.578125 39.3125 
Q 47.65625 37.796875 51.625 33 
Q 55.609375 28.21875 55.609375 21.1875 
Q 55.609375 10.40625 48.1875 4.484375 
Q 40.765625 -1.421875 27.09375 -1.421875 
Q 22.515625 -1.421875 17.65625 -0.515625 
Q 12.796875 0.390625 7.625 2.203125 
L 7.625 11.71875 
Q 11.71875 9.328125 16.59375 8.109375 
Q 21.484375 6.890625 26.8125 6.890625 
Q 36.078125 6.890625 40.9375 10.546875 
Q 45.796875 14.203125 45.796875 21.1875 
Q 45.796875 27.640625 41.28125 31.265625 
Q 36.765625 34.90625 28.71875 34.90625 
L 20.21875 34.90625 
L 20.21875 43.015625 
L 29.109375 43.015625 
Q 36.375 43.015625 40.234375 45.921875 
Q 44.09375 48.828125 44.09375 54.296875 
Q 44.09375 59.90625 40.109375 62.90625 
Q 36.140625 65.921875 28.71875 65.921875 
Q 24.65625 65.921875 20.015625 65.03125 
Q 15.375 64.15625 9.8125 62.3125 
L 9.8125 71.09375 
Q 15.4375 72.65625 20.34375 73.4375 
Q 25.25 74.21875 29.59375 74.21875 
Q 40.828125 74.21875 47.359375 69.109375 
Q 53.90625 64.015625 53.90625 55.328125 
Q 53.90625 49.265625 50.4375 45.09375 
Q 46.96875 40.921875 40.578125 39.3125 
z
" id="DejaVuSans-51"/>
      </defs>
      <g transform="translate(242.613951 442.998438)scale(0.1 -0.1)">
       <use xlink:href="#DejaVuSans-51"/>
       <use x="63.623047" xlink:href="#DejaVuSans-48"/>
       <use x="127.246094" xlink:href="#DejaVuSans-45"/>
       <use x="163.330078" xlink:href="#DejaVuSans-51"/>
       <use x="226.953125" xlink:href="#DejaVuSans-52"/>
      </g>
     </g>
    </g>
    <g id="xtick_6">
     <g id="line2d_6">
      <g>
       <use style="stroke:#000000;stroke-width:0.8;" x="298.285714" xlink:href="#mc58cac13a5" y="428.4"/>
      </g>
     </g>
     <g id="text_6">
      <!-- 35-39 -->
      <g transform="translate(283.756808 442.998438)scale(0.1 -0.1)">
       <use xlink:href="#DejaVuSans-51"/>
       <use x="63.623047" xlink:href="#DejaVuSans-53"/>
       <use x="127.246094" xlink:href="#DejaVuSans-45"/>
       <use x="163.330078" xlink:href="#DejaVuSans-51"/>
       <use x="226.953125" xlink:href="#DejaVuSans-57"/>
      </g>
     </g>
    </g>
    <g id="xtick_7">
     <g id="line2d_7">
      <g>
       <use style="stroke:#000000;stroke-width:0.8;" x="339.428571" xlink:href="#mc58cac13a5" y="428.4"/>
      </g>
     </g>
     <g id="text_7">
      <!-- 40-44 -->
      <g transform="translate(324.899665 442.998438)scale(0.1 -0.1)">
       <use xlink:href="#DejaVuSans-52"/>
       <use x="63.623047" xlink:href="#DejaVuSans-48"/>
       <use x="127.246094" xlink:href="#DejaVuSans-45"/>
       <use x="163.330078" xlink:href="#DejaVuSans-52"/>
       <use x="226.953125" xlink:href="#DejaVuSans-52"/>
      </g>
     </g>
    </g>
    <g id="xtick_8">
     <g id="line2d_8">
      <g>
       <use style="stroke:#000000;stroke-width:0.8;" x="380.571429" xlink:href="#mc58cac13a5" y="428.4"/>
      </g>
     </g>
     <g id="text_8">
      <!-- 45-49 -->
      <g transform="translate(366.042522 442.998438)scale(0.1 -0.1)">
       <use xlink:href="#DejaVuSans-52"/>
       <use x="63.623047" xlink:href="#DejaVuSans-53"/>
       <use x="127.246094" xlink:href="#DejaVuSans-45"/>
       <use x="163.330078" xlink:href="#DejaVuSans-52"/>
       <use x="226.953125" xlink:href="#DejaVuSans-57"/>
      </g>
     </g>
    </g>
    <g id="xtick_9">
     <g id="line2d_9">
      <g>
       <use style="stroke:#000000;stroke-width:0.8;" x="421.714286" xlink:href="#mc58cac13a5" y="428.4"/>
      </g>
     </g>
     <g id="text_9">
      <!-- 50-54 -->
      <g transform="translate(407.185379 442.998438)scale(0.1 -0.1)">
       <use xlink:href="#DejaVuSans-53"/>
       <use x="63.623047" xlink:href="#DejaVuSans-48"/>
       <use x="127.246094" xlink:href="#DejaVuSans-45"/>
       <use x="163.330078" xlink:href="#DejaVuSans-53"/>
       <use x="226.953125" xlink:href="#DejaVuSans-52"/>
      </g>
     </g>
    </g>
    <g id="xtick_10">
     <g id="line2d_10">
      <g>
       <use style="stroke:#000000;stroke-width:0.8;" x="462.857143" xlink:href="#mc58cac13a5" y="428.4"/>
      </g>
     </g>
     <g id="text_10">
      <!-- 55-59 -->
      <g transform="translate(448.328237 442.998438)scale(0.1 -0.1)">
       <use xlink:href="#DejaVuSans-53"/>
       <use x="63.623047" xlink:href="#DejaVuSans-53"/>
       <use x="127.246094" xlink:href="#DejaVuSans-45"/>
       <use x="163.330078" xlink:href="#DejaVuSans-53"/>
       <use x="226.953125" xlink:href="#DejaVuSans-57"/>
      </g>
     </g>
    </g>
    <g id="xtick_11">
     <g id="line2d_11">
      <g>
       <use style="stroke:#000000;stroke-width:0.8;" x="504" xlink:href="#mc58cac13a5" y="428.4"/>
      </g>
     </g>
     <g id="text_11">
      <!-- 60-64 -->
      <defs>
       <path d="M 33.015625 40.375 
Q 26.375 40.375 22.484375 35.828125 
Q 18.609375 31.296875 18.609375 23.390625 
Q 18.609375 15.53125 22.484375 10.953125 
Q 26.375 6.390625 33.015625 6.390625 
Q 39.65625 6.390625 43.53125 10.953125 
Q 47.40625 15.53125 47.40625 23.390625 
Q 47.40625 31.296875 43.53125 35.828125 
Q 39.65625 40.375 33.015625 40.375 
z
M 52.59375 71.296875 
L 52.59375 62.3125 
Q 48.875 64.0625 45.09375 64.984375 
Q 41.3125 65.921875 37.59375 65.921875 
Q 27.828125 65.921875 22.671875 59.328125 
Q 17.53125 52.734375 16.796875 39.40625 
Q 19.671875 43.65625 24.015625 45.921875 
Q 28.375 48.1875 33.59375 48.1875 
Q 44.578125 48.1875 50.953125 41.515625 
Q 57.328125 34.859375 57.328125 23.390625 
Q 57.328125 12.15625 50.6875 5.359375 
Q 44.046875 -1.421875 33.015625 -1.421875 
Q 20.359375 -1.421875 13.671875 8.265625 
Q 6.984375 17.96875 6.984375 36.375 
Q 6.984375 53.65625 15.1875 63.9375 
Q 23.390625 74.21875 37.203125 74.21875 
Q 40.921875 74.21875 44.703125 73.484375 
Q 48.484375 72.75 52.59375 71.296875 
z
" id="DejaVuSans-54"/>
      </defs>
      <g transform="translate(489.471094 442.998438)scale(0.1 -0.1)">
       <use xlink:href="#DejaVuSans-54"/>
       <use x="63.623047" xlink:href="#DejaVuSans-48"/>
       <use x="127.246094" xlink:href="#DejaVuSans-45"/>
       <use x="163.330078" xlink:href="#DejaVuSans-54"/>
       <use x="226.953125" xlink:href="#DejaVuSans-52"/>
      </g>
     </g>
    </g>
    <g id="xtick_12">
     <g id="line2d_12">
      <g>
       <use style="stroke:#000000;stroke-width:0.8;" x="545.142857" xlink:href="#mc58cac13a5" y="428.4"/>
      </g>
     </g>
     <g id="text_12">
      <!-- 65-69 -->
      <g transform="translate(530.613951 442.998438)scale(0.1 -0.1)">
       <use xlink:href="#DejaVuSans-54"/>
       <use x="63.623047" xlink:href="#DejaVuSans-53"/>
       <use x="127.246094" xlink:href="#DejaVuSans-45"/>
       <use x="163.330078" xlink:href="#DejaVuSans-54"/>
       <use x="226.953125" xlink:href="#DejaVuSans-57"/>
      </g>
     </g>
    </g>
    <g id="xtick_13">
     <g id="line2d_13">
      <g>
       <use style="stroke:#000000;stroke-width:0.8;" x="586.285714" xlink:href="#mc58cac13a5" y="428.4"/>
      </g>
     </g>
     <g id="text_13">
      <!-- 70-74 -->
      <defs>
       <path d="M 8.203125 72.90625 
L 55.078125 72.90625 
L 55.078125 68.703125 
L 28.609375 0 
L 18.3125 0 
L 43.21875 64.59375 
L 8.203125 64.59375 
z
" id="DejaVuSans-55"/>
      </defs>
      <g transform="translate(571.756808 442.998438)scale(0.1 -0.1)">
       <use xlink:href="#DejaVuSans-55"/>
       <use x="63.623047" xlink:href="#DejaVuSans-48"/>
       <use x="127.246094" xlink:href="#DejaVuSans-45"/>
       <use x="163.330078" xlink:href="#DejaVuSans-55"/>
       <use x="226.953125" xlink:href="#DejaVuSans-52"/>
      </g>
     </g>
    </g>
    <g id="xtick_14">
     <g id="line2d_14">
      <g>
       <use style="stroke:#000000;stroke-width:0.8;" x="627.428571" xlink:href="#mc58cac13a5" y="428.4"/>
      </g>
     </g>
     <g id="text_14">
      <!-- 75-79 -->
      <g transform="translate(612.899665 442.998438)scale(0.1 -0.1)">
       <use xlink:href="#DejaVuSans-55"/>
       <use x="63.623047" xlink:href="#DejaVuSans-53"/>
       <use x="127.246094" xlink:href="#DejaVuSans-45"/>
       <use x="163.330078" xlink:href="#DejaVuSans-55"/>
       <use x="226.953125" xlink:href="#DejaVuSans-57"/>
      </g>
     </g>
    </g>
    <g id="text_15">
     <!-- Age Group -->
     <defs>
      <path d="M 20.015625 26.421875 
L 46.78125 26.421875 
L 33.40625 61.078125 
z
M -0.59375 0 
L -0.59375 5.171875 
L 5.8125 5.171875 
L 31.78125 72.90625 
L 39.984375 72.90625 
L 66.015625 5.171875 
L 73.1875 5.171875 
L 73.1875 0 
L 46.6875 0 
L 46.6875 5.171875 
L 54.78125 5.171875 
L 48.6875 21.1875 
L 18.015625 21.1875 
L 11.921875 5.171875 
L 19.921875 5.171875 
L 19.921875 0 
z
" id="DejaVuSerif-65"/>
      <path d="M 52.484375 46.6875 
L 52.484375 1.125 
Q 52.484375 -10.0625 46.328125 -16.140625 
Q 40.1875 -22.21875 28.8125 -22.21875 
Q 23.6875 -22.21875 19 -21.28125 
Q 14.3125 -20.359375 10.015625 -18.5 
L 10.015625 -7.625 
L 14.703125 -7.625 
Q 15.578125 -12.703125 18.84375 -15.046875 
Q 22.125 -17.390625 28.21875 -17.390625 
Q 36.140625 -17.390625 39.8125 -12.921875 
Q 43.5 -8.453125 43.5 1.125 
L 43.5 8.109375 
Q 40.875 3.21875 36.796875 0.890625 
Q 32.71875 -1.421875 26.703125 -1.421875 
Q 17.140625 -1.421875 11.0625 6.171875 
Q 4.984375 13.765625 4.984375 25.984375 
Q 4.984375 38.1875 11.03125 45.75 
Q 17.09375 53.328125 26.703125 53.328125 
Q 32.71875 53.328125 36.796875 51 
Q 40.875 48.6875 43.5 43.796875 
L 43.5 51.90625 
L 61.078125 51.90625 
L 61.078125 46.6875 
z
M 43.5 28.515625 
Q 43.5 37.84375 39.90625 42.765625 
Q 36.328125 47.703125 29.5 47.703125 
Q 22.5625 47.703125 19.015625 42.234375 
Q 15.484375 36.765625 15.484375 25.984375 
Q 15.484375 15.234375 19.015625 9.71875 
Q 22.5625 4.203125 29.5 4.203125 
Q 36.328125 4.203125 39.90625 9.109375 
Q 43.5 14.015625 43.5 23.390625 
z
" id="DejaVuSerif-103"/>
      <path d="M 54.203125 25 
L 15.484375 25 
L 15.484375 24.609375 
Q 15.484375 14.109375 19.4375 8.765625 
Q 23.390625 3.421875 31.109375 3.421875 
Q 37.015625 3.421875 40.796875 6.515625 
Q 44.578125 9.625 46.09375 15.71875 
L 53.328125 15.71875 
Q 51.171875 7.171875 45.375 2.875 
Q 39.59375 -1.421875 30.171875 -1.421875 
Q 18.796875 -1.421875 11.890625 6.078125 
Q 4.984375 13.578125 4.984375 25.984375 
Q 4.984375 38.28125 11.765625 45.796875 
Q 18.5625 53.328125 29.59375 53.328125 
Q 41.359375 53.328125 47.65625 46.0625 
Q 53.953125 38.8125 54.203125 25 
z
M 43.609375 30.171875 
Q 43.3125 39.265625 39.765625 43.875 
Q 36.234375 48.484375 29.59375 48.484375 
Q 23.390625 48.484375 19.828125 43.84375 
Q 16.265625 39.203125 15.484375 30.171875 
z
" id="DejaVuSerif-101"/>
      <path id="DejaVuSerif-32"/>
      <path d="M 64.015625 51.125 
Q 62.3125 60.25 56.890625 64.625 
Q 51.46875 69 41.796875 69 
Q 29.203125 69 23 60.890625 
Q 16.796875 52.78125 16.796875 36.375 
Q 16.796875 20.3125 23.1875 12.0625 
Q 29.59375 3.8125 42 3.8125 
Q 47.515625 3.8125 52.53125 5.171875 
Q 57.5625 6.546875 62.109375 9.28125 
L 62.109375 28.078125 
L 48.390625 28.078125 
L 48.390625 33.296875 
L 72.015625 33.296875 
L 72.015625 6.109375 
Q 65.53125 2.34375 58.03125 0.453125 
Q 50.53125 -1.421875 42 -1.421875 
Q 25.484375 -1.421875 15.546875 8.90625 
Q 5.609375 19.234375 5.609375 36.375 
Q 5.609375 53.65625 15.5625 63.9375 
Q 25.53125 74.21875 42.390625 74.21875 
Q 48.640625 74.21875 55.296875 72.78125 
Q 61.96875 71.34375 69.484375 68.40625 
L 69.484375 51.125 
z
" id="DejaVuSerif-71"/>
      <path d="M 47.796875 52 
L 47.796875 39.015625 
L 42.625 39.015625 
Q 42.390625 42.875 40.484375 44.78125 
Q 38.578125 46.6875 34.90625 46.6875 
Q 28.265625 46.6875 24.71875 42.09375 
Q 21.1875 37.5 21.1875 28.90625 
L 21.1875 5.171875 
L 31.59375 5.171875 
L 31.59375 0 
L 4.109375 0 
L 4.109375 5.171875 
L 12.203125 5.171875 
L 12.203125 46.78125 
L 3.609375 46.78125 
L 3.609375 51.90625 
L 21.1875 51.90625 
L 21.1875 42.671875 
Q 23.828125 48.09375 27.96875 50.703125 
Q 32.125 53.328125 38.09375 53.328125 
Q 40.28125 53.328125 42.703125 52.984375 
Q 45.125 52.640625 47.796875 52 
z
" id="DejaVuSerif-114"/>
      <path d="M 30.078125 3.421875 
Q 37.3125 3.421875 40.984375 9.125 
Q 44.671875 14.84375 44.671875 25.984375 
Q 44.671875 37.109375 40.984375 42.796875 
Q 37.3125 48.484375 30.078125 48.484375 
Q 22.859375 48.484375 19.171875 42.796875 
Q 15.484375 37.109375 15.484375 25.984375 
Q 15.484375 14.84375 19.1875 9.125 
Q 22.90625 3.421875 30.078125 3.421875 
z
M 30.078125 -1.421875 
Q 18.75 -1.421875 11.859375 6.078125 
Q 4.984375 13.578125 4.984375 25.984375 
Q 4.984375 38.375 11.84375 45.84375 
Q 18.703125 53.328125 30.078125 53.328125 
Q 41.453125 53.328125 48.3125 45.84375 
Q 55.171875 38.375 55.171875 25.984375 
Q 55.171875 13.578125 48.3125 6.078125 
Q 41.453125 -1.421875 30.078125 -1.421875 
z
" id="DejaVuSerif-111"/>
      <path d="M 35.40625 51.90625 
L 52.203125 51.90625 
L 52.203125 5.171875 
L 60.6875 5.171875 
L 60.6875 0 
L 43.21875 0 
L 43.21875 9.1875 
Q 40.71875 4 36.765625 1.28125 
Q 32.8125 -1.421875 27.59375 -1.421875 
Q 18.953125 -1.421875 14.875 3.484375 
Q 10.796875 8.40625 10.796875 18.890625 
L 10.796875 46.6875 
L 2.6875 46.6875 
L 2.6875 51.90625 
L 19.828125 51.90625 
L 19.828125 21.6875 
Q 19.828125 12.203125 22.140625 8.6875 
Q 24.46875 5.171875 30.421875 5.171875 
Q 36.671875 5.171875 39.9375 9.765625 
Q 43.21875 14.359375 43.21875 23.09375 
L 43.21875 46.6875 
L 35.40625 46.6875 
z
" id="DejaVuSerif-117"/>
      <path d="M 20.515625 28.515625 
L 20.515625 23.390625 
Q 20.515625 14.015625 24.09375 9.109375 
Q 27.6875 4.203125 34.515625 4.203125 
Q 41.40625 4.203125 44.9375 9.71875 
Q 48.484375 15.234375 48.484375 25.984375 
Q 48.484375 36.765625 44.9375 42.234375 
Q 41.40625 47.703125 34.515625 47.703125 
Q 27.6875 47.703125 24.09375 42.765625 
Q 20.515625 37.84375 20.515625 28.515625 
z
M 11.53125 46.6875 
L 2.875 46.6875 
L 2.875 51.90625 
L 20.515625 51.90625 
L 20.515625 43.796875 
Q 23.140625 48.6875 27.21875 51 
Q 31.296875 53.328125 37.3125 53.328125 
Q 46.875 53.328125 52.921875 45.75 
Q 58.984375 38.1875 58.984375 25.984375 
Q 58.984375 13.765625 52.921875 6.171875 
Q 46.875 -1.421875 37.3125 -1.421875 
Q 31.296875 -1.421875 27.21875 0.890625 
Q 23.140625 3.21875 20.515625 8.109375 
L 20.515625 -15.578125 
L 29 -15.578125 
L 29 -20.796875 
L 2.875 -20.796875 
L 2.875 -15.578125 
L 11.53125 -15.578125 
z
" id="DejaVuSerif-112"/>
     </defs>
     <g transform="translate(321.953906 459.516875)scale(0.14 -0.14)">
      <use xlink:href="#DejaVuSerif-65"/>
      <use x="72.216797" xlink:href="#DejaVuSerif-103"/>
      <use x="136.230469" xlink:href="#DejaVuSerif-101"/>
      <use x="195.410156" xlink:href="#DejaVuSerif-32"/>
      <use x="227.197266" xlink:href="#DejaVuSerif-71"/>
      <use x="307.080078" xlink:href="#DejaVuSerif-114"/>
      <use x="354.882812" xlink:href="#DejaVuSerif-111"/>
      <use x="415.087891" xlink:href="#DejaVuSerif-117"/>
      <use x="479.492188" xlink:href="#DejaVuSerif-112"/>
     </g>
    </g>
   </g>
   <g id="matplotlib.axis_2">
    <g id="ytick_1">
     <g id="line2d_15">
      <defs>
       <path d="M 0 0 
L -3.5 0 
" id="m1dd4dd9883" style="stroke:#000000;stroke-width:0.8;"/>
      </defs>
      <g>
       <use style="stroke:#000000;stroke-width:0.8;" x="72" xlink:href="#m1dd4dd9883" y="411.218182"/>
      </g>
     </g>
     <g id="text_16">
      <!-- −5.20 -->
      <defs>
       <path d="M 10.59375 35.5 
L 73.1875 35.5 
L 73.1875 27.203125 
L 10.59375 27.203125 
z
" id="DejaVuSans-8722"/>
       <path d="M 10.6875 12.40625 
L 21 12.40625 
L 21 0 
L 10.6875 0 
z
" id="DejaVuSans-46"/>
      </defs>
      <g transform="translate(34.354687 415.017401)scale(0.1 -0.1)">
       <use xlink:href="#DejaVuSans-8722"/>
       <use x="83.789062" xlink:href="#DejaVuSans-53"/>
       <use x="147.412109" xlink:href="#DejaVuSans-46"/>
       <use x="179.199219" xlink:href="#DejaVuSans-50"/>
       <use x="242.822266" xlink:href="#DejaVuSans-48"/>
      </g>
     </g>
    </g>
    <g id="ytick_2">
     <g id="line2d_16">
      <g>
       <use style="stroke:#000000;stroke-width:0.8;" x="72" xlink:href="#m1dd4dd9883" y="375.353606"/>
      </g>
     </g>
     <g id="text_17">
      <!-- −4.00 -->
      <g transform="translate(34.354687 379.152824)scale(0.1 -0.1)">
       <use xlink:href="#DejaVuSans-8722"/>
       <use x="83.789062" xlink:href="#DejaVuSans-52"/>
       <use x="147.412109" xlink:href="#DejaVuSans-46"/>
       <use x="179.199219" xlink:href="#DejaVuSans-48"/>
       <use x="242.822266" xlink:href="#DejaVuSans-48"/>
      </g>
     </g>
    </g>
    <g id="ytick_3">
     <g id="line2d_17">
      <g>
       <use style="stroke:#000000;stroke-width:0.8;" x="72" xlink:href="#m1dd4dd9883" y="345.341528"/>
      </g>
     </g>
     <g id="text_18">
      <!-- −3.00 -->
      <g transform="translate(34.354687 349.140746)scale(0.1 -0.1)">
       <use xlink:href="#DejaVuSans-8722"/>
       <use x="83.789062" xlink:href="#DejaVuSans-51"/>
       <use x="147.412109" xlink:href="#DejaVuSans-46"/>
       <use x="179.199219" xlink:href="#DejaVuSans-48"/>
       <use x="242.822266" xlink:href="#DejaVuSans-48"/>
      </g>
     </g>
    </g>
    <g id="ytick_4">
     <g id="line2d_18">
      <g>
       <use style="stroke:#000000;stroke-width:0.8;" x="72" xlink:href="#m1dd4dd9883" y="315.32945"/>
      </g>
     </g>
     <g id="text_19">
      <!-- −2.00 -->
      <g transform="translate(34.354687 319.128668)scale(0.1 -0.1)">
       <use xlink:href="#DejaVuSans-8722"/>
       <use x="83.789062" xlink:href="#DejaVuSans-50"/>
       <use x="147.412109" xlink:href="#DejaVuSans-46"/>
       <use x="179.199219" xlink:href="#DejaVuSans-48"/>
       <use x="242.822266" xlink:href="#DejaVuSans-48"/>
      </g>
     </g>
    </g>
    <g id="ytick_5">
     <g id="line2d_19">
      <g>
       <use style="stroke:#000000;stroke-width:0.8;" x="72" xlink:href="#m1dd4dd9883" y="285.317372"/>
      </g>
     </g>
     <g id="text_20">
      <!-- −1.00 -->
      <g transform="translate(34.354687 289.11659)scale(0.1 -0.1)">
       <use xlink:href="#DejaVuSans-8722"/>
       <use x="83.789062" xlink:href="#DejaVuSans-49"/>
       <use x="147.412109" xlink:href="#DejaVuSans-46"/>
       <use x="179.199219" xlink:href="#DejaVuSans-48"/>
       <use x="242.822266" xlink:href="#DejaVuSans-48"/>
      </g>
     </g>
    </g>
    <g id="ytick_6">
     <g id="line2d_20">
      <g>
       <use style="stroke:#000000;stroke-width:0.8;" x="72" xlink:href="#m1dd4dd9883" y="255.305294"/>
      </g>
     </g>
     <g id="text_21">
      <!-- 0.00 -->
      <g transform="translate(42.734375 259.104512)scale(0.1 -0.1)">
       <use xlink:href="#DejaVuSans-48"/>
       <use x="63.623047" xlink:href="#DejaVuSans-46"/>
       <use x="95.410156" xlink:href="#DejaVuSans-48"/>
       <use x="159.033203" xlink:href="#DejaVuSans-48"/>
      </g>
     </g>
    </g>
    <g id="ytick_7">
     <g id="line2d_21">
      <g>
       <use style="stroke:#000000;stroke-width:0.8;" x="72" xlink:href="#m1dd4dd9883" y="225.293216"/>
      </g>
     </g>
     <g id="text_22">
      <!-- 1.00 -->
      <g transform="translate(42.734375 229.092435)scale(0.1 -0.1)">
       <use xlink:href="#DejaVuSans-49"/>
       <use x="63.623047" xlink:href="#DejaVuSans-46"/>
       <use x="95.410156" xlink:href="#DejaVuSans-48"/>
       <use x="159.033203" xlink:href="#DejaVuSans-48"/>
      </g>
     </g>
    </g>
    <g id="ytick_8">
     <g id="line2d_22">
      <g>
       <use style="stroke:#000000;stroke-width:0.8;" x="72" xlink:href="#m1dd4dd9883" y="195.281138"/>
      </g>
     </g>
     <g id="text_23">
      <!-- 2.00 -->
      <g transform="translate(42.734375 199.080357)scale(0.1 -0.1)">
       <use xlink:href="#DejaVuSans-50"/>
       <use x="63.623047" xlink:href="#DejaVuSans-46"/>
       <use x="95.410156" xlink:href="#DejaVuSans-48"/>
       <use x="159.033203" xlink:href="#DejaVuSans-48"/>
      </g>
     </g>
    </g>
    <g id="ytick_9">
     <g id="line2d_23">
      <g>
       <use style="stroke:#000000;stroke-width:0.8;" x="72" xlink:href="#m1dd4dd9883" y="165.26906"/>
      </g>
     </g>
     <g id="text_24">
      <!-- 3.00 -->
      <g transform="translate(42.734375 169.068279)scale(0.1 -0.1)">
       <use xlink:href="#DejaVuSans-51"/>
       <use x="63.623047" xlink:href="#DejaVuSans-46"/>
       <use x="95.410156" xlink:href="#DejaVuSans-48"/>
       <use x="159.033203" xlink:href="#DejaVuSans-48"/>
      </g>
     </g>
    </g>
    <g id="ytick_10">
     <g id="line2d_24">
      <g>
       <use style="stroke:#000000;stroke-width:0.8;" x="72" xlink:href="#m1dd4dd9883" y="135.256982"/>
      </g>
     </g>
     <g id="text_25">
      <!-- 4.00 -->
      <g transform="translate(42.734375 139.056201)scale(0.1 -0.1)">
       <use xlink:href="#DejaVuSans-52"/>
       <use x="63.623047" xlink:href="#DejaVuSans-46"/>
       <use x="95.410156" xlink:href="#DejaVuSans-48"/>
       <use x="159.033203" xlink:href="#DejaVuSans-48"/>
      </g>
     </g>
    </g>
    <g id="ytick_11">
     <g id="line2d_25">
      <g>
       <use style="stroke:#000000;stroke-width:0.8;" x="72" xlink:href="#m1dd4dd9883" y="105.244904"/>
      </g>
     </g>
     <g id="text_26">
      <!-- 5.00 -->
      <g transform="translate(42.734375 109.044123)scale(0.1 -0.1)">
       <use xlink:href="#DejaVuSans-53"/>
       <use x="63.623047" xlink:href="#DejaVuSans-46"/>
       <use x="95.410156" xlink:href="#DejaVuSans-48"/>
       <use x="159.033203" xlink:href="#DejaVuSans-48"/>
      </g>
     </g>
    </g>
    <g id="ytick_12">
     <g id="line2d_26">
      <g>
       <use style="stroke:#000000;stroke-width:0.8;" x="72" xlink:href="#m1dd4dd9883" y="67.581818"/>
      </g>
     </g>
     <g id="text_27">
      <!-- 6.25 -->
      <g transform="translate(42.734375 71.381037)scale(0.1 -0.1)">
       <use xlink:href="#DejaVuSans-54"/>
       <use x="63.623047" xlink:href="#DejaVuSans-46"/>
       <use x="95.410156" xlink:href="#DejaVuSans-50"/>
       <use x="159.033203" xlink:href="#DejaVuSans-53"/>
      </g>
     </g>
    </g>
    <g id="text_28">
     <!-- Back-Front Pace Difference (min/mi)  -->
     <defs>
      <path d="M 24.703125 5.171875 
L 39.3125 5.171875 
Q 48.09375 5.171875 52.140625 8.984375 
Q 56.203125 12.796875 56.203125 21.09375 
Q 56.203125 29.34375 52.171875 33.125 
Q 48.140625 36.921875 39.3125 36.921875 
L 24.703125 36.921875 
z
M 24.703125 42.09375 
L 37.109375 42.09375 
Q 45.125 42.09375 48.796875 45.171875 
Q 52.484375 48.25 52.484375 54.890625 
Q 52.484375 61.578125 48.796875 64.625 
Q 45.125 67.671875 37.109375 67.671875 
L 24.703125 67.671875 
z
M 5.515625 0 
L 5.515625 5.171875 
L 14.796875 5.171875 
L 14.796875 67.671875 
L 5.515625 67.671875 
L 5.515625 72.90625 
L 41.5 72.90625 
Q 52.546875 72.90625 58.125 68.390625 
Q 63.71875 63.875 63.71875 54.890625 
Q 63.71875 48.390625 59.828125 44.53125 
Q 55.953125 40.671875 48.484375 39.796875 
Q 57.765625 38.625 62.578125 33.859375 
Q 67.390625 29.109375 67.390625 21.09375 
Q 67.390625 10.25 60.546875 5.125 
Q 53.71875 0 39.203125 0 
z
" id="DejaVuSerif-66"/>
      <path d="M 39.796875 16.3125 
L 39.796875 27.296875 
L 28.21875 27.296875 
Q 21.53125 27.296875 18.25 24.40625 
Q 14.984375 21.53125 14.984375 15.578125 
Q 14.984375 10.15625 18.296875 6.984375 
Q 21.625 3.8125 27.296875 3.8125 
Q 32.90625 3.8125 36.34375 7.28125 
Q 39.796875 10.75 39.796875 16.3125 
z
M 48.78125 32.421875 
L 48.78125 5.171875 
L 56.78125 5.171875 
L 56.78125 0 
L 39.796875 0 
L 39.796875 5.609375 
Q 36.8125 2 32.90625 0.28125 
Q 29 -1.421875 23.78125 -1.421875 
Q 15.140625 -1.421875 10.0625 3.171875 
Q 4.984375 7.765625 4.984375 15.578125 
Q 4.984375 23.640625 10.796875 28.078125 
Q 16.609375 32.515625 27.203125 32.515625 
L 39.796875 32.515625 
L 39.796875 36.078125 
Q 39.796875 42 36.203125 45.234375 
Q 32.625 48.484375 26.125 48.484375 
Q 20.75 48.484375 17.578125 46.046875 
Q 14.40625 43.609375 13.625 38.8125 
L 8.984375 38.8125 
L 8.984375 49.3125 
Q 13.671875 51.3125 18.09375 52.3125 
Q 22.515625 53.328125 26.703125 53.328125 
Q 37.5 53.328125 43.140625 47.96875 
Q 48.78125 42.625 48.78125 32.421875 
z
" id="DejaVuSerif-97"/>
      <path d="M 51.421875 15.578125 
Q 49.515625 7.28125 44.09375 2.921875 
Q 38.671875 -1.421875 30.078125 -1.421875 
Q 18.75 -1.421875 11.859375 6.078125 
Q 4.984375 13.578125 4.984375 25.984375 
Q 4.984375 38.421875 11.859375 45.875 
Q 18.75 53.328125 30.078125 53.328125 
Q 35.015625 53.328125 39.890625 52.171875 
Q 44.78125 51.03125 49.703125 48.6875 
L 49.703125 35.40625 
L 44.484375 35.40625 
Q 43.453125 42.234375 40.015625 45.359375 
Q 36.578125 48.484375 30.171875 48.484375 
Q 22.90625 48.484375 19.1875 42.84375 
Q 15.484375 37.203125 15.484375 25.984375 
Q 15.484375 14.75 19.171875 9.078125 
Q 22.859375 3.421875 30.171875 3.421875 
Q 35.984375 3.421875 39.453125 6.4375 
Q 42.921875 9.46875 44.1875 15.578125 
z
" id="DejaVuSerif-99"/>
      <path d="M 28.609375 0 
L 3.421875 0 
L 3.421875 5.171875 
L 11.53125 5.171875 
L 11.53125 70.796875 
L 2.875 70.796875 
L 2.875 75.984375 
L 20.515625 75.984375 
L 20.515625 26.515625 
L 42.390625 46.6875 
L 34.90625 46.6875 
L 34.90625 51.90625 
L 58.40625 51.90625 
L 58.40625 46.6875 
L 49.515625 46.6875 
L 34.078125 32.421875 
L 53.8125 5.171875 
L 61.28125 5.171875 
L 61.28125 0 
L 35.6875 0 
L 35.6875 5.171875 
L 43.109375 5.171875 
L 27.59375 26.515625 
L 20.515625 19.921875 
L 20.515625 5.171875 
L 28.609375 5.171875 
z
" id="DejaVuSerif-107"/>
      <path d="M 4.390625 30.609375 
L 29.390625 30.609375 
L 29.390625 23 
L 4.390625 23 
z
" id="DejaVuSerif-45"/>
      <path d="M 5.515625 0 
L 5.515625 5.171875 
L 14.796875 5.171875 
L 14.796875 67.671875 
L 5.515625 67.671875 
L 5.515625 72.90625 
L 65.1875 72.90625 
L 65.1875 56.6875 
L 59.1875 56.6875 
L 59.1875 66.890625 
L 24.703125 66.890625 
L 24.703125 42.484375 
L 49.609375 42.484375 
L 49.609375 51.609375 
L 55.609375 51.609375 
L 55.609375 27.390625 
L 49.609375 27.390625 
L 49.609375 36.53125 
L 24.703125 36.53125 
L 24.703125 5.171875 
L 36.375 5.171875 
L 36.375 0 
z
" id="DejaVuSerif-70"/>
      <path d="M 4.109375 0 
L 4.109375 5.171875 
L 12.203125 5.171875 
L 12.203125 46.6875 
L 3.609375 46.6875 
L 3.609375 51.90625 
L 21.1875 51.90625 
L 21.1875 42.671875 
Q 23.6875 47.953125 27.65625 50.640625 
Q 31.640625 53.328125 36.921875 53.328125 
Q 45.515625 53.328125 49.5625 48.390625 
Q 53.609375 43.453125 53.609375 33.015625 
L 53.609375 5.171875 
L 61.625 5.171875 
L 61.625 0 
L 36.8125 0 
L 36.8125 5.171875 
L 44.578125 5.171875 
L 44.578125 30.171875 
Q 44.578125 39.703125 42.234375 43.234375 
Q 39.890625 46.78125 33.984375 46.78125 
Q 27.734375 46.78125 24.453125 42.203125 
Q 21.1875 37.640625 21.1875 28.90625 
L 21.1875 5.171875 
L 29 5.171875 
L 29 0 
z
" id="DejaVuSerif-110"/>
      <path d="M 10.796875 46.6875 
L 2.875 46.6875 
L 2.875 51.90625 
L 10.796875 51.90625 
L 10.796875 68.015625 
L 19.828125 68.015625 
L 19.828125 51.90625 
L 36.71875 51.90625 
L 36.71875 46.6875 
L 19.828125 46.6875 
L 19.828125 13.71875 
Q 19.828125 7.125 21.09375 5.265625 
Q 22.359375 3.421875 25.78125 3.421875 
Q 29.296875 3.421875 30.90625 5.484375 
Q 32.515625 7.5625 32.625 12.203125 
L 39.40625 12.203125 
Q 39.015625 5.125 35.546875 1.84375 
Q 32.078125 -1.421875 25 -1.421875 
Q 17.234375 -1.421875 14.015625 2.015625 
Q 10.796875 5.46875 10.796875 13.71875 
z
" id="DejaVuSerif-116"/>
      <path d="M 24.703125 37.109375 
L 37.59375 37.109375 
Q 44.875 37.109375 48.671875 41.03125 
Q 52.484375 44.96875 52.484375 52.390625 
Q 52.484375 59.859375 48.671875 63.765625 
Q 44.875 67.671875 37.59375 67.671875 
L 24.703125 67.671875 
z
M 5.515625 0 
L 5.515625 5.171875 
L 14.796875 5.171875 
L 14.796875 67.671875 
L 5.515625 67.671875 
L 5.515625 72.90625 
L 39.984375 72.90625 
Q 50.921875 72.90625 57.3125 67.359375 
Q 63.71875 61.8125 63.71875 52.390625 
Q 63.71875 43.015625 57.3125 37.453125 
Q 50.921875 31.890625 39.984375 31.890625 
L 24.703125 31.890625 
L 24.703125 5.171875 
L 35.984375 5.171875 
L 35.984375 0 
z
" id="DejaVuSerif-80"/>
      <path d="M 24.703125 5.171875 
L 33.796875 5.171875 
Q 48 5.171875 55.59375 13.28125 
Q 63.1875 21.390625 63.1875 36.53125 
Q 63.1875 51.65625 55.609375 59.65625 
Q 48.046875 67.671875 33.796875 67.671875 
L 24.703125 67.671875 
z
M 5.515625 0 
L 5.515625 5.171875 
L 14.796875 5.171875 
L 14.796875 67.671875 
L 5.515625 67.671875 
L 5.515625 72.90625 
L 34.515625 72.90625 
Q 53.375 72.90625 63.890625 63.28125 
Q 74.421875 53.65625 74.421875 36.53125 
Q 74.421875 19.34375 63.875 9.671875 
Q 53.328125 0 34.515625 0 
z
" id="DejaVuSerif-68"/>
      <path d="M 9.71875 68.015625 
Q 9.71875 70.265625 11.34375 71.921875 
Q 12.984375 73.578125 15.28125 73.578125 
Q 17.53125 73.578125 19.15625 71.921875 
Q 20.796875 70.265625 20.796875 68.015625 
Q 20.796875 65.71875 19.1875 64.109375 
Q 17.578125 62.5 15.28125 62.5 
Q 12.984375 62.5 11.34375 64.109375 
Q 9.71875 65.71875 9.71875 68.015625 
z
M 21.1875 5.171875 
L 29.6875 5.171875 
L 29.6875 0 
L 3.609375 0 
L 3.609375 5.171875 
L 12.203125 5.171875 
L 12.203125 46.6875 
L 3.609375 46.6875 
L 3.609375 51.90625 
L 21.1875 51.90625 
z
" id="DejaVuSerif-105"/>
      <path d="M 43.015625 63.71875 
L 38.28125 63.71875 
Q 38.234375 67.390625 36.203125 69.28125 
Q 34.1875 71.1875 30.328125 71.1875 
Q 25.296875 71.1875 23.234375 68.421875 
Q 21.1875 65.671875 21.1875 58.59375 
L 21.1875 51.90625 
L 35.6875 51.90625 
L 35.6875 46.6875 
L 21.1875 46.6875 
L 21.1875 5.171875 
L 32.71875 5.171875 
L 32.71875 0 
L 3.609375 0 
L 3.609375 5.171875 
L 12.203125 5.171875 
L 12.203125 46.6875 
L 3.609375 46.6875 
L 3.609375 51.90625 
L 12.203125 51.90625 
L 12.203125 58.40625 
Q 12.203125 67.09375 16.71875 71.53125 
Q 21.234375 75.984375 29.984375 75.984375 
Q 33.25 75.984375 36.515625 75.390625 
Q 39.796875 74.8125 43.015625 73.578125 
z
" id="DejaVuSerif-102"/>
      <path d="M 31.890625 -15.578125 
Q 20.015625 -10.25 13.953125 1.296875 
Q 7.90625 12.84375 7.90625 30.171875 
Q 7.90625 47.5625 13.953125 59.109375 
Q 20.015625 70.65625 31.890625 75.984375 
L 31.890625 71.1875 
Q 24.359375 66.015625 21.09375 56.609375 
Q 17.828125 47.21875 17.828125 30.171875 
Q 17.828125 13.1875 21.09375 3.78125 
Q 24.359375 -5.609375 31.890625 -10.796875 
z
" id="DejaVuSerif-40"/>
      <path d="M 51.8125 41.796875 
Q 54.390625 47.515625 58.421875 50.421875 
Q 62.453125 53.328125 67.828125 53.328125 
Q 75.984375 53.328125 79.984375 48.265625 
Q 83.984375 43.21875 83.984375 33.015625 
L 83.984375 5.171875 
L 92.09375 5.171875 
L 92.09375 0 
L 67.1875 0 
L 67.1875 5.171875 
L 75 5.171875 
L 75 31.984375 
Q 75 39.9375 72.65625 43.3125 
Q 70.3125 46.6875 64.890625 46.6875 
Q 58.890625 46.6875 55.734375 42.140625 
Q 52.59375 37.59375 52.59375 28.90625 
L 52.59375 5.171875 
L 60.40625 5.171875 
L 60.40625 0 
L 35.796875 0 
L 35.796875 5.171875 
L 43.609375 5.171875 
L 43.609375 32.328125 
Q 43.609375 40.09375 41.265625 43.390625 
Q 38.921875 46.6875 33.5 46.6875 
Q 27.484375 46.6875 24.328125 42.140625 
Q 21.1875 37.59375 21.1875 28.90625 
L 21.1875 5.171875 
L 29 5.171875 
L 29 0 
L 4.109375 0 
L 4.109375 5.171875 
L 12.203125 5.171875 
L 12.203125 46.78125 
L 3.609375 46.78125 
L 3.609375 51.90625 
L 21.1875 51.90625 
L 21.1875 42.671875 
Q 23.6875 47.859375 27.53125 50.59375 
Q 31.390625 53.328125 36.28125 53.328125 
Q 42.328125 53.328125 46.375 50.3125 
Q 50.4375 47.3125 51.8125 41.796875 
z
" id="DejaVuSerif-109"/>
      <path d="M 25.875 72.90625 
L 33.6875 72.90625 
L 7.8125 -9.28125 
L 0 -9.28125 
z
" id="DejaVuSerif-47"/>
      <path d="M 7.078125 -15.578125 
L 7.078125 -10.796875 
Q 14.59375 -5.609375 17.890625 3.78125 
Q 21.1875 13.1875 21.1875 30.171875 
Q 21.1875 47.21875 17.890625 56.609375 
Q 14.59375 66.015625 7.078125 71.1875 
L 7.078125 75.984375 
Q 19 70.65625 25.046875 59.109375 
Q 31.109375 47.5625 31.109375 30.171875 
Q 31.109375 12.84375 25.046875 1.296875 
Q 19 -10.25 7.078125 -15.578125 
z
" id="DejaVuSerif-41"/>
     </defs>
     <g transform="translate(27.443125 372.142969)rotate(-90)scale(0.14 -0.14)">
      <use xlink:href="#DejaVuSerif-66"/>
      <use x="73.486328" xlink:href="#DejaVuSerif-97"/>
      <use x="133.105469" xlink:href="#DejaVuSerif-99"/>
      <use x="189.111328" xlink:href="#DejaVuSerif-107"/>
      <use x="249.691406" xlink:href="#DejaVuSerif-45"/>
      <use x="283.480469" xlink:href="#DejaVuSerif-70"/>
      <use x="352.865234" xlink:href="#DejaVuSerif-114"/>
      <use x="400.667969" xlink:href="#DejaVuSerif-111"/>
      <use x="460.873047" xlink:href="#DejaVuSerif-110"/>
      <use x="525.277344" xlink:href="#DejaVuSerif-116"/>
      <use x="565.462891" xlink:href="#DejaVuSerif-32"/>
      <use x="597.25" xlink:href="#DejaVuSerif-80"/>
      <use x="664.472656" xlink:href="#DejaVuSerif-97"/>
      <use x="724.091797" xlink:href="#DejaVuSerif-99"/>
      <use x="780.097656" xlink:href="#DejaVuSerif-101"/>
      <use x="839.277344" xlink:href="#DejaVuSerif-32"/>
      <use x="871.064453" xlink:href="#DejaVuSerif-68"/>
      <use x="951.240234" xlink:href="#DejaVuSerif-105"/>
      <use x="983.222656" xlink:href="#DejaVuSerif-102"/>
      <use x="1020.234375" xlink:href="#DejaVuSerif-102"/>
      <use x="1057.246094" xlink:href="#DejaVuSerif-101"/>
      <use x="1116.425781" xlink:href="#DejaVuSerif-114"/>
      <use x="1164.228516" xlink:href="#DejaVuSerif-101"/>
      <use x="1223.408203" xlink:href="#DejaVuSerif-110"/>
      <use x="1287.8125" xlink:href="#DejaVuSerif-99"/>
      <use x="1343.818359" xlink:href="#DejaVuSerif-101"/>
      <use x="1402.998047" xlink:href="#DejaVuSerif-32"/>
      <use x="1434.785156" xlink:href="#DejaVuSerif-40"/>
      <use x="1473.798828" xlink:href="#DejaVuSerif-109"/>
      <use x="1568.623047" xlink:href="#DejaVuSerif-105"/>
      <use x="1600.605469" xlink:href="#DejaVuSerif-110"/>
      <use x="1665.009766" xlink:href="#DejaVuSerif-47"/>
      <use x="1698.701172" xlink:href="#DejaVuSerif-109"/>
      <use x="1793.525391" xlink:href="#DejaVuSerif-105"/>
      <use x="1825.507812" xlink:href="#DejaVuSerif-41"/>
      <use x="1864.521484" xlink:href="#DejaVuSerif-32"/>
     </g>
    </g>
   </g>
   <g id="line2d_27">
    <path clip-path="url(#p71d5697863)" d="M 82.285714 243.545633 
L 102.857143 243.545633 
L 102.857143 205.610509 
L 82.285714 205.610509 
L 82.285714 243.545633 
" style="fill:none;stroke:#1f77b4;stroke-linecap:square;"/>
   </g>
   <g id="line2d_28">
    <path clip-path="url(#p71d5697863)" d="M 92.571429 243.545633 
L 92.571429 265.867544 
" style="fill:none;stroke:#1f77b4;stroke-linecap:square;"/>
   </g>
   <g id="line2d_29">
    <path clip-path="url(#p71d5697863)" d="M 92.571429 205.610509 
L 92.571429 200.195973 
" style="fill:none;stroke:#1f77b4;stroke-linecap:square;"/>
   </g>
   <g id="line2d_30">
    <path clip-path="url(#p71d5697863)" d="M 87.428571 265.867544 
L 97.714286 265.867544 
" style="fill:none;stroke:#000000;stroke-linecap:square;"/>
   </g>
   <g id="line2d_31">
    <path clip-path="url(#p71d5697863)" d="M 87.428571 200.195973 
L 97.714286 200.195973 
" style="fill:none;stroke:#000000;stroke-linecap:square;"/>
   </g>
   <g id="line2d_32">
    <defs>
     <path d="M 0 3 
C 0.795609 3 1.55874 2.683901 2.12132 2.12132 
C 2.683901 1.55874 3 0.795609 3 0 
C 3 -0.795609 2.683901 -1.55874 2.12132 -2.12132 
C 1.55874 -2.683901 0.795609 -3 0 -3 
C -0.795609 -3 -1.55874 -2.683901 -2.12132 -2.12132 
C -2.683901 -1.55874 -3 -0.795609 -3 0 
C -3 0.795609 -2.683901 1.55874 -2.12132 2.12132 
C -1.55874 2.683901 -0.795609 3 0 3 
z
" id="m6382048bd6" style="stroke:#000000;"/>
    </defs>
    <g clip-path="url(#p71d5697863)">
     <use style="fill-opacity:0;stroke:#000000;" x="92.571429" xlink:href="#m6382048bd6" y="68.953156"/>
    </g>
   </g>
   <g id="line2d_33">
    <path clip-path="url(#p71d5697863)" d="M 123.428571 248.868739 
L 144 248.868739 
L 144 203.690629 
L 123.428571 203.690629 
L 123.428571 248.868739 
" style="fill:none;stroke:#1f77b4;stroke-linecap:square;"/>
   </g>
   <g id="line2d_34">
    <path clip-path="url(#p71d5697863)" d="M 133.714286 248.868739 
L 133.714286 296.129794 
" style="fill:none;stroke:#1f77b4;stroke-linecap:square;"/>
   </g>
   <g id="line2d_35">
    <path clip-path="url(#p71d5697863)" d="M 133.714286 203.690629 
L 133.714286 192.314587 
" style="fill:none;stroke:#1f77b4;stroke-linecap:square;"/>
   </g>
   <g id="line2d_36">
    <path clip-path="url(#p71d5697863)" d="M 128.571429 296.129794 
L 138.857143 296.129794 
" style="fill:none;stroke:#000000;stroke-linecap:square;"/>
   </g>
   <g id="line2d_37">
    <path clip-path="url(#p71d5697863)" d="M 128.571429 192.314587 
L 138.857143 192.314587 
" style="fill:none;stroke:#000000;stroke-linecap:square;"/>
   </g>
   <g id="line2d_38">
    <g clip-path="url(#p71d5697863)">
     <use style="fill-opacity:0;stroke:#000000;" x="133.714286" xlink:href="#m6382048bd6" y="365.511431"/>
     <use style="fill-opacity:0;stroke:#000000;" x="133.714286" xlink:href="#m6382048bd6" y="120.083304"/>
    </g>
   </g>
   <g id="line2d_39">
    <path clip-path="url(#p71d5697863)" d="M 164.571429 256.760379 
L 185.142857 256.760379 
L 185.142857 212.62719 
L 164.571429 212.62719 
L 164.571429 256.760379 
" style="fill:none;stroke:#1f77b4;stroke-linecap:square;"/>
   </g>
   <g id="line2d_40">
    <path clip-path="url(#p71d5697863)" d="M 174.857143 256.760379 
L 174.857143 306.580429 
" style="fill:none;stroke:#1f77b4;stroke-linecap:square;"/>
   </g>
   <g id="line2d_41">
    <path clip-path="url(#p71d5697863)" d="M 174.857143 212.62719 
L 174.857143 172.56814 
" style="fill:none;stroke:#1f77b4;stroke-linecap:square;"/>
   </g>
   <g id="line2d_42">
    <path clip-path="url(#p71d5697863)" d="M 169.714286 306.580429 
L 180 306.580429 
" style="fill:none;stroke:#000000;stroke-linecap:square;"/>
   </g>
   <g id="line2d_43">
    <path clip-path="url(#p71d5697863)" d="M 169.714286 172.56814 
L 180 172.56814 
" style="fill:none;stroke:#000000;stroke-linecap:square;"/>
   </g>
   <g id="line2d_44"/>
   <g id="line2d_45">
    <path clip-path="url(#p71d5697863)" d="M 205.714286 255.999001 
L 226.285714 255.999001 
L 226.285714 218.121026 
L 205.714286 218.121026 
L 205.714286 255.999001 
" style="fill:none;stroke:#1f77b4;stroke-linecap:square;"/>
   </g>
   <g id="line2d_46">
    <path clip-path="url(#p71d5697863)" d="M 216 255.999001 
L 216 311.262099 
" style="fill:none;stroke:#1f77b4;stroke-linecap:square;"/>
   </g>
   <g id="line2d_47">
    <path clip-path="url(#p71d5697863)" d="M 216 218.121026 
L 216 169.23044 
" style="fill:none;stroke:#1f77b4;stroke-linecap:square;"/>
   </g>
   <g id="line2d_48">
    <path clip-path="url(#p71d5697863)" d="M 210.857143 311.262099 
L 221.142857 311.262099 
" style="fill:none;stroke:#000000;stroke-linecap:square;"/>
   </g>
   <g id="line2d_49">
    <path clip-path="url(#p71d5697863)" d="M 210.857143 169.23044 
L 221.142857 169.23044 
" style="fill:none;stroke:#000000;stroke-linecap:square;"/>
   </g>
   <g id="line2d_50">
    <g clip-path="url(#p71d5697863)">
     <use style="fill-opacity:0;stroke:#000000;" x="216" xlink:href="#m6382048bd6" y="139.666828"/>
     <use style="fill-opacity:0;stroke:#000000;" x="216" xlink:href="#m6382048bd6" y="155.041158"/>
     <use style="fill-opacity:0;stroke:#000000;" x="216" xlink:href="#m6382048bd6" y="155.100039"/>
     <use style="fill-opacity:0;stroke:#000000;" x="216" xlink:href="#m6382048bd6" y="128.127613"/>
     <use style="fill-opacity:0;stroke:#000000;" x="216" xlink:href="#m6382048bd6" y="67.581818"/>
     <use style="fill-opacity:0;stroke:#000000;" x="216" xlink:href="#m6382048bd6" y="157.0977"/>
     <use style="fill-opacity:0;stroke:#000000;" x="216" xlink:href="#m6382048bd6" y="145.347042"/>
     <use style="fill-opacity:0;stroke:#000000;" x="216" xlink:href="#m6382048bd6" y="160.57074"/>
    </g>
   </g>
   <g id="line2d_51">
    <path clip-path="url(#p71d5697863)" d="M 246.857143 259.574369 
L 267.428571 259.574369 
L 267.428571 226.711429 
L 246.857143 226.711429 
L 246.857143 259.574369 
" style="fill:none;stroke:#1f77b4;stroke-linecap:square;"/>
   </g>
   <g id="line2d_52">
    <path clip-path="url(#p71d5697863)" d="M 257.142857 259.574369 
L 257.142857 284.893558 
" style="fill:none;stroke:#1f77b4;stroke-linecap:square;"/>
   </g>
   <g id="line2d_53">
    <path clip-path="url(#p71d5697863)" d="M 257.142857 226.711429 
L 257.142857 183.951078 
" style="fill:none;stroke:#1f77b4;stroke-linecap:square;"/>
   </g>
   <g id="line2d_54">
    <path clip-path="url(#p71d5697863)" d="M 252 284.893558 
L 262.285714 284.893558 
" style="fill:none;stroke:#000000;stroke-linecap:square;"/>
   </g>
   <g id="line2d_55">
    <path clip-path="url(#p71d5697863)" d="M 252 183.951078 
L 262.285714 183.951078 
" style="fill:none;stroke:#000000;stroke-linecap:square;"/>
   </g>
   <g id="line2d_56">
    <g clip-path="url(#p71d5697863)">
     <use style="fill-opacity:0;stroke:#000000;" x="257.142857" xlink:href="#m6382048bd6" y="166.70085"/>
     <use style="fill-opacity:0;stroke:#000000;" x="257.142857" xlink:href="#m6382048bd6" y="176.440556"/>
     <use style="fill-opacity:0;stroke:#000000;" x="257.142857" xlink:href="#m6382048bd6" y="169.886275"/>
     <use style="fill-opacity:0;stroke:#000000;" x="257.142857" xlink:href="#m6382048bd6" y="172.720487"/>
     <use style="fill-opacity:0;stroke:#000000;" x="257.142857" xlink:href="#m6382048bd6" y="91.819501"/>
    </g>
   </g>
   <g id="line2d_57">
    <path clip-path="url(#p71d5697863)" d="M 288 255.844153 
L 308.571429 255.844153 
L 308.571429 227.619062 
L 288 227.619062 
L 288 255.844153 
" style="fill:none;stroke:#1f77b4;stroke-linecap:square;"/>
   </g>
   <g id="line2d_58">
    <path clip-path="url(#p71d5697863)" d="M 298.285714 255.844153 
L 298.285714 291.843284 
" style="fill:none;stroke:#1f77b4;stroke-linecap:square;"/>
   </g>
   <g id="line2d_59">
    <path clip-path="url(#p71d5697863)" d="M 298.285714 227.619062 
L 298.285714 188.681768 
" style="fill:none;stroke:#1f77b4;stroke-linecap:square;"/>
   </g>
   <g id="line2d_60">
    <path clip-path="url(#p71d5697863)" d="M 293.142857 291.843284 
L 303.428571 291.843284 
" style="fill:none;stroke:#000000;stroke-linecap:square;"/>
   </g>
   <g id="line2d_61">
    <path clip-path="url(#p71d5697863)" d="M 293.142857 188.681768 
L 303.428571 188.681768 
" style="fill:none;stroke:#000000;stroke-linecap:square;"/>
   </g>
   <g id="line2d_62">
    <g clip-path="url(#p71d5697863)">
     <use style="fill-opacity:0;stroke:#000000;" x="298.285714" xlink:href="#m6382048bd6" y="171.532438"/>
     <use style="fill-opacity:0;stroke:#000000;" x="298.285714" xlink:href="#m6382048bd6" y="89.310848"/>
     <use style="fill-opacity:0;stroke:#000000;" x="298.285714" xlink:href="#m6382048bd6" y="154.913892"/>
     <use style="fill-opacity:0;stroke:#000000;" x="298.285714" xlink:href="#m6382048bd6" y="184.228761"/>
     <use style="fill-opacity:0;stroke:#000000;" x="298.285714" xlink:href="#m6382048bd6" y="171.433541"/>
     <use style="fill-opacity:0;stroke:#000000;" x="298.285714" xlink:href="#m6382048bd6" y="155.35507"/>
     <use style="fill-opacity:0;stroke:#000000;" x="298.285714" xlink:href="#m6382048bd6" y="182.624759"/>
    </g>
   </g>
   <g id="line2d_63">
    <path clip-path="url(#p71d5697863)" d="M 329.142857 256.439947 
L 349.714286 256.439947 
L 349.714286 228.877837 
L 329.142857 228.877837 
L 329.142857 256.439947 
" style="fill:none;stroke:#1f77b4;stroke-linecap:square;"/>
   </g>
   <g id="line2d_64">
    <path clip-path="url(#p71d5697863)" d="M 339.428571 256.439947 
L 339.428571 287.816377 
" style="fill:none;stroke:#1f77b4;stroke-linecap:square;"/>
   </g>
   <g id="line2d_65">
    <path clip-path="url(#p71d5697863)" d="M 339.428571 228.877837 
L 339.428571 190.178084 
" style="fill:none;stroke:#1f77b4;stroke-linecap:square;"/>
   </g>
   <g id="line2d_66">
    <path clip-path="url(#p71d5697863)" d="M 334.285714 287.816377 
L 344.571429 287.816377 
" style="fill:none;stroke:#000000;stroke-linecap:square;"/>
   </g>
   <g id="line2d_67">
    <path clip-path="url(#p71d5697863)" d="M 334.285714 190.178084 
L 344.571429 190.178084 
" style="fill:none;stroke:#000000;stroke-linecap:square;"/>
   </g>
   <g id="line2d_68">
    <g clip-path="url(#p71d5697863)">
     <use style="fill-opacity:0;stroke:#000000;" x="339.428571" xlink:href="#m6382048bd6" y="366.520694"/>
     <use style="fill-opacity:0;stroke:#000000;" x="339.428571" xlink:href="#m6382048bd6" y="304.749335"/>
     <use style="fill-opacity:0;stroke:#000000;" x="339.428571" xlink:href="#m6382048bd6" y="304.297367"/>
     <use style="fill-opacity:0;stroke:#000000;" x="339.428571" xlink:href="#m6382048bd6" y="119.983621"/>
     <use style="fill-opacity:0;stroke:#000000;" x="339.428571" xlink:href="#m6382048bd6" y="182.720011"/>
     <use style="fill-opacity:0;stroke:#000000;" x="339.428571" xlink:href="#m6382048bd6" y="176.790697"/>
     <use style="fill-opacity:0;stroke:#000000;" x="339.428571" xlink:href="#m6382048bd6" y="183.846893"/>
     <use style="fill-opacity:0;stroke:#000000;" x="339.428571" xlink:href="#m6382048bd6" y="181.355176"/>
     <use style="fill-opacity:0;stroke:#000000;" x="339.428571" xlink:href="#m6382048bd6" y="175.24193"/>
     <use style="fill-opacity:0;stroke:#000000;" x="339.428571" xlink:href="#m6382048bd6" y="184.320441"/>
     <use style="fill-opacity:0;stroke:#000000;" x="339.428571" xlink:href="#m6382048bd6" y="167.970647"/>
     <use style="fill-opacity:0;stroke:#000000;" x="339.428571" xlink:href="#m6382048bd6" y="155.990469"/>
     <use style="fill-opacity:0;stroke:#000000;" x="339.428571" xlink:href="#m6382048bd6" y="85.703325"/>
     <use style="fill-opacity:0;stroke:#000000;" x="339.428571" xlink:href="#m6382048bd6" y="126.744985"/>
    </g>
   </g>
   <g id="line2d_69">
    <path clip-path="url(#p71d5697863)" d="M 370.285714 255.756797 
L 390.857143 255.756797 
L 390.857143 228.183415 
L 370.285714 228.183415 
L 370.285714 255.756797 
" style="fill:none;stroke:#1f77b4;stroke-linecap:square;"/>
   </g>
   <g id="line2d_70">
    <path clip-path="url(#p71d5697863)" d="M 380.571429 255.756797 
L 380.571429 275.976255 
" style="fill:none;stroke:#1f77b4;stroke-linecap:square;"/>
   </g>
   <g id="line2d_71">
    <path clip-path="url(#p71d5697863)" d="M 380.571429 228.183415 
L 380.571429 195.277851 
" style="fill:none;stroke:#1f77b4;stroke-linecap:square;"/>
   </g>
   <g id="line2d_72">
    <path clip-path="url(#p71d5697863)" d="M 375.428571 275.976255 
L 385.714286 275.976255 
" style="fill:none;stroke:#000000;stroke-linecap:square;"/>
   </g>
   <g id="line2d_73">
    <path clip-path="url(#p71d5697863)" d="M 375.428571 195.277851 
L 385.714286 195.277851 
" style="fill:none;stroke:#000000;stroke-linecap:square;"/>
   </g>
   <g id="line2d_74">
    <g clip-path="url(#p71d5697863)">
     <use style="fill-opacity:0;stroke:#000000;" x="380.571429" xlink:href="#m6382048bd6" y="306.581715"/>
     <use style="fill-opacity:0;stroke:#000000;" x="380.571429" xlink:href="#m6382048bd6" y="301.504529"/>
     <use style="fill-opacity:0;stroke:#000000;" x="380.571429" xlink:href="#m6382048bd6" y="411.218182"/>
     <use style="fill-opacity:0;stroke:#000000;" x="380.571429" xlink:href="#m6382048bd6" y="182.44047"/>
     <use style="fill-opacity:0;stroke:#000000;" x="380.571429" xlink:href="#m6382048bd6" y="179.836994"/>
     <use style="fill-opacity:0;stroke:#000000;" x="380.571429" xlink:href="#m6382048bd6" y="174.531073"/>
     <use style="fill-opacity:0;stroke:#000000;" x="380.571429" xlink:href="#m6382048bd6" y="139.208715"/>
     <use style="fill-opacity:0;stroke:#000000;" x="380.571429" xlink:href="#m6382048bd6" y="159.349249"/>
     <use style="fill-opacity:0;stroke:#000000;" x="380.571429" xlink:href="#m6382048bd6" y="160.961612"/>
     <use style="fill-opacity:0;stroke:#000000;" x="380.571429" xlink:href="#m6382048bd6" y="178.920339"/>
     <use style="fill-opacity:0;stroke:#000000;" x="380.571429" xlink:href="#m6382048bd6" y="85.585063"/>
    </g>
   </g>
   <g id="line2d_75">
    <path clip-path="url(#p71d5697863)" d="M 411.428571 253.963075 
L 432 253.963075 
L 432 226.782065 
L 411.428571 226.782065 
L 411.428571 253.963075 
" style="fill:none;stroke:#1f77b4;stroke-linecap:square;"/>
   </g>
   <g id="line2d_76">
    <path clip-path="url(#p71d5697863)" d="M 421.714286 253.963075 
L 421.714286 283.023163 
" style="fill:none;stroke:#1f77b4;stroke-linecap:square;"/>
   </g>
   <g id="line2d_77">
    <path clip-path="url(#p71d5697863)" d="M 421.714286 226.782065 
L 421.714286 190.119418 
" style="fill:none;stroke:#1f77b4;stroke-linecap:square;"/>
   </g>
   <g id="line2d_78">
    <path clip-path="url(#p71d5697863)" d="M 416.571429 283.023163 
L 426.857143 283.023163 
" style="fill:none;stroke:#000000;stroke-linecap:square;"/>
   </g>
   <g id="line2d_79">
    <path clip-path="url(#p71d5697863)" d="M 416.571429 190.119418 
L 426.857143 190.119418 
" style="fill:none;stroke:#000000;stroke-linecap:square;"/>
   </g>
   <g id="line2d_80">
    <g clip-path="url(#p71d5697863)">
     <use style="fill-opacity:0;stroke:#000000;" x="421.714286" xlink:href="#m6382048bd6" y="306.674538"/>
     <use style="fill-opacity:0;stroke:#000000;" x="421.714286" xlink:href="#m6382048bd6" y="296.9587"/>
     <use style="fill-opacity:0;stroke:#000000;" x="421.714286" xlink:href="#m6382048bd6" y="381.951761"/>
     <use style="fill-opacity:0;stroke:#000000;" x="421.714286" xlink:href="#m6382048bd6" y="165.078555"/>
     <use style="fill-opacity:0;stroke:#000000;" x="421.714286" xlink:href="#m6382048bd6" y="172.454809"/>
     <use style="fill-opacity:0;stroke:#000000;" x="421.714286" xlink:href="#m6382048bd6" y="175.201843"/>
     <use style="fill-opacity:0;stroke:#000000;" x="421.714286" xlink:href="#m6382048bd6" y="150.144259"/>
     <use style="fill-opacity:0;stroke:#000000;" x="421.714286" xlink:href="#m6382048bd6" y="159.428138"/>
     <use style="fill-opacity:0;stroke:#000000;" x="421.714286" xlink:href="#m6382048bd6" y="145.707902"/>
    </g>
   </g>
   <g id="line2d_81">
    <path clip-path="url(#p71d5697863)" d="M 452.571429 251.252984 
L 473.142857 251.252984 
L 473.142857 219.879323 
L 452.571429 219.879323 
L 452.571429 251.252984 
" style="fill:none;stroke:#1f77b4;stroke-linecap:square;"/>
   </g>
   <g id="line2d_82">
    <path clip-path="url(#p71d5697863)" d="M 462.857143 251.252984 
L 462.857143 277.757758 
" style="fill:none;stroke:#1f77b4;stroke-linecap:square;"/>
   </g>
   <g id="line2d_83">
    <path clip-path="url(#p71d5697863)" d="M 462.857143 219.879323 
L 462.857143 176.298498 
" style="fill:none;stroke:#1f77b4;stroke-linecap:square;"/>
   </g>
   <g id="line2d_84">
    <path clip-path="url(#p71d5697863)" d="M 457.714286 277.757758 
L 468 277.757758 
" style="fill:none;stroke:#000000;stroke-linecap:square;"/>
   </g>
   <g id="line2d_85">
    <path clip-path="url(#p71d5697863)" d="M 457.714286 176.298498 
L 468 176.298498 
" style="fill:none;stroke:#000000;stroke-linecap:square;"/>
   </g>
   <g id="line2d_86">
    <g clip-path="url(#p71d5697863)">
     <use style="fill-opacity:0;stroke:#000000;" x="462.857143" xlink:href="#m6382048bd6" y="382.279321"/>
     <use style="fill-opacity:0;stroke:#000000;" x="462.857143" xlink:href="#m6382048bd6" y="169.730998"/>
     <use style="fill-opacity:0;stroke:#000000;" x="462.857143" xlink:href="#m6382048bd6" y="155.370791"/>
     <use style="fill-opacity:0;stroke:#000000;" x="462.857143" xlink:href="#m6382048bd6" y="125.92394"/>
    </g>
   </g>
   <g id="line2d_87">
    <path clip-path="url(#p71d5697863)" d="M 493.714286 256.560656 
L 514.285714 256.560656 
L 514.285714 230.311592 
L 493.714286 230.311592 
L 493.714286 256.560656 
" style="fill:none;stroke:#1f77b4;stroke-linecap:square;"/>
   </g>
   <g id="line2d_88">
    <path clip-path="url(#p71d5697863)" d="M 504 256.560656 
L 504 288.05776 
" style="fill:none;stroke:#1f77b4;stroke-linecap:square;"/>
   </g>
   <g id="line2d_89">
    <path clip-path="url(#p71d5697863)" d="M 504 230.311592 
L 504 205.875401 
" style="fill:none;stroke:#1f77b4;stroke-linecap:square;"/>
   </g>
   <g id="line2d_90">
    <path clip-path="url(#p71d5697863)" d="M 498.857143 288.05776 
L 509.142857 288.05776 
" style="fill:none;stroke:#000000;stroke-linecap:square;"/>
   </g>
   <g id="line2d_91">
    <path clip-path="url(#p71d5697863)" d="M 498.857143 205.875401 
L 509.142857 205.875401 
" style="fill:none;stroke:#000000;stroke-linecap:square;"/>
   </g>
   <g id="line2d_92">
    <g clip-path="url(#p71d5697863)">
     <use style="fill-opacity:0;stroke:#000000;" x="504" xlink:href="#m6382048bd6" y="187.617482"/>
     <use style="fill-opacity:0;stroke:#000000;" x="504" xlink:href="#m6382048bd6" y="144.409951"/>
    </g>
   </g>
   <g id="line2d_93">
    <path clip-path="url(#p71d5697863)" d="M 534.857143 252.556831 
L 555.428571 252.556831 
L 555.428571 228.358092 
L 534.857143 228.358092 
L 534.857143 252.556831 
" style="fill:none;stroke:#1f77b4;stroke-linecap:square;"/>
   </g>
   <g id="line2d_94">
    <path clip-path="url(#p71d5697863)" d="M 545.142857 252.556831 
L 545.142857 279.375695 
" style="fill:none;stroke:#1f77b4;stroke-linecap:square;"/>
   </g>
   <g id="line2d_95">
    <path clip-path="url(#p71d5697863)" d="M 545.142857 228.358092 
L 545.142857 194.653814 
" style="fill:none;stroke:#1f77b4;stroke-linecap:square;"/>
   </g>
   <g id="line2d_96">
    <path clip-path="url(#p71d5697863)" d="M 540 279.375695 
L 550.285714 279.375695 
" style="fill:none;stroke:#000000;stroke-linecap:square;"/>
   </g>
   <g id="line2d_97">
    <path clip-path="url(#p71d5697863)" d="M 540 194.653814 
L 550.285714 194.653814 
" style="fill:none;stroke:#000000;stroke-linecap:square;"/>
   </g>
   <g id="line2d_98"/>
   <g id="line2d_99">
    <path clip-path="url(#p71d5697863)" d="M 576 248.588716 
L 596.571429 248.588716 
L 596.571429 212.177723 
L 576 212.177723 
L 576 248.588716 
" style="fill:none;stroke:#1f77b4;stroke-linecap:square;"/>
   </g>
   <g id="line2d_100">
    <path clip-path="url(#p71d5697863)" d="M 586.285714 248.588716 
L 586.285714 270.63875 
" style="fill:none;stroke:#1f77b4;stroke-linecap:square;"/>
   </g>
   <g id="line2d_101">
    <path clip-path="url(#p71d5697863)" d="M 586.285714 212.177723 
L 586.285714 203.62228 
" style="fill:none;stroke:#1f77b4;stroke-linecap:square;"/>
   </g>
   <g id="line2d_102">
    <path clip-path="url(#p71d5697863)" d="M 581.142857 270.63875 
L 591.428571 270.63875 
" style="fill:none;stroke:#000000;stroke-linecap:square;"/>
   </g>
   <g id="line2d_103">
    <path clip-path="url(#p71d5697863)" d="M 581.142857 203.62228 
L 591.428571 203.62228 
" style="fill:none;stroke:#000000;stroke-linecap:square;"/>
   </g>
   <g id="line2d_104"/>
   <g id="line2d_105">
    <path clip-path="url(#p71d5697863)" d="M 617.142857 223.148281 
L 637.714286 223.148281 
L 637.714286 204.887647 
L 617.142857 204.887647 
L 617.142857 223.148281 
" style="fill:none;stroke:#1f77b4;stroke-linecap:square;"/>
   </g>
   <g id="line2d_106">
    <path clip-path="url(#p71d5697863)" d="M 627.428571 223.148281 
L 627.428571 232.278598 
" style="fill:none;stroke:#1f77b4;stroke-linecap:square;"/>
   </g>
   <g id="line2d_107">
    <path clip-path="url(#p71d5697863)" d="M 627.428571 204.887647 
L 627.428571 195.757329 
" style="fill:none;stroke:#1f77b4;stroke-linecap:square;"/>
   </g>
   <g id="line2d_108">
    <path clip-path="url(#p71d5697863)" d="M 622.285714 232.278598 
L 632.571429 232.278598 
" style="fill:none;stroke:#000000;stroke-linecap:square;"/>
   </g>
   <g id="line2d_109">
    <path clip-path="url(#p71d5697863)" d="M 622.285714 195.757329 
L 632.571429 195.757329 
" style="fill:none;stroke:#000000;stroke-linecap:square;"/>
   </g>
   <g id="line2d_110"/>
   <g id="line2d_111">
    <path clip-path="url(#p71d5697863)" d="M 82.285714 211.806002 
L 102.857143 211.806002 
" style="fill:none;stroke:#2ca02c;stroke-linecap:square;"/>
   </g>
   <g id="line2d_112">
    <path clip-path="url(#p71d5697863)" d="M 92.571429 206.419855 
" style="fill:none;stroke:#2ca02c;stroke-dasharray:3.7,1.6;stroke-dashoffset:0;"/>
    <defs>
     <path d="M 0 -3 
L -3 3 
L 3 3 
z
" id="mbbfca6e945" style="stroke:#2ca02c;stroke-linejoin:miter;"/>
    </defs>
    <g clip-path="url(#p71d5697863)">
     <use style="fill:#2ca02c;stroke:#2ca02c;stroke-linejoin:miter;" x="92.571429" xlink:href="#mbbfca6e945" y="206.419855"/>
    </g>
   </g>
   <g id="line2d_113">
    <path clip-path="url(#p71d5697863)" d="M 123.428571 222.900253 
L 144 222.900253 
" style="fill:none;stroke:#2ca02c;stroke-linecap:square;"/>
   </g>
   <g id="line2d_114">
    <path clip-path="url(#p71d5697863)" d="M 133.714286 230.631966 
" style="fill:none;stroke:#2ca02c;stroke-dasharray:3.7,1.6;stroke-dashoffset:0;"/>
    <g clip-path="url(#p71d5697863)">
     <use style="fill:#2ca02c;stroke:#2ca02c;stroke-linejoin:miter;" x="133.714286" xlink:href="#mbbfca6e945" y="230.631966"/>
    </g>
   </g>
   <g id="line2d_115">
    <path clip-path="url(#p71d5697863)" d="M 164.571429 243.143757 
L 185.142857 243.143757 
" style="fill:none;stroke:#2ca02c;stroke-linecap:square;"/>
   </g>
   <g id="line2d_116">
    <path clip-path="url(#p71d5697863)" d="M 174.857143 235.609105 
" style="fill:none;stroke:#2ca02c;stroke-dasharray:3.7,1.6;stroke-dashoffset:0;"/>
    <g clip-path="url(#p71d5697863)">
     <use style="fill:#2ca02c;stroke:#2ca02c;stroke-linejoin:miter;" x="174.857143" xlink:href="#mbbfca6e945" y="235.609105"/>
    </g>
   </g>
   <g id="line2d_117">
    <path clip-path="url(#p71d5697863)" d="M 205.714286 242.435114 
L 226.285714 242.435114 
" style="fill:none;stroke:#2ca02c;stroke-linecap:square;"/>
   </g>
   <g id="line2d_118">
    <path clip-path="url(#p71d5697863)" d="M 216 232.773119 
" style="fill:none;stroke:#2ca02c;stroke-dasharray:3.7,1.6;stroke-dashoffset:0;"/>
    <g clip-path="url(#p71d5697863)">
     <use style="fill:#2ca02c;stroke:#2ca02c;stroke-linejoin:miter;" x="216" xlink:href="#mbbfca6e945" y="232.773119"/>
    </g>
   </g>
   <g id="line2d_119">
    <path clip-path="url(#p71d5697863)" d="M 246.857143 248.255242 
L 267.428571 248.255242 
" style="fill:none;stroke:#2ca02c;stroke-linecap:square;"/>
   </g>
   <g id="line2d_120">
    <path clip-path="url(#p71d5697863)" d="M 257.142857 240.81257 
" style="fill:none;stroke:#2ca02c;stroke-dasharray:3.7,1.6;stroke-dashoffset:0;"/>
    <g clip-path="url(#p71d5697863)">
     <use style="fill:#2ca02c;stroke:#2ca02c;stroke-linejoin:miter;" x="257.142857" xlink:href="#mbbfca6e945" y="240.81257"/>
    </g>
   </g>
   <g id="line2d_121">
    <path clip-path="url(#p71d5697863)" d="M 288 244.475042 
L 308.571429 244.475042 
" style="fill:none;stroke:#2ca02c;stroke-linecap:square;"/>
   </g>
   <g id="line2d_122">
    <path clip-path="url(#p71d5697863)" d="M 298.285714 239.182375 
" style="fill:none;stroke:#2ca02c;stroke-dasharray:3.7,1.6;stroke-dashoffset:0;"/>
    <g clip-path="url(#p71d5697863)">
     <use style="fill:#2ca02c;stroke:#2ca02c;stroke-linejoin:miter;" x="298.285714" xlink:href="#mbbfca6e945" y="239.182375"/>
    </g>
   </g>
   <g id="line2d_123">
    <path clip-path="url(#p71d5697863)" d="M 329.142857 242.482026 
L 349.714286 242.482026 
" style="fill:none;stroke:#2ca02c;stroke-linecap:square;"/>
   </g>
   <g id="line2d_124">
    <path clip-path="url(#p71d5697863)" d="M 339.428571 239.141058 
" style="fill:none;stroke:#2ca02c;stroke-dasharray:3.7,1.6;stroke-dashoffset:0;"/>
    <g clip-path="url(#p71d5697863)">
     <use style="fill:#2ca02c;stroke:#2ca02c;stroke-linejoin:miter;" x="339.428571" xlink:href="#mbbfca6e945" y="239.141058"/>
    </g>
   </g>
   <g id="line2d_125">
    <path clip-path="url(#p71d5697863)" d="M 370.285714 245.84638 
L 390.857143 245.84638 
" style="fill:none;stroke:#2ca02c;stroke-linecap:square;"/>
   </g>
   <g id="line2d_126">
    <path clip-path="url(#p71d5697863)" d="M 380.571429 239.697821 
" style="fill:none;stroke:#2ca02c;stroke-dasharray:3.7,1.6;stroke-dashoffset:0;"/>
    <g clip-path="url(#p71d5697863)">
     <use style="fill:#2ca02c;stroke:#2ca02c;stroke-linejoin:miter;" x="380.571429" xlink:href="#mbbfca6e945" y="239.697821"/>
    </g>
   </g>
   <g id="line2d_127">
    <path clip-path="url(#p71d5697863)" d="M 411.428571 242.201592 
L 432 242.201592 
" style="fill:none;stroke:#2ca02c;stroke-linecap:square;"/>
   </g>
   <g id="line2d_128">
    <path clip-path="url(#p71d5697863)" d="M 421.714286 239.41188 
" style="fill:none;stroke:#2ca02c;stroke-dasharray:3.7,1.6;stroke-dashoffset:0;"/>
    <g clip-path="url(#p71d5697863)">
     <use style="fill:#2ca02c;stroke:#2ca02c;stroke-linejoin:miter;" x="421.714286" xlink:href="#mbbfca6e945" y="239.41188"/>
    </g>
   </g>
   <g id="line2d_129">
    <path clip-path="url(#p71d5697863)" d="M 452.571429 238.175614 
L 473.142857 238.175614 
" style="fill:none;stroke:#2ca02c;stroke-linecap:square;"/>
   </g>
   <g id="line2d_130">
    <path clip-path="url(#p71d5697863)" d="M 462.857143 234.882543 
" style="fill:none;stroke:#2ca02c;stroke-dasharray:3.7,1.6;stroke-dashoffset:0;"/>
    <g clip-path="url(#p71d5697863)">
     <use style="fill:#2ca02c;stroke:#2ca02c;stroke-linejoin:miter;" x="462.857143" xlink:href="#mbbfca6e945" y="234.882543"/>
    </g>
   </g>
   <g id="line2d_131">
    <path clip-path="url(#p71d5697863)" d="M 493.714286 247.67701 
L 514.285714 247.67701 
" style="fill:none;stroke:#2ca02c;stroke-linecap:square;"/>
   </g>
   <g id="line2d_132">
    <path clip-path="url(#p71d5697863)" d="M 504 243.027141 
" style="fill:none;stroke:#2ca02c;stroke-dasharray:3.7,1.6;stroke-dashoffset:0;"/>
    <g clip-path="url(#p71d5697863)">
     <use style="fill:#2ca02c;stroke:#2ca02c;stroke-linejoin:miter;" x="504" xlink:href="#mbbfca6e945" y="243.027141"/>
    </g>
   </g>
   <g id="line2d_133">
    <path clip-path="url(#p71d5697863)" d="M 534.857143 242.637982 
L 555.428571 242.637982 
" style="fill:none;stroke:#2ca02c;stroke-linecap:square;"/>
   </g>
   <g id="line2d_134">
    <path clip-path="url(#p71d5697863)" d="M 545.142857 238.804269 
" style="fill:none;stroke:#2ca02c;stroke-dasharray:3.7,1.6;stroke-dashoffset:0;"/>
    <g clip-path="url(#p71d5697863)">
     <use style="fill:#2ca02c;stroke:#2ca02c;stroke-linejoin:miter;" x="545.142857" xlink:href="#mbbfca6e945" y="238.804269"/>
    </g>
   </g>
   <g id="line2d_135">
    <path clip-path="url(#p71d5697863)" d="M 576 240.002743 
L 596.571429 240.002743 
" style="fill:none;stroke:#2ca02c;stroke-linecap:square;"/>
   </g>
   <g id="line2d_136">
    <path clip-path="url(#p71d5697863)" d="M 586.285714 235.229686 
" style="fill:none;stroke:#2ca02c;stroke-dasharray:3.7,1.6;stroke-dashoffset:0;"/>
    <g clip-path="url(#p71d5697863)">
     <use style="fill:#2ca02c;stroke:#2ca02c;stroke-linejoin:miter;" x="586.285714" xlink:href="#mbbfca6e945" y="235.229686"/>
    </g>
   </g>
   <g id="line2d_137">
    <path clip-path="url(#p71d5697863)" d="M 617.142857 214.017964 
L 637.714286 214.017964 
" style="fill:none;stroke:#2ca02c;stroke-linecap:square;"/>
   </g>
   <g id="line2d_138">
    <path clip-path="url(#p71d5697863)" d="M 627.428571 214.017964 
" style="fill:none;stroke:#2ca02c;stroke-dasharray:3.7,1.6;stroke-dashoffset:0;"/>
    <g clip-path="url(#p71d5697863)">
     <use style="fill:#2ca02c;stroke:#2ca02c;stroke-linejoin:miter;" x="627.428571" xlink:href="#mbbfca6e945" y="214.017964"/>
    </g>
   </g>
   <g id="patch_3">
    <path d="M 72 428.4 
L 72 50.4 
" style="fill:none;stroke:#000000;stroke-linecap:square;stroke-linejoin:miter;stroke-width:0.8;"/>
   </g>
   <g id="patch_4">
    <path d="M 648 428.4 
L 648 50.4 
" style="fill:none;stroke:#000000;stroke-linecap:square;stroke-linejoin:miter;stroke-width:0.8;"/>
   </g>
   <g id="patch_5">
    <path d="M 72 428.4 
L 648 428.4 
" style="fill:none;stroke:#000000;stroke-linecap:square;stroke-linejoin:miter;stroke-width:0.8;"/>
   </g>
   <g id="patch_6">
    <path d="M 72 50.4 
L 648 50.4 
" style="fill:none;stroke:#000000;stroke-linecap:square;stroke-linejoin:miter;stroke-width:0.8;"/>
   </g>
   <g id="text_29">
    <!-- Split Pace Differences by Age Group -->
    <defs>
     <path d="M 9.28125 3.515625 
L 9.28125 20.125 
L 14.890625 20.0625 
Q 15.140625 11.765625 19.703125 7.78125 
Q 24.265625 3.8125 33.59375 3.8125 
Q 42.28125 3.8125 46.84375 7.25 
Q 51.421875 10.6875 51.421875 17.28125 
Q 51.421875 22.5625 48.65625 25.390625 
Q 45.90625 28.21875 37.015625 30.90625 
L 27.390625 33.796875 
Q 16.9375 36.96875 12.671875 41.703125 
Q 8.40625 46.4375 8.40625 54.6875 
Q 8.40625 63.96875 14.984375 69.09375 
Q 21.578125 74.21875 33.5 74.21875 
Q 38.578125 74.21875 44.625 73.109375 
Q 50.6875 72.015625 57.515625 69.921875 
L 57.515625 54.390625 
L 52 54.390625 
Q 51.171875 62.109375 46.84375 65.546875 
Q 42.53125 69 33.6875 69 
Q 25.984375 69 21.953125 65.84375 
Q 17.921875 62.703125 17.921875 56.6875 
Q 17.921875 51.46875 20.9375 48.484375 
Q 23.96875 45.515625 33.796875 42.578125 
L 42.828125 39.890625 
Q 52.734375 36.921875 56.953125 32.296875 
Q 61.1875 27.6875 61.1875 19.921875 
Q 61.1875 9.328125 54.390625 3.953125 
Q 47.609375 -1.421875 34.1875 -1.421875 
Q 28.171875 -1.421875 21.9375 -0.1875 
Q 15.71875 1.03125 9.28125 3.515625 
z
" id="DejaVuSerif-83"/>
     <path d="M 20.515625 5.171875 
L 29 5.171875 
L 29 0 
L 2.875 0 
L 2.875 5.171875 
L 11.53125 5.171875 
L 11.53125 70.796875 
L 2.875 70.796875 
L 2.875 75.984375 
L 20.515625 75.984375 
z
" id="DejaVuSerif-108"/>
     <path d="M 5.609375 2.875 
L 5.609375 14.984375 
L 10.796875 14.984375 
Q 10.984375 9.1875 14.421875 6.296875 
Q 17.875 3.421875 24.609375 3.421875 
Q 30.671875 3.421875 33.84375 5.6875 
Q 37.015625 7.953125 37.015625 12.3125 
Q 37.015625 15.71875 34.6875 17.8125 
Q 32.375 19.921875 24.90625 22.3125 
L 18.40625 24.515625 
Q 11.71875 26.65625 8.71875 29.875 
Q 5.71875 33.109375 5.71875 38.09375 
Q 5.71875 45.21875 10.9375 49.265625 
Q 16.15625 53.328125 25.390625 53.328125 
Q 29.5 53.328125 34.03125 52.25 
Q 38.578125 51.171875 43.40625 49.125 
L 43.40625 37.796875 
L 38.234375 37.796875 
Q 38.03125 42.828125 34.703125 45.65625 
Q 31.390625 48.484375 25.6875 48.484375 
Q 20.015625 48.484375 17.109375 46.484375 
Q 14.203125 44.484375 14.203125 40.484375 
Q 14.203125 37.203125 16.40625 35.21875 
Q 18.609375 33.25 25.203125 31.203125 
L 32.328125 29 
Q 39.703125 26.703125 42.9375 23.265625 
Q 46.1875 19.828125 46.1875 14.40625 
Q 46.1875 7.03125 40.546875 2.796875 
Q 34.90625 -1.421875 25 -1.421875 
Q 19.96875 -1.421875 15.1875 -0.34375 
Q 10.40625 0.734375 5.609375 2.875 
z
" id="DejaVuSerif-115"/>
     <path d="M 11.53125 5.171875 
L 11.53125 70.796875 
L 2.875 70.796875 
L 2.875 75.984375 
L 20.515625 75.984375 
L 20.515625 43.796875 
Q 23.140625 48.6875 27.21875 51 
Q 31.296875 53.328125 37.3125 53.328125 
Q 46.875 53.328125 52.921875 45.75 
Q 58.984375 38.1875 58.984375 25.984375 
Q 58.984375 13.765625 52.921875 6.171875 
Q 46.875 -1.421875 37.3125 -1.421875 
Q 31.296875 -1.421875 27.21875 0.890625 
Q 23.140625 3.21875 20.515625 8.109375 
L 20.515625 0 
L 2.875 0 
L 2.875 5.171875 
z
M 20.515625 23.390625 
Q 20.515625 14.015625 24.09375 9.109375 
Q 27.6875 4.203125 34.515625 4.203125 
Q 41.40625 4.203125 44.9375 9.71875 
Q 48.484375 15.234375 48.484375 25.984375 
Q 48.484375 36.765625 44.9375 42.234375 
Q 41.40625 47.703125 34.515625 47.703125 
Q 27.6875 47.703125 24.09375 42.765625 
Q 20.515625 37.84375 20.515625 28.515625 
z
" id="DejaVuSerif-98"/>
     <path d="M 21.578125 -9.515625 
L 25 -0.875 
L 5.609375 46.6875 
L -0.296875 46.6875 
L -0.296875 51.90625 
L 23.578125 51.90625 
L 23.578125 46.6875 
L 15.28125 46.6875 
L 29.890625 10.984375 
L 44.484375 46.6875 
L 36.71875 46.6875 
L 36.71875 51.90625 
L 56.203125 51.90625 
L 56.203125 46.6875 
L 50.390625 46.6875 
L 26.609375 -11.71875 
Q 24.171875 -17.78125 21.1875 -20 
Q 18.21875 -22.21875 12.796875 -22.21875 
Q 10.5 -22.21875 8.078125 -21.828125 
Q 5.671875 -21.4375 3.21875 -20.703125 
L 3.21875 -10.796875 
L 7.8125 -10.796875 
Q 8.109375 -14.109375 9.5 -15.546875 
Q 10.890625 -17 13.8125 -17 
Q 16.5 -17 18.140625 -15.5 
Q 19.78125 -14.015625 21.578125 -9.515625 
z
" id="DejaVuSerif-121"/>
    </defs>
    <g transform="translate(174.6875 44.4)scale(0.2 -0.2)">
     <use xlink:href="#DejaVuSerif-83"/>
     <use x="68.505859" xlink:href="#DejaVuSerif-112"/>
     <use x="132.519531" xlink:href="#DejaVuSerif-108"/>
     <use x="164.501953" xlink:href="#DejaVuSerif-105"/>
     <use x="196.484375" xlink:href="#DejaVuSerif-116"/>
     <use x="236.669922" xlink:href="#DejaVuSerif-32"/>
     <use x="268.457031" xlink:href="#DejaVuSerif-80"/>
     <use x="335.679688" xlink:href="#DejaVuSerif-97"/>
     <use x="395.298828" xlink:href="#DejaVuSerif-99"/>
     <use x="451.304688" xlink:href="#DejaVuSerif-101"/>
     <use x="510.484375" xlink:href="#DejaVuSerif-32"/>
     <use x="542.271484" xlink:href="#DejaVuSerif-68"/>
     <use x="622.447266" xlink:href="#DejaVuSerif-105"/>
     <use x="654.429688" xlink:href="#DejaVuSerif-102"/>
     <use x="691.441406" xlink:href="#DejaVuSerif-102"/>
     <use x="728.453125" xlink:href="#DejaVuSerif-101"/>
     <use x="787.632812" xlink:href="#DejaVuSerif-114"/>
     <use x="835.435547" xlink:href="#DejaVuSerif-101"/>
     <use x="894.615234" xlink:href="#DejaVuSerif-110"/>
     <use x="959.019531" xlink:href="#DejaVuSerif-99"/>
     <use x="1015.025391" xlink:href="#DejaVuSerif-101"/>
     <use x="1074.205078" xlink:href="#DejaVuSerif-115"/>
     <use x="1125.523438" xlink:href="#DejaVuSerif-32"/>
     <use x="1157.310547" xlink:href="#DejaVuSerif-98"/>
     <use x="1221.324219" xlink:href="#DejaVuSerif-121"/>
     <use x="1277.818359" xlink:href="#DejaVuSerif-32"/>
     <use x="1309.605469" xlink:href="#DejaVuSerif-65"/>
     <use x="1381.822266" xlink:href="#DejaVuSerif-103"/>
     <use x="1445.835938" xlink:href="#DejaVuSerif-101"/>
     <use x="1505.015625" xlink:href="#DejaVuSerif-32"/>
     <use x="1536.802734" xlink:href="#DejaVuSerif-71"/>
     <use x="1616.685547" xlink:href="#DejaVuSerif-114"/>
     <use x="1664.488281" xlink:href="#DejaVuSerif-111"/>
     <use x="1724.693359" xlink:href="#DejaVuSerif-117"/>
     <use x="1789.097656" xlink:href="#DejaVuSerif-112"/>
    </g>
   </g>
  </g>
 </g>
 <defs>
  <clipPath id="p71d5697863">
   <rect height="378" width="576" x="72" y="50.4"/>
  </clipPath>
 </defs>
</svg>
