<?xml version="1.0" encoding="utf-8" standalone="no"?>
<!DOCTYPE svg PUBLIC "-//W3C//DTD SVG 1.1//EN"
  "http://www.w3.org/Graphics/SVG/1.1/DTD/svg11.dtd">
<!-- Created with matplotlib (https://matplotlib.org/) -->
<svg height="1080pt" version="1.1" viewBox="0 0 2160 1080" width="2160pt" xmlns="http://www.w3.org/2000/svg" xmlns:xlink="http://www.w3.org/1999/xlink">
 <defs>
  <style type="text/css">
*{stroke-linecap:butt;stroke-linejoin:round;}
  </style>
 </defs>
 <g id="figure_1">
  <g id="patch_1">
   <path d="M 0 1080 
L 2160 1080 
L 2160 0 
L 0 0 
z
" style="fill:#ffffff;"/>
  </g>
  <g id="axes_1">
   <g id="patch_2">
    <path d="M 270 945 
L 1944 945 
L 1944 129.6 
L 270 129.6 
z
" style="fill:#ffffff;"/>
   </g>
   <g id="patch_3">
    <path clip-path="url(#p9cb77599a8)" d="M 346.090909 945 
L 351.075807 945 
L 351.075807 916.238095 
L 346.090909 916.238095 
z
" style="fill:#1f77b4;"/>
   </g>
   <g id="patch_4">
    <path clip-path="url(#p9cb77599a8)" d="M 353.212192 945 
L 358.19709 945 
L 358.19709 945 
L 353.212192 945 
z
" style="fill:#1f77b4;"/>
   </g>
   <g id="patch_5">
    <path clip-path="url(#p9cb77599a8)" d="M 360.333475 945 
L 365.318373 945 
L 365.318373 945 
L 360.333475 945 
z
" style="fill:#1f77b4;"/>
   </g>
   <g id="patch_6">
    <path clip-path="url(#p9cb77599a8)" d="M 367.454758 945 
L 372.439656 945 
L 372.439656 945 
L 367.454758 945 
z
" style="fill:#1f77b4;"/>
   </g>
   <g id="patch_7">
    <path clip-path="url(#p9cb77599a8)" d="M 374.576041 945 
L 379.560939 945 
L 379.560939 945 
L 374.576041 945 
z
" style="fill:#1f77b4;"/>
   </g>
   <g id="patch_8">
    <path clip-path="url(#p9cb77599a8)" d="M 381.697324 945 
L 386.682222 945 
L 386.682222 945 
L 381.697324 945 
z
" style="fill:#1f77b4;"/>
   </g>
   <g id="patch_9">
    <path clip-path="url(#p9cb77599a8)" d="M 388.818607 945 
L 393.803505 945 
L 393.803505 945 
L 388.818607 945 
z
" style="fill:#1f77b4;"/>
   </g>
   <g id="patch_10">
    <path clip-path="url(#p9cb77599a8)" d="M 395.93989 945 
L 400.924788 945 
L 400.924788 945 
L 395.93989 945 
z
" style="fill:#1f77b4;"/>
   </g>
   <g id="patch_11">
    <path clip-path="url(#p9cb77599a8)" d="M 403.061173 945 
L 408.046071 945 
L 408.046071 945 
L 403.061173 945 
z
" style="fill:#1f77b4;"/>
   </g>
   <g id="patch_12">
    <path clip-path="url(#p9cb77599a8)" d="M 410.182456 945 
L 415.167354 945 
L 415.167354 858.714286 
L 410.182456 858.714286 
z
" style="fill:#1f77b4;"/>
   </g>
   <g id="patch_13">
    <path clip-path="url(#p9cb77599a8)" d="M 417.303739 945 
L 422.288637 945 
L 422.288637 945 
L 417.303739 945 
z
" style="fill:#1f77b4;"/>
   </g>
   <g id="patch_14">
    <path clip-path="url(#p9cb77599a8)" d="M 424.425022 945 
L 429.40992 945 
L 429.40992 945 
L 424.425022 945 
z
" style="fill:#1f77b4;"/>
   </g>
   <g id="patch_15">
    <path clip-path="url(#p9cb77599a8)" d="M 431.546305 945 
L 436.531203 945 
L 436.531203 945 
L 431.546305 945 
z
" style="fill:#1f77b4;"/>
   </g>
   <g id="patch_16">
    <path clip-path="url(#p9cb77599a8)" d="M 438.667588 945 
L 443.652486 945 
L 443.652486 916.238095 
L 438.667588 916.238095 
z
" style="fill:#1f77b4;"/>
   </g>
   <g id="patch_17">
    <path clip-path="url(#p9cb77599a8)" d="M 445.788871 945 
L 450.77377 945 
L 450.77377 945 
L 445.788871 945 
z
" style="fill:#1f77b4;"/>
   </g>
   <g id="patch_18">
    <path clip-path="url(#p9cb77599a8)" d="M 452.910154 945 
L 457.895053 945 
L 457.895053 916.238095 
L 452.910154 916.238095 
z
" style="fill:#1f77b4;"/>
   </g>
   <g id="patch_19">
    <path clip-path="url(#p9cb77599a8)" d="M 460.031437 945 
L 465.016336 945 
L 465.016336 887.47619 
L 460.031437 887.47619 
z
" style="fill:#1f77b4;"/>
   </g>
   <g id="patch_20">
    <path clip-path="url(#p9cb77599a8)" d="M 467.15272 945 
L 472.137619 945 
L 472.137619 858.714286 
L 467.15272 858.714286 
z
" style="fill:#1f77b4;"/>
   </g>
   <g id="patch_21">
    <path clip-path="url(#p9cb77599a8)" d="M 474.274003 945 
L 479.258902 945 
L 479.258902 945 
L 474.274003 945 
z
" style="fill:#1f77b4;"/>
   </g>
   <g id="patch_22">
    <path clip-path="url(#p9cb77599a8)" d="M 481.395287 945 
L 486.380185 945 
L 486.380185 916.238095 
L 481.395287 916.238095 
z
" style="fill:#1f77b4;"/>
   </g>
   <g id="patch_23">
    <path clip-path="url(#p9cb77599a8)" d="M 488.51657 945 
L 493.501468 945 
L 493.501468 945 
L 488.51657 945 
z
" style="fill:#1f77b4;"/>
   </g>
   <g id="patch_24">
    <path clip-path="url(#p9cb77599a8)" d="M 495.637853 945 
L 500.622751 945 
L 500.622751 887.47619 
L 495.637853 887.47619 
z
" style="fill:#1f77b4;"/>
   </g>
   <g id="patch_25">
    <path clip-path="url(#p9cb77599a8)" d="M 502.759136 945 
L 507.744034 945 
L 507.744034 916.238095 
L 502.759136 916.238095 
z
" style="fill:#1f77b4;"/>
   </g>
   <g id="patch_26">
    <path clip-path="url(#p9cb77599a8)" d="M 509.880419 945 
L 514.865317 945 
L 514.865317 801.190476 
L 509.880419 801.190476 
z
" style="fill:#1f77b4;"/>
   </g>
   <g id="patch_27">
    <path clip-path="url(#p9cb77599a8)" d="M 517.001702 945 
L 521.9866 945 
L 521.9866 858.714286 
L 517.001702 858.714286 
z
" style="fill:#1f77b4;"/>
   </g>
   <g id="patch_28">
    <path clip-path="url(#p9cb77599a8)" d="M 524.122985 945 
L 529.107883 945 
L 529.107883 916.238095 
L 524.122985 916.238095 
z
" style="fill:#1f77b4;"/>
   </g>
   <g id="patch_29">
    <path clip-path="url(#p9cb77599a8)" d="M 531.244268 945 
L 536.229166 945 
L 536.229166 916.238095 
L 531.244268 916.238095 
z
" style="fill:#1f77b4;"/>
   </g>
   <g id="patch_30">
    <path clip-path="url(#p9cb77599a8)" d="M 538.365551 945 
L 543.350449 945 
L 543.350449 858.714286 
L 538.365551 858.714286 
z
" style="fill:#1f77b4;"/>
   </g>
   <g id="patch_31">
    <path clip-path="url(#p9cb77599a8)" d="M 545.486834 945 
L 550.471732 945 
L 550.471732 829.952381 
L 545.486834 829.952381 
z
" style="fill:#1f77b4;"/>
   </g>
   <g id="patch_32">
    <path clip-path="url(#p9cb77599a8)" d="M 552.608117 945 
L 557.593015 945 
L 557.593015 686.142857 
L 552.608117 686.142857 
z
" style="fill:#1f77b4;"/>
   </g>
   <g id="patch_33">
    <path clip-path="url(#p9cb77599a8)" d="M 559.7294 945 
L 564.714298 945 
L 564.714298 801.190476 
L 559.7294 801.190476 
z
" style="fill:#1f77b4;"/>
   </g>
   <g id="patch_34">
    <path clip-path="url(#p9cb77599a8)" d="M 566.850683 945 
L 571.835581 945 
L 571.835581 772.428571 
L 566.850683 772.428571 
z
" style="fill:#1f77b4;"/>
   </g>
   <g id="patch_35">
    <path clip-path="url(#p9cb77599a8)" d="M 573.971966 945 
L 578.956864 945 
L 578.956864 628.619048 
L 573.971966 628.619048 
z
" style="fill:#1f77b4;"/>
   </g>
   <g id="patch_36">
    <path clip-path="url(#p9cb77599a8)" d="M 581.093249 945 
L 586.078147 945 
L 586.078147 743.666667 
L 581.093249 743.666667 
z
" style="fill:#1f77b4;"/>
   </g>
   <g id="patch_37">
    <path clip-path="url(#p9cb77599a8)" d="M 588.214532 945 
L 593.19943 945 
L 593.19943 686.142857 
L 588.214532 686.142857 
z
" style="fill:#1f77b4;"/>
   </g>
   <g id="patch_38">
    <path clip-path="url(#p9cb77599a8)" d="M 595.335815 945 
L 600.320713 945 
L 600.320713 916.238095 
L 595.335815 916.238095 
z
" style="fill:#1f77b4;"/>
   </g>
   <g id="patch_39">
    <path clip-path="url(#p9cb77599a8)" d="M 602.457098 945 
L 607.441996 945 
L 607.441996 686.142857 
L 602.457098 686.142857 
z
" style="fill:#1f77b4;"/>
   </g>
   <g id="patch_40">
    <path clip-path="url(#p9cb77599a8)" d="M 609.578381 945 
L 614.563279 945 
L 614.563279 657.380952 
L 609.578381 657.380952 
z
" style="fill:#1f77b4;"/>
   </g>
   <g id="patch_41">
    <path clip-path="url(#p9cb77599a8)" d="M 616.699664 945 
L 621.684562 945 
L 621.684562 743.666667 
L 616.699664 743.666667 
z
" style="fill:#1f77b4;"/>
   </g>
   <g id="patch_42">
    <path clip-path="url(#p9cb77599a8)" d="M 623.820947 945 
L 628.805845 945 
L 628.805845 513.571429 
L 623.820947 513.571429 
z
" style="fill:#1f77b4;"/>
   </g>
   <g id="patch_43">
    <path clip-path="url(#p9cb77599a8)" d="M 630.94223 945 
L 635.927128 945 
L 635.927128 657.380952 
L 630.94223 657.380952 
z
" style="fill:#1f77b4;"/>
   </g>
   <g id="patch_44">
    <path clip-path="url(#p9cb77599a8)" d="M 638.063513 945 
L 643.048411 945 
L 643.048411 829.952381 
L 638.063513 829.952381 
z
" style="fill:#1f77b4;"/>
   </g>
   <g id="patch_45">
    <path clip-path="url(#p9cb77599a8)" d="M 645.184796 945 
L 650.169694 945 
L 650.169694 801.190476 
L 645.184796 801.190476 
z
" style="fill:#1f77b4;"/>
   </g>
   <g id="patch_46">
    <path clip-path="url(#p9cb77599a8)" d="M 652.306079 945 
L 657.290977 945 
L 657.290977 484.809524 
L 652.306079 484.809524 
z
" style="fill:#1f77b4;"/>
   </g>
   <g id="patch_47">
    <path clip-path="url(#p9cb77599a8)" d="M 659.427362 945 
L 664.41226 945 
L 664.41226 513.571429 
L 659.427362 513.571429 
z
" style="fill:#1f77b4;"/>
   </g>
   <g id="patch_48">
    <path clip-path="url(#p9cb77599a8)" d="M 666.548645 945 
L 671.533543 945 
L 671.533543 599.857143 
L 666.548645 599.857143 
z
" style="fill:#1f77b4;"/>
   </g>
   <g id="patch_49">
    <path clip-path="url(#p9cb77599a8)" d="M 673.669928 945 
L 678.654826 945 
L 678.654826 714.904762 
L 673.669928 714.904762 
z
" style="fill:#1f77b4;"/>
   </g>
   <g id="patch_50">
    <path clip-path="url(#p9cb77599a8)" d="M 680.791211 945 
L 685.776109 945 
L 685.776109 657.380952 
L 680.791211 657.380952 
z
" style="fill:#1f77b4;"/>
   </g>
   <g id="patch_51">
    <path clip-path="url(#p9cb77599a8)" d="M 687.912494 945 
L 692.897392 945 
L 692.897392 283.47619 
L 687.912494 283.47619 
z
" style="fill:#1f77b4;"/>
   </g>
   <g id="patch_52">
    <path clip-path="url(#p9cb77599a8)" d="M 695.033777 945 
L 700.018675 945 
L 700.018675 283.47619 
L 695.033777 283.47619 
z
" style="fill:#1f77b4;"/>
   </g>
   <g id="patch_53">
    <path clip-path="url(#p9cb77599a8)" d="M 702.15506 945 
L 707.139958 945 
L 707.139958 599.857143 
L 702.15506 599.857143 
z
" style="fill:#1f77b4;"/>
   </g>
   <g id="patch_54">
    <path clip-path="url(#p9cb77599a8)" d="M 709.276343 945 
L 714.261241 945 
L 714.261241 427.285714 
L 709.276343 427.285714 
z
" style="fill:#1f77b4;"/>
   </g>
   <g id="patch_55">
    <path clip-path="url(#p9cb77599a8)" d="M 716.397626 945 
L 721.382524 945 
L 721.382524 312.238095 
L 716.397626 312.238095 
z
" style="fill:#1f77b4;"/>
   </g>
   <g id="patch_56">
    <path clip-path="url(#p9cb77599a8)" d="M 723.518909 945 
L 728.503807 945 
L 728.503807 628.619048 
L 723.518909 628.619048 
z
" style="fill:#1f77b4;"/>
   </g>
   <g id="patch_57">
    <path clip-path="url(#p9cb77599a8)" d="M 730.640192 945 
L 735.62509 945 
L 735.62509 225.952381 
L 730.640192 225.952381 
z
" style="fill:#1f77b4;"/>
   </g>
   <g id="patch_58">
    <path clip-path="url(#p9cb77599a8)" d="M 737.761475 945 
L 742.746373 945 
L 742.746373 427.285714 
L 737.761475 427.285714 
z
" style="fill:#1f77b4;"/>
   </g>
   <g id="patch_59">
    <path clip-path="url(#p9cb77599a8)" d="M 744.882758 945 
L 749.867656 945 
L 749.867656 341 
L 744.882758 341 
z
" style="fill:#1f77b4;"/>
   </g>
   <g id="patch_60">
    <path clip-path="url(#p9cb77599a8)" d="M 752.004041 945 
L 756.988939 945 
L 756.988939 484.809524 
L 752.004041 484.809524 
z
" style="fill:#1f77b4;"/>
   </g>
   <g id="patch_61">
    <path clip-path="url(#p9cb77599a8)" d="M 759.125324 945 
L 764.110222 945 
L 764.110222 341 
L 759.125324 341 
z
" style="fill:#1f77b4;"/>
   </g>
   <g id="patch_62">
    <path clip-path="url(#p9cb77599a8)" d="M 766.246607 945 
L 771.231506 945 
L 771.231506 628.619048 
L 766.246607 628.619048 
z
" style="fill:#1f77b4;"/>
   </g>
   <g id="patch_63">
    <path clip-path="url(#p9cb77599a8)" d="M 773.36789 945 
L 778.352789 945 
L 778.352789 571.095238 
L 773.36789 571.095238 
z
" style="fill:#1f77b4;"/>
   </g>
   <g id="patch_64">
    <path clip-path="url(#p9cb77599a8)" d="M 780.489173 945 
L 785.474072 945 
L 785.474072 599.857143 
L 780.489173 599.857143 
z
" style="fill:#1f77b4;"/>
   </g>
   <g id="patch_65">
    <path clip-path="url(#p9cb77599a8)" d="M 787.610456 945 
L 792.595355 945 
L 792.595355 484.809524 
L 787.610456 484.809524 
z
" style="fill:#1f77b4;"/>
   </g>
   <g id="patch_66">
    <path clip-path="url(#p9cb77599a8)" d="M 794.731739 945 
L 799.716638 945 
L 799.716638 254.714286 
L 794.731739 254.714286 
z
" style="fill:#1f77b4;"/>
   </g>
   <g id="patch_67">
    <path clip-path="url(#p9cb77599a8)" d="M 801.853023 945 
L 806.837921 945 
L 806.837921 168.428571 
L 801.853023 168.428571 
z
" style="fill:#1f77b4;"/>
   </g>
   <g id="patch_68">
    <path clip-path="url(#p9cb77599a8)" d="M 808.974306 945 
L 813.959204 945 
L 813.959204 484.809524 
L 808.974306 484.809524 
z
" style="fill:#1f77b4;"/>
   </g>
   <g id="patch_69">
    <path clip-path="url(#p9cb77599a8)" d="M 816.095589 945 
L 821.080487 945 
L 821.080487 542.333333 
L 816.095589 542.333333 
z
" style="fill:#1f77b4;"/>
   </g>
   <g id="patch_70">
    <path clip-path="url(#p9cb77599a8)" d="M 823.216872 945 
L 828.20177 945 
L 828.20177 484.809524 
L 823.216872 484.809524 
z
" style="fill:#1f77b4;"/>
   </g>
   <g id="patch_71">
    <path clip-path="url(#p9cb77599a8)" d="M 830.338155 945 
L 835.323053 945 
L 835.323053 398.52381 
L 830.338155 398.52381 
z
" style="fill:#1f77b4;"/>
   </g>
   <g id="patch_72">
    <path clip-path="url(#p9cb77599a8)" d="M 837.459438 945 
L 842.444336 945 
L 842.444336 542.333333 
L 837.459438 542.333333 
z
" style="fill:#1f77b4;"/>
   </g>
   <g id="patch_73">
    <path clip-path="url(#p9cb77599a8)" d="M 844.580721 945 
L 849.565619 945 
L 849.565619 398.52381 
L 844.580721 398.52381 
z
" style="fill:#1f77b4;"/>
   </g>
   <g id="patch_74">
    <path clip-path="url(#p9cb77599a8)" d="M 851.702004 945 
L 856.686902 945 
L 856.686902 657.380952 
L 851.702004 657.380952 
z
" style="fill:#1f77b4;"/>
   </g>
   <g id="patch_75">
    <path clip-path="url(#p9cb77599a8)" d="M 858.823287 945 
L 863.808185 945 
L 863.808185 398.52381 
L 858.823287 398.52381 
z
" style="fill:#1f77b4;"/>
   </g>
   <g id="patch_76">
    <path clip-path="url(#p9cb77599a8)" d="M 865.94457 945 
L 870.929468 945 
L 870.929468 456.047619 
L 865.94457 456.047619 
z
" style="fill:#1f77b4;"/>
   </g>
   <g id="patch_77">
    <path clip-path="url(#p9cb77599a8)" d="M 873.065853 945 
L 878.050751 945 
L 878.050751 312.238095 
L 873.065853 312.238095 
z
" style="fill:#1f77b4;"/>
   </g>
   <g id="patch_78">
    <path clip-path="url(#p9cb77599a8)" d="M 880.187136 945 
L 885.172034 945 
L 885.172034 484.809524 
L 880.187136 484.809524 
z
" style="fill:#1f77b4;"/>
   </g>
   <g id="patch_79">
    <path clip-path="url(#p9cb77599a8)" d="M 887.308419 945 
L 892.293317 945 
L 892.293317 312.238095 
L 887.308419 312.238095 
z
" style="fill:#1f77b4;"/>
   </g>
   <g id="patch_80">
    <path clip-path="url(#p9cb77599a8)" d="M 894.429702 945 
L 899.4146 945 
L 899.4146 513.571429 
L 894.429702 513.571429 
z
" style="fill:#1f77b4;"/>
   </g>
   <g id="patch_81">
    <path clip-path="url(#p9cb77599a8)" d="M 901.550985 945 
L 906.535883 945 
L 906.535883 542.333333 
L 901.550985 542.333333 
z
" style="fill:#1f77b4;"/>
   </g>
   <g id="patch_82">
    <path clip-path="url(#p9cb77599a8)" d="M 908.672268 945 
L 913.657166 945 
L 913.657166 369.761905 
L 908.672268 369.761905 
z
" style="fill:#1f77b4;"/>
   </g>
   <g id="patch_83">
    <path clip-path="url(#p9cb77599a8)" d="M 915.793551 945 
L 920.778449 945 
L 920.778449 484.809524 
L 915.793551 484.809524 
z
" style="fill:#1f77b4;"/>
   </g>
   <g id="patch_84">
    <path clip-path="url(#p9cb77599a8)" d="M 922.914834 945 
L 927.899732 945 
L 927.899732 513.571429 
L 922.914834 513.571429 
z
" style="fill:#1f77b4;"/>
   </g>
   <g id="patch_85">
    <path clip-path="url(#p9cb77599a8)" d="M 930.036117 945 
L 935.021015 945 
L 935.021015 542.333333 
L 930.036117 542.333333 
z
" style="fill:#1f77b4;"/>
   </g>
   <g id="patch_86">
    <path clip-path="url(#p9cb77599a8)" d="M 937.1574 945 
L 942.142298 945 
L 942.142298 398.52381 
L 937.1574 398.52381 
z
" style="fill:#1f77b4;"/>
   </g>
   <g id="patch_87">
    <path clip-path="url(#p9cb77599a8)" d="M 944.278683 945 
L 949.263581 945 
L 949.263581 312.238095 
L 944.278683 312.238095 
z
" style="fill:#1f77b4;"/>
   </g>
   <g id="patch_88">
    <path clip-path="url(#p9cb77599a8)" d="M 951.399966 945 
L 956.384864 945 
L 956.384864 484.809524 
L 951.399966 484.809524 
z
" style="fill:#1f77b4;"/>
   </g>
   <g id="patch_89">
    <path clip-path="url(#p9cb77599a8)" d="M 958.521249 945 
L 963.506147 945 
L 963.506147 686.142857 
L 958.521249 686.142857 
z
" style="fill:#1f77b4;"/>
   </g>
   <g id="patch_90">
    <path clip-path="url(#p9cb77599a8)" d="M 965.642532 945 
L 970.62743 945 
L 970.62743 686.142857 
L 965.642532 686.142857 
z
" style="fill:#1f77b4;"/>
   </g>
   <g id="patch_91">
    <path clip-path="url(#p9cb77599a8)" d="M 972.763815 945 
L 977.748713 945 
L 977.748713 916.238095 
L 972.763815 916.238095 
z
" style="fill:#1f77b4;"/>
   </g>
   <g id="patch_92">
    <path clip-path="url(#p9cb77599a8)" d="M 979.885098 945 
L 984.869996 945 
L 984.869996 686.142857 
L 979.885098 686.142857 
z
" style="fill:#1f77b4;"/>
   </g>
   <g id="patch_93">
    <path clip-path="url(#p9cb77599a8)" d="M 987.006381 945 
L 991.991279 945 
L 991.991279 657.380952 
L 987.006381 657.380952 
z
" style="fill:#1f77b4;"/>
   </g>
   <g id="patch_94">
    <path clip-path="url(#p9cb77599a8)" d="M 994.127664 945 
L 999.112562 945 
L 999.112562 599.857143 
L 994.127664 599.857143 
z
" style="fill:#1f77b4;"/>
   </g>
   <g id="patch_95">
    <path clip-path="url(#p9cb77599a8)" d="M 1001.248947 945 
L 1006.233845 945 
L 1006.233845 686.142857 
L 1001.248947 686.142857 
z
" style="fill:#1f77b4;"/>
   </g>
   <g id="patch_96">
    <path clip-path="url(#p9cb77599a8)" d="M 1008.37023 945 
L 1013.355128 945 
L 1013.355128 657.380952 
L 1008.37023 657.380952 
z
" style="fill:#1f77b4;"/>
   </g>
   <g id="patch_97">
    <path clip-path="url(#p9cb77599a8)" d="M 1015.491513 945 
L 1020.476411 945 
L 1020.476411 542.333333 
L 1015.491513 542.333333 
z
" style="fill:#1f77b4;"/>
   </g>
   <g id="patch_98">
    <path clip-path="url(#p9cb77599a8)" d="M 1022.612796 945 
L 1027.597694 945 
L 1027.597694 657.380952 
L 1022.612796 657.380952 
z
" style="fill:#1f77b4;"/>
   </g>
   <g id="patch_99">
    <path clip-path="url(#p9cb77599a8)" d="M 1029.734079 945 
L 1034.718977 945 
L 1034.718977 571.095238 
L 1029.734079 571.095238 
z
" style="fill:#1f77b4;"/>
   </g>
   <g id="patch_100">
    <path clip-path="url(#p9cb77599a8)" d="M 1036.855362 945 
L 1041.84026 945 
L 1041.84026 714.904762 
L 1036.855362 714.904762 
z
" style="fill:#1f77b4;"/>
   </g>
   <g id="patch_101">
    <path clip-path="url(#p9cb77599a8)" d="M 1043.976645 945 
L 1048.961543 945 
L 1048.961543 599.857143 
L 1043.976645 599.857143 
z
" style="fill:#1f77b4;"/>
   </g>
   <g id="patch_102">
    <path clip-path="url(#p9cb77599a8)" d="M 1051.097928 945 
L 1056.082826 945 
L 1056.082826 686.142857 
L 1051.097928 686.142857 
z
" style="fill:#1f77b4;"/>
   </g>
   <g id="patch_103">
    <path clip-path="url(#p9cb77599a8)" d="M 1058.219211 945 
L 1063.204109 945 
L 1063.204109 542.333333 
L 1058.219211 542.333333 
z
" style="fill:#1f77b4;"/>
   </g>
   <g id="patch_104">
    <path clip-path="url(#p9cb77599a8)" d="M 1065.340494 945 
L 1070.325392 945 
L 1070.325392 772.428571 
L 1065.340494 772.428571 
z
" style="fill:#1f77b4;"/>
   </g>
   <g id="patch_105">
    <path clip-path="url(#p9cb77599a8)" d="M 1072.461777 945 
L 1077.446675 945 
L 1077.446675 571.095238 
L 1072.461777 571.095238 
z
" style="fill:#1f77b4;"/>
   </g>
   <g id="patch_106">
    <path clip-path="url(#p9cb77599a8)" d="M 1079.58306 945 
L 1084.567958 945 
L 1084.567958 801.190476 
L 1079.58306 801.190476 
z
" style="fill:#1f77b4;"/>
   </g>
   <g id="patch_107">
    <path clip-path="url(#p9cb77599a8)" d="M 1086.704343 945 
L 1091.689242 945 
L 1091.689242 858.714286 
L 1086.704343 858.714286 
z
" style="fill:#1f77b4;"/>
   </g>
   <g id="patch_108">
    <path clip-path="url(#p9cb77599a8)" d="M 1093.825626 945 
L 1098.810525 945 
L 1098.810525 628.619048 
L 1093.825626 628.619048 
z
" style="fill:#1f77b4;"/>
   </g>
   <g id="patch_109">
    <path clip-path="url(#p9cb77599a8)" d="M 1100.946909 945 
L 1105.931808 945 
L 1105.931808 599.857143 
L 1100.946909 599.857143 
z
" style="fill:#1f77b4;"/>
   </g>
   <g id="patch_110">
    <path clip-path="url(#p9cb77599a8)" d="M 1108.068192 945 
L 1113.053091 945 
L 1113.053091 714.904762 
L 1108.068192 714.904762 
z
" style="fill:#1f77b4;"/>
   </g>
   <g id="patch_111">
    <path clip-path="url(#p9cb77599a8)" d="M 1115.189475 945 
L 1120.174374 945 
L 1120.174374 628.619048 
L 1115.189475 628.619048 
z
" style="fill:#1f77b4;"/>
   </g>
   <g id="patch_112">
    <path clip-path="url(#p9cb77599a8)" d="M 1122.310758 945 
L 1127.295657 945 
L 1127.295657 743.666667 
L 1122.310758 743.666667 
z
" style="fill:#1f77b4;"/>
   </g>
   <g id="patch_113">
    <path clip-path="url(#p9cb77599a8)" d="M 1129.432042 945 
L 1134.41694 945 
L 1134.41694 628.619048 
L 1129.432042 628.619048 
z
" style="fill:#1f77b4;"/>
   </g>
   <g id="patch_114">
    <path clip-path="url(#p9cb77599a8)" d="M 1136.553325 945 
L 1141.538223 945 
L 1141.538223 657.380952 
L 1136.553325 657.380952 
z
" style="fill:#1f77b4;"/>
   </g>
   <g id="patch_115">
    <path clip-path="url(#p9cb77599a8)" d="M 1143.674608 945 
L 1148.659506 945 
L 1148.659506 686.142857 
L 1143.674608 686.142857 
z
" style="fill:#1f77b4;"/>
   </g>
   <g id="patch_116">
    <path clip-path="url(#p9cb77599a8)" d="M 1150.795891 945 
L 1155.780789 945 
L 1155.780789 657.380952 
L 1150.795891 657.380952 
z
" style="fill:#1f77b4;"/>
   </g>
   <g id="patch_117">
    <path clip-path="url(#p9cb77599a8)" d="M 1157.917174 945 
L 1162.902072 945 
L 1162.902072 743.666667 
L 1157.917174 743.666667 
z
" style="fill:#1f77b4;"/>
   </g>
   <g id="patch_118">
    <path clip-path="url(#p9cb77599a8)" d="M 1165.038457 945 
L 1170.023355 945 
L 1170.023355 772.428571 
L 1165.038457 772.428571 
z
" style="fill:#1f77b4;"/>
   </g>
   <g id="patch_119">
    <path clip-path="url(#p9cb77599a8)" d="M 1172.15974 945 
L 1177.144638 945 
L 1177.144638 829.952381 
L 1172.15974 829.952381 
z
" style="fill:#1f77b4;"/>
   </g>
   <g id="patch_120">
    <path clip-path="url(#p9cb77599a8)" d="M 1179.281023 945 
L 1184.265921 945 
L 1184.265921 801.190476 
L 1179.281023 801.190476 
z
" style="fill:#1f77b4;"/>
   </g>
   <g id="patch_121">
    <path clip-path="url(#p9cb77599a8)" d="M 1186.402306 945 
L 1191.387204 945 
L 1191.387204 887.47619 
L 1186.402306 887.47619 
z
" style="fill:#1f77b4;"/>
   </g>
   <g id="patch_122">
    <path clip-path="url(#p9cb77599a8)" d="M 1193.523589 945 
L 1198.508487 945 
L 1198.508487 772.428571 
L 1193.523589 772.428571 
z
" style="fill:#1f77b4;"/>
   </g>
   <g id="patch_123">
    <path clip-path="url(#p9cb77599a8)" d="M 1200.644872 945 
L 1205.62977 945 
L 1205.62977 801.190476 
L 1200.644872 801.190476 
z
" style="fill:#1f77b4;"/>
   </g>
   <g id="patch_124">
    <path clip-path="url(#p9cb77599a8)" d="M 1207.766155 945 
L 1212.751053 945 
L 1212.751053 743.666667 
L 1207.766155 743.666667 
z
" style="fill:#1f77b4;"/>
   </g>
   <g id="patch_125">
    <path clip-path="url(#p9cb77599a8)" d="M 1214.887438 945 
L 1219.872336 945 
L 1219.872336 686.142857 
L 1214.887438 686.142857 
z
" style="fill:#1f77b4;"/>
   </g>
   <g id="patch_126">
    <path clip-path="url(#p9cb77599a8)" d="M 1222.008721 945 
L 1226.993619 945 
L 1226.993619 743.666667 
L 1222.008721 743.666667 
z
" style="fill:#1f77b4;"/>
   </g>
   <g id="patch_127">
    <path clip-path="url(#p9cb77599a8)" d="M 1229.130004 945 
L 1234.114902 945 
L 1234.114902 858.714286 
L 1229.130004 858.714286 
z
" style="fill:#1f77b4;"/>
   </g>
   <g id="patch_128">
    <path clip-path="url(#p9cb77599a8)" d="M 1236.251287 945 
L 1241.236185 945 
L 1241.236185 829.952381 
L 1236.251287 829.952381 
z
" style="fill:#1f77b4;"/>
   </g>
   <g id="patch_129">
    <path clip-path="url(#p9cb77599a8)" d="M 1243.37257 945 
L 1248.357468 945 
L 1248.357468 714.904762 
L 1243.37257 714.904762 
z
" style="fill:#1f77b4;"/>
   </g>
   <g id="patch_130">
    <path clip-path="url(#p9cb77599a8)" d="M 1250.493853 945 
L 1255.478751 945 
L 1255.478751 887.47619 
L 1250.493853 887.47619 
z
" style="fill:#1f77b4;"/>
   </g>
   <g id="patch_131">
    <path clip-path="url(#p9cb77599a8)" d="M 1257.615136 945 
L 1262.600034 945 
L 1262.600034 714.904762 
L 1257.615136 714.904762 
z
" style="fill:#1f77b4;"/>
   </g>
   <g id="patch_132">
    <path clip-path="url(#p9cb77599a8)" d="M 1264.736419 945 
L 1269.721317 945 
L 1269.721317 887.47619 
L 1264.736419 887.47619 
z
" style="fill:#1f77b4;"/>
   </g>
   <g id="patch_133">
    <path clip-path="url(#p9cb77599a8)" d="M 1271.857702 945 
L 1276.8426 945 
L 1276.8426 916.238095 
L 1271.857702 916.238095 
z
" style="fill:#1f77b4;"/>
   </g>
   <g id="patch_134">
    <path clip-path="url(#p9cb77599a8)" d="M 1278.978985 945 
L 1283.963883 945 
L 1283.963883 743.666667 
L 1278.978985 743.666667 
z
" style="fill:#1f77b4;"/>
   </g>
   <g id="patch_135">
    <path clip-path="url(#p9cb77599a8)" d="M 1286.100268 945 
L 1291.085166 945 
L 1291.085166 743.666667 
L 1286.100268 743.666667 
z
" style="fill:#1f77b4;"/>
   </g>
   <g id="patch_136">
    <path clip-path="url(#p9cb77599a8)" d="M 1293.221551 945 
L 1298.206449 945 
L 1298.206449 858.714286 
L 1293.221551 858.714286 
z
" style="fill:#1f77b4;"/>
   </g>
   <g id="patch_137">
    <path clip-path="url(#p9cb77599a8)" d="M 1300.342834 945 
L 1305.327732 945 
L 1305.327732 858.714286 
L 1300.342834 858.714286 
z
" style="fill:#1f77b4;"/>
   </g>
   <g id="patch_138">
    <path clip-path="url(#p9cb77599a8)" d="M 1307.464117 945 
L 1312.449015 945 
L 1312.449015 858.714286 
L 1307.464117 858.714286 
z
" style="fill:#1f77b4;"/>
   </g>
   <g id="patch_139">
    <path clip-path="url(#p9cb77599a8)" d="M 1314.5854 945 
L 1319.570298 945 
L 1319.570298 772.428571 
L 1314.5854 772.428571 
z
" style="fill:#1f77b4;"/>
   </g>
   <g id="patch_140">
    <path clip-path="url(#p9cb77599a8)" d="M 1321.706683 945 
L 1326.691581 945 
L 1326.691581 829.952381 
L 1321.706683 829.952381 
z
" style="fill:#1f77b4;"/>
   </g>
   <g id="patch_141">
    <path clip-path="url(#p9cb77599a8)" d="M 1328.827966 945 
L 1333.812864 945 
L 1333.812864 801.190476 
L 1328.827966 801.190476 
z
" style="fill:#1f77b4;"/>
   </g>
   <g id="patch_142">
    <path clip-path="url(#p9cb77599a8)" d="M 1335.949249 945 
L 1340.934147 945 
L 1340.934147 858.714286 
L 1335.949249 858.714286 
z
" style="fill:#1f77b4;"/>
   </g>
   <g id="patch_143">
    <path clip-path="url(#p9cb77599a8)" d="M 1343.070532 945 
L 1348.05543 945 
L 1348.05543 887.47619 
L 1343.070532 887.47619 
z
" style="fill:#1f77b4;"/>
   </g>
   <g id="patch_144">
    <path clip-path="url(#p9cb77599a8)" d="M 1350.191815 945 
L 1355.176713 945 
L 1355.176713 945 
L 1350.191815 945 
z
" style="fill:#1f77b4;"/>
   </g>
   <g id="patch_145">
    <path clip-path="url(#p9cb77599a8)" d="M 1357.313098 945 
L 1362.297996 945 
L 1362.297996 686.142857 
L 1357.313098 686.142857 
z
" style="fill:#1f77b4;"/>
   </g>
   <g id="patch_146">
    <path clip-path="url(#p9cb77599a8)" d="M 1364.434381 945 
L 1369.419279 945 
L 1369.419279 829.952381 
L 1364.434381 829.952381 
z
" style="fill:#1f77b4;"/>
   </g>
   <g id="patch_147">
    <path clip-path="url(#p9cb77599a8)" d="M 1371.555664 945 
L 1376.540562 945 
L 1376.540562 916.238095 
L 1371.555664 916.238095 
z
" style="fill:#1f77b4;"/>
   </g>
   <g id="patch_148">
    <path clip-path="url(#p9cb77599a8)" d="M 1378.676947 945 
L 1383.661845 945 
L 1383.661845 772.428571 
L 1378.676947 772.428571 
z
" style="fill:#1f77b4;"/>
   </g>
   <g id="patch_149">
    <path clip-path="url(#p9cb77599a8)" d="M 1385.79823 945 
L 1390.783128 945 
L 1390.783128 772.428571 
L 1385.79823 772.428571 
z
" style="fill:#1f77b4;"/>
   </g>
   <g id="patch_150">
    <path clip-path="url(#p9cb77599a8)" d="M 1392.919513 945 
L 1397.904411 945 
L 1397.904411 916.238095 
L 1392.919513 916.238095 
z
" style="fill:#1f77b4;"/>
   </g>
   <g id="patch_151">
    <path clip-path="url(#p9cb77599a8)" d="M 1400.040796 945 
L 1405.025694 945 
L 1405.025694 858.714286 
L 1400.040796 858.714286 
z
" style="fill:#1f77b4;"/>
   </g>
   <g id="patch_152">
    <path clip-path="url(#p9cb77599a8)" d="M 1407.162079 945 
L 1412.146977 945 
L 1412.146977 829.952381 
L 1407.162079 829.952381 
z
" style="fill:#1f77b4;"/>
   </g>
   <g id="patch_153">
    <path clip-path="url(#p9cb77599a8)" d="M 1414.283362 945 
L 1419.268261 945 
L 1419.268261 887.47619 
L 1414.283362 887.47619 
z
" style="fill:#1f77b4;"/>
   </g>
   <g id="patch_154">
    <path clip-path="url(#p9cb77599a8)" d="M 1421.404645 945 
L 1426.389544 945 
L 1426.389544 714.904762 
L 1421.404645 714.904762 
z
" style="fill:#1f77b4;"/>
   </g>
   <g id="patch_155">
    <path clip-path="url(#p9cb77599a8)" d="M 1428.525928 945 
L 1433.510827 945 
L 1433.510827 945 
L 1428.525928 945 
z
" style="fill:#1f77b4;"/>
   </g>
   <g id="patch_156">
    <path clip-path="url(#p9cb77599a8)" d="M 1435.647211 945 
L 1440.63211 945 
L 1440.63211 945 
L 1435.647211 945 
z
" style="fill:#1f77b4;"/>
   </g>
   <g id="patch_157">
    <path clip-path="url(#p9cb77599a8)" d="M 1442.768494 945 
L 1447.753393 945 
L 1447.753393 887.47619 
L 1442.768494 887.47619 
z
" style="fill:#1f77b4;"/>
   </g>
   <g id="patch_158">
    <path clip-path="url(#p9cb77599a8)" d="M 1449.889778 945 
L 1454.874676 945 
L 1454.874676 945 
L 1449.889778 945 
z
" style="fill:#1f77b4;"/>
   </g>
   <g id="patch_159">
    <path clip-path="url(#p9cb77599a8)" d="M 1457.011061 945 
L 1461.995959 945 
L 1461.995959 945 
L 1457.011061 945 
z
" style="fill:#1f77b4;"/>
   </g>
   <g id="patch_160">
    <path clip-path="url(#p9cb77599a8)" d="M 1464.132344 945 
L 1469.117242 945 
L 1469.117242 858.714286 
L 1464.132344 858.714286 
z
" style="fill:#1f77b4;"/>
   </g>
   <g id="patch_161">
    <path clip-path="url(#p9cb77599a8)" d="M 1471.253627 945 
L 1476.238525 945 
L 1476.238525 858.714286 
L 1471.253627 858.714286 
z
" style="fill:#1f77b4;"/>
   </g>
   <g id="patch_162">
    <path clip-path="url(#p9cb77599a8)" d="M 1478.37491 945 
L 1483.359808 945 
L 1483.359808 945 
L 1478.37491 945 
z
" style="fill:#1f77b4;"/>
   </g>
   <g id="patch_163">
    <path clip-path="url(#p9cb77599a8)" d="M 1485.496193 945 
L 1490.481091 945 
L 1490.481091 858.714286 
L 1485.496193 858.714286 
z
" style="fill:#1f77b4;"/>
   </g>
   <g id="patch_164">
    <path clip-path="url(#p9cb77599a8)" d="M 1492.617476 945 
L 1497.602374 945 
L 1497.602374 916.238095 
L 1492.617476 916.238095 
z
" style="fill:#1f77b4;"/>
   </g>
   <g id="patch_165">
    <path clip-path="url(#p9cb77599a8)" d="M 1499.738759 945 
L 1504.723657 945 
L 1504.723657 945 
L 1499.738759 945 
z
" style="fill:#1f77b4;"/>
   </g>
   <g id="patch_166">
    <path clip-path="url(#p9cb77599a8)" d="M 1506.860042 945 
L 1511.84494 945 
L 1511.84494 945 
L 1506.860042 945 
z
" style="fill:#1f77b4;"/>
   </g>
   <g id="patch_167">
    <path clip-path="url(#p9cb77599a8)" d="M 1513.981325 945 
L 1518.966223 945 
L 1518.966223 945 
L 1513.981325 945 
z
" style="fill:#1f77b4;"/>
   </g>
   <g id="patch_168">
    <path clip-path="url(#p9cb77599a8)" d="M 1521.102608 945 
L 1526.087506 945 
L 1526.087506 945 
L 1521.102608 945 
z
" style="fill:#1f77b4;"/>
   </g>
   <g id="patch_169">
    <path clip-path="url(#p9cb77599a8)" d="M 1528.223891 945 
L 1533.208789 945 
L 1533.208789 945 
L 1528.223891 945 
z
" style="fill:#1f77b4;"/>
   </g>
   <g id="patch_170">
    <path clip-path="url(#p9cb77599a8)" d="M 1535.345174 945 
L 1540.330072 945 
L 1540.330072 945 
L 1535.345174 945 
z
" style="fill:#1f77b4;"/>
   </g>
   <g id="patch_171">
    <path clip-path="url(#p9cb77599a8)" d="M 1542.466457 945 
L 1547.451355 945 
L 1547.451355 887.47619 
L 1542.466457 887.47619 
z
" style="fill:#1f77b4;"/>
   </g>
   <g id="patch_172">
    <path clip-path="url(#p9cb77599a8)" d="M 1549.58774 945 
L 1554.572638 945 
L 1554.572638 945 
L 1549.58774 945 
z
" style="fill:#1f77b4;"/>
   </g>
   <g id="patch_173">
    <path clip-path="url(#p9cb77599a8)" d="M 1556.709023 945 
L 1561.693921 945 
L 1561.693921 887.47619 
L 1556.709023 887.47619 
z
" style="fill:#1f77b4;"/>
   </g>
   <g id="patch_174">
    <path clip-path="url(#p9cb77599a8)" d="M 1563.830306 945 
L 1568.815204 945 
L 1568.815204 945 
L 1563.830306 945 
z
" style="fill:#1f77b4;"/>
   </g>
   <g id="patch_175">
    <path clip-path="url(#p9cb77599a8)" d="M 1570.951589 945 
L 1575.936487 945 
L 1575.936487 858.714286 
L 1570.951589 858.714286 
z
" style="fill:#1f77b4;"/>
   </g>
   <g id="patch_176">
    <path clip-path="url(#p9cb77599a8)" d="M 1578.072872 945 
L 1583.05777 945 
L 1583.05777 945 
L 1578.072872 945 
z
" style="fill:#1f77b4;"/>
   </g>
   <g id="patch_177">
    <path clip-path="url(#p9cb77599a8)" d="M 1585.194155 945 
L 1590.179053 945 
L 1590.179053 945 
L 1585.194155 945 
z
" style="fill:#1f77b4;"/>
   </g>
   <g id="patch_178">
    <path clip-path="url(#p9cb77599a8)" d="M 1592.315438 945 
L 1597.300336 945 
L 1597.300336 945 
L 1592.315438 945 
z
" style="fill:#1f77b4;"/>
   </g>
   <g id="patch_179">
    <path clip-path="url(#p9cb77599a8)" d="M 1599.436721 945 
L 1604.421619 945 
L 1604.421619 945 
L 1599.436721 945 
z
" style="fill:#1f77b4;"/>
   </g>
   <g id="patch_180">
    <path clip-path="url(#p9cb77599a8)" d="M 1606.558004 945 
L 1611.542902 945 
L 1611.542902 916.238095 
L 1606.558004 916.238095 
z
" style="fill:#1f77b4;"/>
   </g>
   <g id="patch_181">
    <path clip-path="url(#p9cb77599a8)" d="M 1613.679287 945 
L 1618.664185 945 
L 1618.664185 945 
L 1613.679287 945 
z
" style="fill:#1f77b4;"/>
   </g>
   <g id="patch_182">
    <path clip-path="url(#p9cb77599a8)" d="M 1620.80057 945 
L 1625.785468 945 
L 1625.785468 945 
L 1620.80057 945 
z
" style="fill:#1f77b4;"/>
   </g>
   <g id="patch_183">
    <path clip-path="url(#p9cb77599a8)" d="M 1627.921853 945 
L 1632.906751 945 
L 1632.906751 945 
L 1627.921853 945 
z
" style="fill:#1f77b4;"/>
   </g>
   <g id="patch_184">
    <path clip-path="url(#p9cb77599a8)" d="M 1635.043136 945 
L 1640.028034 945 
L 1640.028034 945 
L 1635.043136 945 
z
" style="fill:#1f77b4;"/>
   </g>
   <g id="patch_185">
    <path clip-path="url(#p9cb77599a8)" d="M 1642.164419 945 
L 1647.149317 945 
L 1647.149317 945 
L 1642.164419 945 
z
" style="fill:#1f77b4;"/>
   </g>
   <g id="patch_186">
    <path clip-path="url(#p9cb77599a8)" d="M 1649.285702 945 
L 1654.2706 945 
L 1654.2706 945 
L 1649.285702 945 
z
" style="fill:#1f77b4;"/>
   </g>
   <g id="patch_187">
    <path clip-path="url(#p9cb77599a8)" d="M 1656.406985 945 
L 1661.391883 945 
L 1661.391883 916.238095 
L 1656.406985 916.238095 
z
" style="fill:#1f77b4;"/>
   </g>
   <g id="patch_188">
    <path clip-path="url(#p9cb77599a8)" d="M 1663.528268 945 
L 1668.513166 945 
L 1668.513166 945 
L 1663.528268 945 
z
" style="fill:#1f77b4;"/>
   </g>
   <g id="patch_189">
    <path clip-path="url(#p9cb77599a8)" d="M 1670.649551 945 
L 1675.634449 945 
L 1675.634449 945 
L 1670.649551 945 
z
" style="fill:#1f77b4;"/>
   </g>
   <g id="patch_190">
    <path clip-path="url(#p9cb77599a8)" d="M 1677.770834 945 
L 1682.755732 945 
L 1682.755732 945 
L 1677.770834 945 
z
" style="fill:#1f77b4;"/>
   </g>
   <g id="patch_191">
    <path clip-path="url(#p9cb77599a8)" d="M 1684.892117 945 
L 1689.877015 945 
L 1689.877015 945 
L 1684.892117 945 
z
" style="fill:#1f77b4;"/>
   </g>
   <g id="patch_192">
    <path clip-path="url(#p9cb77599a8)" d="M 1692.0134 945 
L 1696.998298 945 
L 1696.998298 945 
L 1692.0134 945 
z
" style="fill:#1f77b4;"/>
   </g>
   <g id="patch_193">
    <path clip-path="url(#p9cb77599a8)" d="M 1699.134683 945 
L 1704.119581 945 
L 1704.119581 945 
L 1699.134683 945 
z
" style="fill:#1f77b4;"/>
   </g>
   <g id="patch_194">
    <path clip-path="url(#p9cb77599a8)" d="M 1706.255966 945 
L 1711.240864 945 
L 1711.240864 945 
L 1706.255966 945 
z
" style="fill:#1f77b4;"/>
   </g>
   <g id="patch_195">
    <path clip-path="url(#p9cb77599a8)" d="M 1713.377249 945 
L 1718.362147 945 
L 1718.362147 945 
L 1713.377249 945 
z
" style="fill:#1f77b4;"/>
   </g>
   <g id="patch_196">
    <path clip-path="url(#p9cb77599a8)" d="M 1720.498532 945 
L 1725.48343 945 
L 1725.48343 945 
L 1720.498532 945 
z
" style="fill:#1f77b4;"/>
   </g>
   <g id="patch_197">
    <path clip-path="url(#p9cb77599a8)" d="M 1727.619815 945 
L 1732.604713 945 
L 1732.604713 945 
L 1727.619815 945 
z
" style="fill:#1f77b4;"/>
   </g>
   <g id="patch_198">
    <path clip-path="url(#p9cb77599a8)" d="M 1734.741098 945 
L 1739.725997 945 
L 1739.725997 945 
L 1734.741098 945 
z
" style="fill:#1f77b4;"/>
   </g>
   <g id="patch_199">
    <path clip-path="url(#p9cb77599a8)" d="M 1741.862381 945 
L 1746.84728 945 
L 1746.84728 945 
L 1741.862381 945 
z
" style="fill:#1f77b4;"/>
   </g>
   <g id="patch_200">
    <path clip-path="url(#p9cb77599a8)" d="M 1748.983664 945 
L 1753.968563 945 
L 1753.968563 945 
L 1748.983664 945 
z
" style="fill:#1f77b4;"/>
   </g>
   <g id="patch_201">
    <path clip-path="url(#p9cb77599a8)" d="M 1756.104947 945 
L 1761.089846 945 
L 1761.089846 945 
L 1756.104947 945 
z
" style="fill:#1f77b4;"/>
   </g>
   <g id="patch_202">
    <path clip-path="url(#p9cb77599a8)" d="M 1763.22623 945 
L 1768.211129 945 
L 1768.211129 945 
L 1763.22623 945 
z
" style="fill:#1f77b4;"/>
   </g>
   <g id="patch_203">
    <path clip-path="url(#p9cb77599a8)" d="M 1770.347514 945 
L 1775.332412 945 
L 1775.332412 945 
L 1770.347514 945 
z
" style="fill:#1f77b4;"/>
   </g>
   <g id="patch_204">
    <path clip-path="url(#p9cb77599a8)" d="M 1777.468797 945 
L 1782.453695 945 
L 1782.453695 887.47619 
L 1777.468797 887.47619 
z
" style="fill:#1f77b4;"/>
   </g>
   <g id="patch_205">
    <path clip-path="url(#p9cb77599a8)" d="M 1784.59008 945 
L 1789.574978 945 
L 1789.574978 945 
L 1784.59008 945 
z
" style="fill:#1f77b4;"/>
   </g>
   <g id="patch_206">
    <path clip-path="url(#p9cb77599a8)" d="M 1791.711363 945 
L 1796.696261 945 
L 1796.696261 945 
L 1791.711363 945 
z
" style="fill:#1f77b4;"/>
   </g>
   <g id="patch_207">
    <path clip-path="url(#p9cb77599a8)" d="M 1798.832646 945 
L 1803.817544 945 
L 1803.817544 945 
L 1798.832646 945 
z
" style="fill:#1f77b4;"/>
   </g>
   <g id="patch_208">
    <path clip-path="url(#p9cb77599a8)" d="M 1805.953929 945 
L 1810.938827 945 
L 1810.938827 945 
L 1805.953929 945 
z
" style="fill:#1f77b4;"/>
   </g>
   <g id="patch_209">
    <path clip-path="url(#p9cb77599a8)" d="M 1813.075212 945 
L 1818.06011 945 
L 1818.06011 945 
L 1813.075212 945 
z
" style="fill:#1f77b4;"/>
   </g>
   <g id="patch_210">
    <path clip-path="url(#p9cb77599a8)" d="M 1820.196495 945 
L 1825.181393 945 
L 1825.181393 945 
L 1820.196495 945 
z
" style="fill:#1f77b4;"/>
   </g>
   <g id="patch_211">
    <path clip-path="url(#p9cb77599a8)" d="M 1827.317778 945 
L 1832.302676 945 
L 1832.302676 945 
L 1827.317778 945 
z
" style="fill:#1f77b4;"/>
   </g>
   <g id="patch_212">
    <path clip-path="url(#p9cb77599a8)" d="M 1834.439061 945 
L 1839.423959 945 
L 1839.423959 945 
L 1834.439061 945 
z
" style="fill:#1f77b4;"/>
   </g>
   <g id="patch_213">
    <path clip-path="url(#p9cb77599a8)" d="M 1841.560344 945 
L 1846.545242 945 
L 1846.545242 945 
L 1841.560344 945 
z
" style="fill:#1f77b4;"/>
   </g>
   <g id="patch_214">
    <path clip-path="url(#p9cb77599a8)" d="M 1848.681627 945 
L 1853.666525 945 
L 1853.666525 945 
L 1848.681627 945 
z
" style="fill:#1f77b4;"/>
   </g>
   <g id="patch_215">
    <path clip-path="url(#p9cb77599a8)" d="M 1855.80291 945 
L 1860.787808 945 
L 1860.787808 945 
L 1855.80291 945 
z
" style="fill:#1f77b4;"/>
   </g>
   <g id="patch_216">
    <path clip-path="url(#p9cb77599a8)" d="M 1862.924193 945 
L 1867.909091 945 
L 1867.909091 945 
L 1862.924193 945 
z
" style="fill:#1f77b4;"/>
   </g>
   <g id="matplotlib.axis_1">
    <g id="xtick_1">
     <g id="line2d_1">
      <defs>
       <path d="M 0 0 
L 0 3.5 
" id="m084f2b3aa5" style="stroke:#000000;stroke-width:0.8;"/>
      </defs>
      <g>
       <use style="stroke:#000000;stroke-width:0.8;" x="345.022717" xlink:href="#m084f2b3aa5" y="945"/>
      </g>
     </g>
     <g id="text_1">
      <!-- 65 -->
      <defs>
       <path d="M 33.015625 40.375 
Q 26.375 40.375 22.484375 35.828125 
Q 18.609375 31.296875 18.609375 23.390625 
Q 18.609375 15.53125 22.484375 10.953125 
Q 26.375 6.390625 33.015625 6.390625 
Q 39.65625 6.390625 43.53125 10.953125 
Q 47.40625 15.53125 47.40625 23.390625 
Q 47.40625 31.296875 43.53125 35.828125 
Q 39.65625 40.375 33.015625 40.375 
z
M 52.59375 71.296875 
L 52.59375 62.3125 
Q 48.875 64.0625 45.09375 64.984375 
Q 41.3125 65.921875 37.59375 65.921875 
Q 27.828125 65.921875 22.671875 59.328125 
Q 17.53125 52.734375 16.796875 39.40625 
Q 19.671875 43.65625 24.015625 45.921875 
Q 28.375 48.1875 33.59375 48.1875 
Q 44.578125 48.1875 50.953125 41.515625 
Q 57.328125 34.859375 57.328125 23.390625 
Q 57.328125 12.15625 50.6875 5.359375 
Q 44.046875 -1.421875 33.015625 -1.421875 
Q 20.359375 -1.421875 13.671875 8.265625 
Q 6.984375 17.96875 6.984375 36.375 
Q 6.984375 53.65625 15.1875 63.9375 
Q 23.390625 74.21875 37.203125 74.21875 
Q 40.921875 74.21875 44.703125 73.484375 
Q 48.484375 72.75 52.59375 71.296875 
z
" id="DejaVuSans-54"/>
       <path d="M 10.796875 72.90625 
L 49.515625 72.90625 
L 49.515625 64.59375 
L 19.828125 64.59375 
L 19.828125 46.734375 
Q 21.96875 47.46875 24.109375 47.828125 
Q 26.265625 48.1875 28.421875 48.1875 
Q 40.625 48.1875 47.75 41.5 
Q 54.890625 34.8125 54.890625 23.390625 
Q 54.890625 11.625 47.5625 5.09375 
Q 40.234375 -1.421875 26.90625 -1.421875 
Q 22.3125 -1.421875 17.546875 -0.640625 
Q 12.796875 0.140625 7.71875 1.703125 
L 7.71875 11.625 
Q 12.109375 9.234375 16.796875 8.0625 
Q 21.484375 6.890625 26.703125 6.890625 
Q 35.15625 6.890625 40.078125 11.328125 
Q 45.015625 15.765625 45.015625 23.390625 
Q 45.015625 31 40.078125 35.4375 
Q 35.15625 39.890625 26.703125 39.890625 
Q 22.75 39.890625 18.8125 39.015625 
Q 14.890625 38.140625 10.796875 36.28125 
z
" id="DejaVuSans-53"/>
      </defs>
      <g transform="translate(338.660217 959.598438)scale(0.1 -0.1)">
       <use xlink:href="#DejaVuSans-54"/>
       <use x="63.623047" xlink:href="#DejaVuSans-53"/>
      </g>
     </g>
    </g>
    <g id="xtick_2">
     <g id="line2d_2">
      <g>
       <use style="stroke:#000000;stroke-width:0.8;" x="380.629132" xlink:href="#m084f2b3aa5" y="945"/>
      </g>
     </g>
     <g id="text_2">
      <!-- 70 -->
      <defs>
       <path d="M 8.203125 72.90625 
L 55.078125 72.90625 
L 55.078125 68.703125 
L 28.609375 0 
L 18.3125 0 
L 43.21875 64.59375 
L 8.203125 64.59375 
z
" id="DejaVuSans-55"/>
       <path d="M 31.78125 66.40625 
Q 24.171875 66.40625 20.328125 58.90625 
Q 16.5 51.421875 16.5 36.375 
Q 16.5 21.390625 20.328125 13.890625 
Q 24.171875 6.390625 31.78125 6.390625 
Q 39.453125 6.390625 43.28125 13.890625 
Q 47.125 21.390625 47.125 36.375 
Q 47.125 51.421875 43.28125 58.90625 
Q 39.453125 66.40625 31.78125 66.40625 
z
M 31.78125 74.21875 
Q 44.046875 74.21875 50.515625 64.515625 
Q 56.984375 54.828125 56.984375 36.375 
Q 56.984375 17.96875 50.515625 8.265625 
Q 44.046875 -1.421875 31.78125 -1.421875 
Q 19.53125 -1.421875 13.0625 8.265625 
Q 6.59375 17.96875 6.59375 36.375 
Q 6.59375 54.828125 13.0625 64.515625 
Q 19.53125 74.21875 31.78125 74.21875 
z
" id="DejaVuSans-48"/>
      </defs>
      <g transform="translate(374.266632 959.598438)scale(0.1 -0.1)">
       <use xlink:href="#DejaVuSans-55"/>
       <use x="63.623047" xlink:href="#DejaVuSans-48"/>
      </g>
     </g>
    </g>
    <g id="xtick_3">
     <g id="line2d_3">
      <g>
       <use style="stroke:#000000;stroke-width:0.8;" x="416.235547" xlink:href="#m084f2b3aa5" y="945"/>
      </g>
     </g>
     <g id="text_3">
      <!-- 75 -->
      <g transform="translate(409.873047 959.598438)scale(0.1 -0.1)">
       <use xlink:href="#DejaVuSans-55"/>
       <use x="63.623047" xlink:href="#DejaVuSans-53"/>
      </g>
     </g>
    </g>
    <g id="xtick_4">
     <g id="line2d_4">
      <g>
       <use style="stroke:#000000;stroke-width:0.8;" x="451.841962" xlink:href="#m084f2b3aa5" y="945"/>
      </g>
     </g>
     <g id="text_4">
      <!-- 80 -->
      <defs>
       <path d="M 31.78125 34.625 
Q 24.75 34.625 20.71875 30.859375 
Q 16.703125 27.09375 16.703125 20.515625 
Q 16.703125 13.921875 20.71875 10.15625 
Q 24.75 6.390625 31.78125 6.390625 
Q 38.8125 6.390625 42.859375 10.171875 
Q 46.921875 13.96875 46.921875 20.515625 
Q 46.921875 27.09375 42.890625 30.859375 
Q 38.875 34.625 31.78125 34.625 
z
M 21.921875 38.8125 
Q 15.578125 40.375 12.03125 44.71875 
Q 8.5 49.078125 8.5 55.328125 
Q 8.5 64.0625 14.71875 69.140625 
Q 20.953125 74.21875 31.78125 74.21875 
Q 42.671875 74.21875 48.875 69.140625 
Q 55.078125 64.0625 55.078125 55.328125 
Q 55.078125 49.078125 51.53125 44.71875 
Q 48 40.375 41.703125 38.8125 
Q 48.828125 37.15625 52.796875 32.3125 
Q 56.78125 27.484375 56.78125 20.515625 
Q 56.78125 9.90625 50.3125 4.234375 
Q 43.84375 -1.421875 31.78125 -1.421875 
Q 19.734375 -1.421875 13.25 4.234375 
Q 6.78125 9.90625 6.78125 20.515625 
Q 6.78125 27.484375 10.78125 32.3125 
Q 14.796875 37.15625 21.921875 38.8125 
z
M 18.3125 54.390625 
Q 18.3125 48.734375 21.84375 45.5625 
Q 25.390625 42.390625 31.78125 42.390625 
Q 38.140625 42.390625 41.71875 45.5625 
Q 45.3125 48.734375 45.3125 54.390625 
Q 45.3125 60.0625 41.71875 63.234375 
Q 38.140625 66.40625 31.78125 66.40625 
Q 25.390625 66.40625 21.84375 63.234375 
Q 18.3125 60.0625 18.3125 54.390625 
z
" id="DejaVuSans-56"/>
      </defs>
      <g transform="translate(445.479462 959.598438)scale(0.1 -0.1)">
       <use xlink:href="#DejaVuSans-56"/>
       <use x="63.623047" xlink:href="#DejaVuSans-48"/>
      </g>
     </g>
    </g>
    <g id="xtick_5">
     <g id="line2d_5">
      <g>
       <use style="stroke:#000000;stroke-width:0.8;" x="487.448377" xlink:href="#m084f2b3aa5" y="945"/>
      </g>
     </g>
     <g id="text_5">
      <!-- 85 -->
      <g transform="translate(481.085877 959.598438)scale(0.1 -0.1)">
       <use xlink:href="#DejaVuSans-56"/>
       <use x="63.623047" xlink:href="#DejaVuSans-53"/>
      </g>
     </g>
    </g>
    <g id="xtick_6">
     <g id="line2d_6">
      <g>
       <use style="stroke:#000000;stroke-width:0.8;" x="523.054792" xlink:href="#m084f2b3aa5" y="945"/>
      </g>
     </g>
     <g id="text_6">
      <!-- 90 -->
      <defs>
       <path d="M 10.984375 1.515625 
L 10.984375 10.5 
Q 14.703125 8.734375 18.5 7.8125 
Q 22.3125 6.890625 25.984375 6.890625 
Q 35.75 6.890625 40.890625 13.453125 
Q 46.046875 20.015625 46.78125 33.40625 
Q 43.953125 29.203125 39.59375 26.953125 
Q 35.25 24.703125 29.984375 24.703125 
Q 19.046875 24.703125 12.671875 31.3125 
Q 6.296875 37.9375 6.296875 49.421875 
Q 6.296875 60.640625 12.9375 67.421875 
Q 19.578125 74.21875 30.609375 74.21875 
Q 43.265625 74.21875 49.921875 64.515625 
Q 56.59375 54.828125 56.59375 36.375 
Q 56.59375 19.140625 48.40625 8.859375 
Q 40.234375 -1.421875 26.421875 -1.421875 
Q 22.703125 -1.421875 18.890625 -0.6875 
Q 15.09375 0.046875 10.984375 1.515625 
z
M 30.609375 32.421875 
Q 37.25 32.421875 41.125 36.953125 
Q 45.015625 41.5 45.015625 49.421875 
Q 45.015625 57.28125 41.125 61.84375 
Q 37.25 66.40625 30.609375 66.40625 
Q 23.96875 66.40625 20.09375 61.84375 
Q 16.21875 57.28125 16.21875 49.421875 
Q 16.21875 41.5 20.09375 36.953125 
Q 23.96875 32.421875 30.609375 32.421875 
z
" id="DejaVuSans-57"/>
      </defs>
      <g transform="translate(516.692292 959.598438)scale(0.1 -0.1)">
       <use xlink:href="#DejaVuSans-57"/>
       <use x="63.623047" xlink:href="#DejaVuSans-48"/>
      </g>
     </g>
    </g>
    <g id="xtick_7">
     <g id="line2d_7">
      <g>
       <use style="stroke:#000000;stroke-width:0.8;" x="558.661207" xlink:href="#m084f2b3aa5" y="945"/>
      </g>
     </g>
     <g id="text_7">
      <!-- 95 -->
      <g transform="translate(552.298707 959.598438)scale(0.1 -0.1)">
       <use xlink:href="#DejaVuSans-57"/>
       <use x="63.623047" xlink:href="#DejaVuSans-53"/>
      </g>
     </g>
    </g>
    <g id="xtick_8">
     <g id="line2d_8">
      <g>
       <use style="stroke:#000000;stroke-width:0.8;" x="594.267622" xlink:href="#m084f2b3aa5" y="945"/>
      </g>
     </g>
     <g id="text_8">
      <!-- 100 -->
      <defs>
       <path d="M 12.40625 8.296875 
L 28.515625 8.296875 
L 28.515625 63.921875 
L 10.984375 60.40625 
L 10.984375 69.390625 
L 28.421875 72.90625 
L 38.28125 72.90625 
L 38.28125 8.296875 
L 54.390625 8.296875 
L 54.390625 0 
L 12.40625 0 
z
" id="DejaVuSans-49"/>
      </defs>
      <g transform="translate(584.723872 959.598438)scale(0.1 -0.1)">
       <use xlink:href="#DejaVuSans-49"/>
       <use x="63.623047" xlink:href="#DejaVuSans-48"/>
       <use x="127.246094" xlink:href="#DejaVuSans-48"/>
      </g>
     </g>
    </g>
    <g id="xtick_9">
     <g id="line2d_9">
      <g>
       <use style="stroke:#000000;stroke-width:0.8;" x="629.874038" xlink:href="#m084f2b3aa5" y="945"/>
      </g>
     </g>
     <g id="text_9">
      <!-- 105 -->
      <g transform="translate(620.330288 959.598438)scale(0.1 -0.1)">
       <use xlink:href="#DejaVuSans-49"/>
       <use x="63.623047" xlink:href="#DejaVuSans-48"/>
       <use x="127.246094" xlink:href="#DejaVuSans-53"/>
      </g>
     </g>
    </g>
    <g id="xtick_10">
     <g id="line2d_10">
      <g>
       <use style="stroke:#000000;stroke-width:0.8;" x="665.480453" xlink:href="#m084f2b3aa5" y="945"/>
      </g>
     </g>
     <g id="text_10">
      <!-- 110 -->
      <g transform="translate(655.936703 959.598438)scale(0.1 -0.1)">
       <use xlink:href="#DejaVuSans-49"/>
       <use x="63.623047" xlink:href="#DejaVuSans-49"/>
       <use x="127.246094" xlink:href="#DejaVuSans-48"/>
      </g>
     </g>
    </g>
    <g id="xtick_11">
     <g id="line2d_11">
      <g>
       <use style="stroke:#000000;stroke-width:0.8;" x="701.086868" xlink:href="#m084f2b3aa5" y="945"/>
      </g>
     </g>
     <g id="text_11">
      <!-- 115 -->
      <g transform="translate(691.543118 959.598438)scale(0.1 -0.1)">
       <use xlink:href="#DejaVuSans-49"/>
       <use x="63.623047" xlink:href="#DejaVuSans-49"/>
       <use x="127.246094" xlink:href="#DejaVuSans-53"/>
      </g>
     </g>
    </g>
    <g id="xtick_12">
     <g id="line2d_12">
      <g>
       <use style="stroke:#000000;stroke-width:0.8;" x="736.693283" xlink:href="#m084f2b3aa5" y="945"/>
      </g>
     </g>
     <g id="text_12">
      <!-- 120 -->
      <defs>
       <path d="M 19.1875 8.296875 
L 53.609375 8.296875 
L 53.609375 0 
L 7.328125 0 
L 7.328125 8.296875 
Q 12.9375 14.109375 22.625 23.890625 
Q 32.328125 33.6875 34.8125 36.53125 
Q 39.546875 41.84375 41.421875 45.53125 
Q 43.3125 49.21875 43.3125 52.78125 
Q 43.3125 58.59375 39.234375 62.25 
Q 35.15625 65.921875 28.609375 65.921875 
Q 23.96875 65.921875 18.8125 64.3125 
Q 13.671875 62.703125 7.8125 59.421875 
L 7.8125 69.390625 
Q 13.765625 71.78125 18.9375 73 
Q 24.125 74.21875 28.421875 74.21875 
Q 39.75 74.21875 46.484375 68.546875 
Q 53.21875 62.890625 53.21875 53.421875 
Q 53.21875 48.921875 51.53125 44.890625 
Q 49.859375 40.875 45.40625 35.40625 
Q 44.1875 33.984375 37.640625 27.21875 
Q 31.109375 20.453125 19.1875 8.296875 
z
" id="DejaVuSans-50"/>
      </defs>
      <g transform="translate(727.149533 959.598438)scale(0.1 -0.1)">
       <use xlink:href="#DejaVuSans-49"/>
       <use x="63.623047" xlink:href="#DejaVuSans-50"/>
       <use x="127.246094" xlink:href="#DejaVuSans-48"/>
      </g>
     </g>
    </g>
    <g id="xtick_13">
     <g id="line2d_13">
      <g>
       <use style="stroke:#000000;stroke-width:0.8;" x="772.299698" xlink:href="#m084f2b3aa5" y="945"/>
      </g>
     </g>
     <g id="text_13">
      <!-- 125 -->
      <g transform="translate(762.755948 959.598438)scale(0.1 -0.1)">
       <use xlink:href="#DejaVuSans-49"/>
       <use x="63.623047" xlink:href="#DejaVuSans-50"/>
       <use x="127.246094" xlink:href="#DejaVuSans-53"/>
      </g>
     </g>
    </g>
    <g id="xtick_14">
     <g id="line2d_14">
      <g>
       <use style="stroke:#000000;stroke-width:0.8;" x="807.906113" xlink:href="#m084f2b3aa5" y="945"/>
      </g>
     </g>
     <g id="text_14">
      <!-- 130 -->
      <defs>
       <path d="M 40.578125 39.3125 
Q 47.65625 37.796875 51.625 33 
Q 55.609375 28.21875 55.609375 21.1875 
Q 55.609375 10.40625 48.1875 4.484375 
Q 40.765625 -1.421875 27.09375 -1.421875 
Q 22.515625 -1.421875 17.65625 -0.515625 
Q 12.796875 0.390625 7.625 2.203125 
L 7.625 11.71875 
Q 11.71875 9.328125 16.59375 8.109375 
Q 21.484375 6.890625 26.8125 6.890625 
Q 36.078125 6.890625 40.9375 10.546875 
Q 45.796875 14.203125 45.796875 21.1875 
Q 45.796875 27.640625 41.28125 31.265625 
Q 36.765625 34.90625 28.71875 34.90625 
L 20.21875 34.90625 
L 20.21875 43.015625 
L 29.109375 43.015625 
Q 36.375 43.015625 40.234375 45.921875 
Q 44.09375 48.828125 44.09375 54.296875 
Q 44.09375 59.90625 40.109375 62.90625 
Q 36.140625 65.921875 28.71875 65.921875 
Q 24.65625 65.921875 20.015625 65.03125 
Q 15.375 64.15625 9.8125 62.3125 
L 9.8125 71.09375 
Q 15.4375 72.65625 20.34375 73.4375 
Q 25.25 74.21875 29.59375 74.21875 
Q 40.828125 74.21875 47.359375 69.109375 
Q 53.90625 64.015625 53.90625 55.328125 
Q 53.90625 49.265625 50.4375 45.09375 
Q 46.96875 40.921875 40.578125 39.3125 
z
" id="DejaVuSans-51"/>
      </defs>
      <g transform="translate(798.362363 959.598438)scale(0.1 -0.1)">
       <use xlink:href="#DejaVuSans-49"/>
       <use x="63.623047" xlink:href="#DejaVuSans-51"/>
       <use x="127.246094" xlink:href="#DejaVuSans-48"/>
      </g>
     </g>
    </g>
    <g id="xtick_15">
     <g id="line2d_15">
      <g>
       <use style="stroke:#000000;stroke-width:0.8;" x="843.512528" xlink:href="#m084f2b3aa5" y="945"/>
      </g>
     </g>
     <g id="text_15">
      <!-- 135 -->
      <g transform="translate(833.968778 959.598438)scale(0.1 -0.1)">
       <use xlink:href="#DejaVuSans-49"/>
       <use x="63.623047" xlink:href="#DejaVuSans-51"/>
       <use x="127.246094" xlink:href="#DejaVuSans-53"/>
      </g>
     </g>
    </g>
    <g id="xtick_16">
     <g id="line2d_16">
      <g>
       <use style="stroke:#000000;stroke-width:0.8;" x="879.118943" xlink:href="#m084f2b3aa5" y="945"/>
      </g>
     </g>
     <g id="text_16">
      <!-- 140 -->
      <defs>
       <path d="M 37.796875 64.3125 
L 12.890625 25.390625 
L 37.796875 25.390625 
z
M 35.203125 72.90625 
L 47.609375 72.90625 
L 47.609375 25.390625 
L 58.015625 25.390625 
L 58.015625 17.1875 
L 47.609375 17.1875 
L 47.609375 0 
L 37.796875 0 
L 37.796875 17.1875 
L 4.890625 17.1875 
L 4.890625 26.703125 
z
" id="DejaVuSans-52"/>
      </defs>
      <g transform="translate(869.575193 959.598438)scale(0.1 -0.1)">
       <use xlink:href="#DejaVuSans-49"/>
       <use x="63.623047" xlink:href="#DejaVuSans-52"/>
       <use x="127.246094" xlink:href="#DejaVuSans-48"/>
      </g>
     </g>
    </g>
    <g id="xtick_17">
     <g id="line2d_17">
      <g>
       <use style="stroke:#000000;stroke-width:0.8;" x="914.725358" xlink:href="#m084f2b3aa5" y="945"/>
      </g>
     </g>
     <g id="text_17">
      <!-- 145 -->
      <g transform="translate(905.181608 959.598438)scale(0.1 -0.1)">
       <use xlink:href="#DejaVuSans-49"/>
       <use x="63.623047" xlink:href="#DejaVuSans-52"/>
       <use x="127.246094" xlink:href="#DejaVuSans-53"/>
      </g>
     </g>
    </g>
    <g id="xtick_18">
     <g id="line2d_18">
      <g>
       <use style="stroke:#000000;stroke-width:0.8;" x="950.331774" xlink:href="#m084f2b3aa5" y="945"/>
      </g>
     </g>
     <g id="text_18">
      <!-- 150 -->
      <g transform="translate(940.788024 959.598438)scale(0.1 -0.1)">
       <use xlink:href="#DejaVuSans-49"/>
       <use x="63.623047" xlink:href="#DejaVuSans-53"/>
       <use x="127.246094" xlink:href="#DejaVuSans-48"/>
      </g>
     </g>
    </g>
    <g id="xtick_19">
     <g id="line2d_19">
      <g>
       <use style="stroke:#000000;stroke-width:0.8;" x="985.938189" xlink:href="#m084f2b3aa5" y="945"/>
      </g>
     </g>
     <g id="text_19">
      <!-- 155 -->
      <g transform="translate(976.394439 959.598438)scale(0.1 -0.1)">
       <use xlink:href="#DejaVuSans-49"/>
       <use x="63.623047" xlink:href="#DejaVuSans-53"/>
       <use x="127.246094" xlink:href="#DejaVuSans-53"/>
      </g>
     </g>
    </g>
    <g id="xtick_20">
     <g id="line2d_20">
      <g>
       <use style="stroke:#000000;stroke-width:0.8;" x="1021.544604" xlink:href="#m084f2b3aa5" y="945"/>
      </g>
     </g>
     <g id="text_20">
      <!-- 160 -->
      <g transform="translate(1012.000854 959.598438)scale(0.1 -0.1)">
       <use xlink:href="#DejaVuSans-49"/>
       <use x="63.623047" xlink:href="#DejaVuSans-54"/>
       <use x="127.246094" xlink:href="#DejaVuSans-48"/>
      </g>
     </g>
    </g>
    <g id="xtick_21">
     <g id="line2d_21">
      <g>
       <use style="stroke:#000000;stroke-width:0.8;" x="1057.151019" xlink:href="#m084f2b3aa5" y="945"/>
      </g>
     </g>
     <g id="text_21">
      <!-- 165 -->
      <g transform="translate(1047.607269 959.598438)scale(0.1 -0.1)">
       <use xlink:href="#DejaVuSans-49"/>
       <use x="63.623047" xlink:href="#DejaVuSans-54"/>
       <use x="127.246094" xlink:href="#DejaVuSans-53"/>
      </g>
     </g>
    </g>
    <g id="xtick_22">
     <g id="line2d_22">
      <g>
       <use style="stroke:#000000;stroke-width:0.8;" x="1092.757434" xlink:href="#m084f2b3aa5" y="945"/>
      </g>
     </g>
     <g id="text_22">
      <!-- 170 -->
      <g transform="translate(1083.213684 959.598438)scale(0.1 -0.1)">
       <use xlink:href="#DejaVuSans-49"/>
       <use x="63.623047" xlink:href="#DejaVuSans-55"/>
       <use x="127.246094" xlink:href="#DejaVuSans-48"/>
      </g>
     </g>
    </g>
    <g id="xtick_23">
     <g id="line2d_23">
      <g>
       <use style="stroke:#000000;stroke-width:0.8;" x="1128.363849" xlink:href="#m084f2b3aa5" y="945"/>
      </g>
     </g>
     <g id="text_23">
      <!-- 175 -->
      <g transform="translate(1118.820099 959.598438)scale(0.1 -0.1)">
       <use xlink:href="#DejaVuSans-49"/>
       <use x="63.623047" xlink:href="#DejaVuSans-55"/>
       <use x="127.246094" xlink:href="#DejaVuSans-53"/>
      </g>
     </g>
    </g>
    <g id="xtick_24">
     <g id="line2d_24">
      <g>
       <use style="stroke:#000000;stroke-width:0.8;" x="1163.970264" xlink:href="#m084f2b3aa5" y="945"/>
      </g>
     </g>
     <g id="text_24">
      <!-- 180 -->
      <g transform="translate(1154.426514 959.598438)scale(0.1 -0.1)">
       <use xlink:href="#DejaVuSans-49"/>
       <use x="63.623047" xlink:href="#DejaVuSans-56"/>
       <use x="127.246094" xlink:href="#DejaVuSans-48"/>
      </g>
     </g>
    </g>
    <g id="xtick_25">
     <g id="line2d_25">
      <g>
       <use style="stroke:#000000;stroke-width:0.8;" x="1199.576679" xlink:href="#m084f2b3aa5" y="945"/>
      </g>
     </g>
     <g id="text_25">
      <!-- 185 -->
      <g transform="translate(1190.032929 959.598438)scale(0.1 -0.1)">
       <use xlink:href="#DejaVuSans-49"/>
       <use x="63.623047" xlink:href="#DejaVuSans-56"/>
       <use x="127.246094" xlink:href="#DejaVuSans-53"/>
      </g>
     </g>
    </g>
    <g id="xtick_26">
     <g id="line2d_26">
      <g>
       <use style="stroke:#000000;stroke-width:0.8;" x="1235.183094" xlink:href="#m084f2b3aa5" y="945"/>
      </g>
     </g>
     <g id="text_26">
      <!-- 190 -->
      <g transform="translate(1225.639344 959.598438)scale(0.1 -0.1)">
       <use xlink:href="#DejaVuSans-49"/>
       <use x="63.623047" xlink:href="#DejaVuSans-57"/>
       <use x="127.246094" xlink:href="#DejaVuSans-48"/>
      </g>
     </g>
    </g>
    <g id="xtick_27">
     <g id="line2d_27">
      <g>
       <use style="stroke:#000000;stroke-width:0.8;" x="1270.78951" xlink:href="#m084f2b3aa5" y="945"/>
      </g>
     </g>
     <g id="text_27">
      <!-- 195 -->
      <g transform="translate(1261.24576 959.598438)scale(0.1 -0.1)">
       <use xlink:href="#DejaVuSans-49"/>
       <use x="63.623047" xlink:href="#DejaVuSans-57"/>
       <use x="127.246094" xlink:href="#DejaVuSans-53"/>
      </g>
     </g>
    </g>
    <g id="xtick_28">
     <g id="line2d_28">
      <g>
       <use style="stroke:#000000;stroke-width:0.8;" x="1306.395925" xlink:href="#m084f2b3aa5" y="945"/>
      </g>
     </g>
     <g id="text_28">
      <!-- 200 -->
      <g transform="translate(1296.852175 959.598438)scale(0.1 -0.1)">
       <use xlink:href="#DejaVuSans-50"/>
       <use x="63.623047" xlink:href="#DejaVuSans-48"/>
       <use x="127.246094" xlink:href="#DejaVuSans-48"/>
      </g>
     </g>
    </g>
    <g id="xtick_29">
     <g id="line2d_29">
      <g>
       <use style="stroke:#000000;stroke-width:0.8;" x="1342.00234" xlink:href="#m084f2b3aa5" y="945"/>
      </g>
     </g>
     <g id="text_29">
      <!-- 205 -->
      <g transform="translate(1332.45859 959.598438)scale(0.1 -0.1)">
       <use xlink:href="#DejaVuSans-50"/>
       <use x="63.623047" xlink:href="#DejaVuSans-48"/>
       <use x="127.246094" xlink:href="#DejaVuSans-53"/>
      </g>
     </g>
    </g>
    <g id="xtick_30">
     <g id="line2d_30">
      <g>
       <use style="stroke:#000000;stroke-width:0.8;" x="1377.608755" xlink:href="#m084f2b3aa5" y="945"/>
      </g>
     </g>
     <g id="text_30">
      <!-- 210 -->
      <g transform="translate(1368.065005 959.598438)scale(0.1 -0.1)">
       <use xlink:href="#DejaVuSans-50"/>
       <use x="63.623047" xlink:href="#DejaVuSans-49"/>
       <use x="127.246094" xlink:href="#DejaVuSans-48"/>
      </g>
     </g>
    </g>
    <g id="xtick_31">
     <g id="line2d_31">
      <g>
       <use style="stroke:#000000;stroke-width:0.8;" x="1413.21517" xlink:href="#m084f2b3aa5" y="945"/>
      </g>
     </g>
     <g id="text_31">
      <!-- 215 -->
      <g transform="translate(1403.67142 959.598438)scale(0.1 -0.1)">
       <use xlink:href="#DejaVuSans-50"/>
       <use x="63.623047" xlink:href="#DejaVuSans-49"/>
       <use x="127.246094" xlink:href="#DejaVuSans-53"/>
      </g>
     </g>
    </g>
    <g id="xtick_32">
     <g id="line2d_32">
      <g>
       <use style="stroke:#000000;stroke-width:0.8;" x="1448.821585" xlink:href="#m084f2b3aa5" y="945"/>
      </g>
     </g>
     <g id="text_32">
      <!-- 220 -->
      <g transform="translate(1439.277835 959.598438)scale(0.1 -0.1)">
       <use xlink:href="#DejaVuSans-50"/>
       <use x="63.623047" xlink:href="#DejaVuSans-50"/>
       <use x="127.246094" xlink:href="#DejaVuSans-48"/>
      </g>
     </g>
    </g>
    <g id="xtick_33">
     <g id="line2d_33">
      <g>
       <use style="stroke:#000000;stroke-width:0.8;" x="1484.428" xlink:href="#m084f2b3aa5" y="945"/>
      </g>
     </g>
     <g id="text_33">
      <!-- 225 -->
      <g transform="translate(1474.88425 959.598438)scale(0.1 -0.1)">
       <use xlink:href="#DejaVuSans-50"/>
       <use x="63.623047" xlink:href="#DejaVuSans-50"/>
       <use x="127.246094" xlink:href="#DejaVuSans-53"/>
      </g>
     </g>
    </g>
    <g id="xtick_34">
     <g id="line2d_34">
      <g>
       <use style="stroke:#000000;stroke-width:0.8;" x="1520.034415" xlink:href="#m084f2b3aa5" y="945"/>
      </g>
     </g>
     <g id="text_34">
      <!-- 230 -->
      <g transform="translate(1510.490665 959.598438)scale(0.1 -0.1)">
       <use xlink:href="#DejaVuSans-50"/>
       <use x="63.623047" xlink:href="#DejaVuSans-51"/>
       <use x="127.246094" xlink:href="#DejaVuSans-48"/>
      </g>
     </g>
    </g>
    <g id="xtick_35">
     <g id="line2d_35">
      <g>
       <use style="stroke:#000000;stroke-width:0.8;" x="1555.64083" xlink:href="#m084f2b3aa5" y="945"/>
      </g>
     </g>
     <g id="text_35">
      <!-- 235 -->
      <g transform="translate(1546.09708 959.598438)scale(0.1 -0.1)">
       <use xlink:href="#DejaVuSans-50"/>
       <use x="63.623047" xlink:href="#DejaVuSans-51"/>
       <use x="127.246094" xlink:href="#DejaVuSans-53"/>
      </g>
     </g>
    </g>
    <g id="xtick_36">
     <g id="line2d_36">
      <g>
       <use style="stroke:#000000;stroke-width:0.8;" x="1591.247246" xlink:href="#m084f2b3aa5" y="945"/>
      </g>
     </g>
     <g id="text_36">
      <!-- 240 -->
      <g transform="translate(1581.703496 959.598438)scale(0.1 -0.1)">
       <use xlink:href="#DejaVuSans-50"/>
       <use x="63.623047" xlink:href="#DejaVuSans-52"/>
       <use x="127.246094" xlink:href="#DejaVuSans-48"/>
      </g>
     </g>
    </g>
    <g id="xtick_37">
     <g id="line2d_37">
      <g>
       <use style="stroke:#000000;stroke-width:0.8;" x="1626.853661" xlink:href="#m084f2b3aa5" y="945"/>
      </g>
     </g>
     <g id="text_37">
      <!-- 245 -->
      <g transform="translate(1617.309911 959.598438)scale(0.1 -0.1)">
       <use xlink:href="#DejaVuSans-50"/>
       <use x="63.623047" xlink:href="#DejaVuSans-52"/>
       <use x="127.246094" xlink:href="#DejaVuSans-53"/>
      </g>
     </g>
    </g>
    <g id="xtick_38">
     <g id="line2d_38">
      <g>
       <use style="stroke:#000000;stroke-width:0.8;" x="1662.460076" xlink:href="#m084f2b3aa5" y="945"/>
      </g>
     </g>
     <g id="text_38">
      <!-- 250 -->
      <g transform="translate(1652.916326 959.598438)scale(0.1 -0.1)">
       <use xlink:href="#DejaVuSans-50"/>
       <use x="63.623047" xlink:href="#DejaVuSans-53"/>
       <use x="127.246094" xlink:href="#DejaVuSans-48"/>
      </g>
     </g>
    </g>
    <g id="xtick_39">
     <g id="line2d_39">
      <g>
       <use style="stroke:#000000;stroke-width:0.8;" x="1698.066491" xlink:href="#m084f2b3aa5" y="945"/>
      </g>
     </g>
     <g id="text_39">
      <!-- 255 -->
      <g transform="translate(1688.522741 959.598438)scale(0.1 -0.1)">
       <use xlink:href="#DejaVuSans-50"/>
       <use x="63.623047" xlink:href="#DejaVuSans-53"/>
       <use x="127.246094" xlink:href="#DejaVuSans-53"/>
      </g>
     </g>
    </g>
    <g id="xtick_40">
     <g id="line2d_40">
      <g>
       <use style="stroke:#000000;stroke-width:0.8;" x="1733.672906" xlink:href="#m084f2b3aa5" y="945"/>
      </g>
     </g>
     <g id="text_40">
      <!-- 260 -->
      <g transform="translate(1724.129156 959.598438)scale(0.1 -0.1)">
       <use xlink:href="#DejaVuSans-50"/>
       <use x="63.623047" xlink:href="#DejaVuSans-54"/>
       <use x="127.246094" xlink:href="#DejaVuSans-48"/>
      </g>
     </g>
    </g>
    <g id="xtick_41">
     <g id="line2d_41">
      <g>
       <use style="stroke:#000000;stroke-width:0.8;" x="1769.279321" xlink:href="#m084f2b3aa5" y="945"/>
      </g>
     </g>
     <g id="text_41">
      <!-- 265 -->
      <g transform="translate(1759.735571 959.598438)scale(0.1 -0.1)">
       <use xlink:href="#DejaVuSans-50"/>
       <use x="63.623047" xlink:href="#DejaVuSans-54"/>
       <use x="127.246094" xlink:href="#DejaVuSans-53"/>
      </g>
     </g>
    </g>
    <g id="xtick_42">
     <g id="line2d_42">
      <g>
       <use style="stroke:#000000;stroke-width:0.8;" x="1804.885736" xlink:href="#m084f2b3aa5" y="945"/>
      </g>
     </g>
     <g id="text_42">
      <!-- 270 -->
      <g transform="translate(1795.341986 959.598438)scale(0.1 -0.1)">
       <use xlink:href="#DejaVuSans-50"/>
       <use x="63.623047" xlink:href="#DejaVuSans-55"/>
       <use x="127.246094" xlink:href="#DejaVuSans-48"/>
      </g>
     </g>
    </g>
    <g id="xtick_43">
     <g id="line2d_43">
      <g>
       <use style="stroke:#000000;stroke-width:0.8;" x="1840.492151" xlink:href="#m084f2b3aa5" y="945"/>
      </g>
     </g>
     <g id="text_43">
      <!-- 275 -->
      <g transform="translate(1830.948401 959.598438)scale(0.1 -0.1)">
       <use xlink:href="#DejaVuSans-50"/>
       <use x="63.623047" xlink:href="#DejaVuSans-55"/>
       <use x="127.246094" xlink:href="#DejaVuSans-53"/>
      </g>
     </g>
    </g>
    <g id="text_44">
     <!-- Time in Minutes -->
     <defs>
      <path d="M 19.09375 0 
L 19.09375 5.171875 
L 28.421875 5.171875 
L 28.421875 67.09375 
L 6.984375 67.09375 
L 6.984375 55.71875 
L 0.984375 55.71875 
L 0.984375 72.90625 
L 65.71875 72.90625 
L 65.71875 55.71875 
L 59.71875 55.71875 
L 59.71875 67.09375 
L 38.28125 67.09375 
L 38.28125 5.171875 
L 47.609375 5.171875 
L 47.609375 0 
z
" id="DejaVuSerif-84"/>
      <path d="M 9.71875 68.015625 
Q 9.71875 70.265625 11.34375 71.921875 
Q 12.984375 73.578125 15.28125 73.578125 
Q 17.53125 73.578125 19.15625 71.921875 
Q 20.796875 70.265625 20.796875 68.015625 
Q 20.796875 65.71875 19.1875 64.109375 
Q 17.578125 62.5 15.28125 62.5 
Q 12.984375 62.5 11.34375 64.109375 
Q 9.71875 65.71875 9.71875 68.015625 
z
M 21.1875 5.171875 
L 29.6875 5.171875 
L 29.6875 0 
L 3.609375 0 
L 3.609375 5.171875 
L 12.203125 5.171875 
L 12.203125 46.6875 
L 3.609375 46.6875 
L 3.609375 51.90625 
L 21.1875 51.90625 
z
" id="DejaVuSerif-105"/>
      <path d="M 51.8125 41.796875 
Q 54.390625 47.515625 58.421875 50.421875 
Q 62.453125 53.328125 67.828125 53.328125 
Q 75.984375 53.328125 79.984375 48.265625 
Q 83.984375 43.21875 83.984375 33.015625 
L 83.984375 5.171875 
L 92.09375 5.171875 
L 92.09375 0 
L 67.1875 0 
L 67.1875 5.171875 
L 75 5.171875 
L 75 31.984375 
Q 75 39.9375 72.65625 43.3125 
Q 70.3125 46.6875 64.890625 46.6875 
Q 58.890625 46.6875 55.734375 42.140625 
Q 52.59375 37.59375 52.59375 28.90625 
L 52.59375 5.171875 
L 60.40625 5.171875 
L 60.40625 0 
L 35.796875 0 
L 35.796875 5.171875 
L 43.609375 5.171875 
L 43.609375 32.328125 
Q 43.609375 40.09375 41.265625 43.390625 
Q 38.921875 46.6875 33.5 46.6875 
Q 27.484375 46.6875 24.328125 42.140625 
Q 21.1875 37.59375 21.1875 28.90625 
L 21.1875 5.171875 
L 29 5.171875 
L 29 0 
L 4.109375 0 
L 4.109375 5.171875 
L 12.203125 5.171875 
L 12.203125 46.78125 
L 3.609375 46.78125 
L 3.609375 51.90625 
L 21.1875 51.90625 
L 21.1875 42.671875 
Q 23.6875 47.859375 27.53125 50.59375 
Q 31.390625 53.328125 36.28125 53.328125 
Q 42.328125 53.328125 46.375 50.3125 
Q 50.4375 47.3125 51.8125 41.796875 
z
" id="DejaVuSerif-109"/>
      <path d="M 54.203125 25 
L 15.484375 25 
L 15.484375 24.609375 
Q 15.484375 14.109375 19.4375 8.765625 
Q 23.390625 3.421875 31.109375 3.421875 
Q 37.015625 3.421875 40.796875 6.515625 
Q 44.578125 9.625 46.09375 15.71875 
L 53.328125 15.71875 
Q 51.171875 7.171875 45.375 2.875 
Q 39.59375 -1.421875 30.171875 -1.421875 
Q 18.796875 -1.421875 11.890625 6.078125 
Q 4.984375 13.578125 4.984375 25.984375 
Q 4.984375 38.28125 11.765625 45.796875 
Q 18.5625 53.328125 29.59375 53.328125 
Q 41.359375 53.328125 47.65625 46.0625 
Q 53.953125 38.8125 54.203125 25 
z
M 43.609375 30.171875 
Q 43.3125 39.265625 39.765625 43.875 
Q 36.234375 48.484375 29.59375 48.484375 
Q 23.390625 48.484375 19.828125 43.84375 
Q 16.265625 39.203125 15.484375 30.171875 
z
" id="DejaVuSerif-101"/>
      <path id="DejaVuSerif-32"/>
      <path d="M 4.109375 0 
L 4.109375 5.171875 
L 12.203125 5.171875 
L 12.203125 46.6875 
L 3.609375 46.6875 
L 3.609375 51.90625 
L 21.1875 51.90625 
L 21.1875 42.671875 
Q 23.6875 47.953125 27.65625 50.640625 
Q 31.640625 53.328125 36.921875 53.328125 
Q 45.515625 53.328125 49.5625 48.390625 
Q 53.609375 43.453125 53.609375 33.015625 
L 53.609375 5.171875 
L 61.625 5.171875 
L 61.625 0 
L 36.8125 0 
L 36.8125 5.171875 
L 44.578125 5.171875 
L 44.578125 30.171875 
Q 44.578125 39.703125 42.234375 43.234375 
Q 39.890625 46.78125 33.984375 46.78125 
Q 27.734375 46.78125 24.453125 42.203125 
Q 21.1875 37.640625 21.1875 28.90625 
L 21.1875 5.171875 
L 29 5.171875 
L 29 0 
z
" id="DejaVuSerif-110"/>
      <path d="M 5.515625 0 
L 5.515625 5.171875 
L 14.796875 5.171875 
L 14.796875 67.671875 
L 4.984375 67.671875 
L 4.984375 72.90625 
L 26.21875 72.90625 
L 51.8125 21 
L 77.390625 72.90625 
L 97.3125 72.90625 
L 97.3125 67.671875 
L 87.59375 67.671875 
L 87.59375 5.171875 
L 96.921875 5.171875 
L 96.921875 0 
L 68.40625 0 
L 68.40625 5.171875 
L 77.6875 5.171875 
L 77.6875 61.53125 
L 52.6875 10.6875 
L 45.796875 10.6875 
L 20.796875 61.53125 
L 20.796875 5.171875 
L 30.078125 5.171875 
L 30.078125 0 
z
" id="DejaVuSerif-77"/>
      <path d="M 35.40625 51.90625 
L 52.203125 51.90625 
L 52.203125 5.171875 
L 60.6875 5.171875 
L 60.6875 0 
L 43.21875 0 
L 43.21875 9.1875 
Q 40.71875 4 36.765625 1.28125 
Q 32.8125 -1.421875 27.59375 -1.421875 
Q 18.953125 -1.421875 14.875 3.484375 
Q 10.796875 8.40625 10.796875 18.890625 
L 10.796875 46.6875 
L 2.6875 46.6875 
L 2.6875 51.90625 
L 19.828125 51.90625 
L 19.828125 21.6875 
Q 19.828125 12.203125 22.140625 8.6875 
Q 24.46875 5.171875 30.421875 5.171875 
Q 36.671875 5.171875 39.9375 9.765625 
Q 43.21875 14.359375 43.21875 23.09375 
L 43.21875 46.6875 
L 35.40625 46.6875 
z
" id="DejaVuSerif-117"/>
      <path d="M 10.796875 46.6875 
L 2.875 46.6875 
L 2.875 51.90625 
L 10.796875 51.90625 
L 10.796875 68.015625 
L 19.828125 68.015625 
L 19.828125 51.90625 
L 36.71875 51.90625 
L 36.71875 46.6875 
L 19.828125 46.6875 
L 19.828125 13.71875 
Q 19.828125 7.125 21.09375 5.265625 
Q 22.359375 3.421875 25.78125 3.421875 
Q 29.296875 3.421875 30.90625 5.484375 
Q 32.515625 7.5625 32.625 12.203125 
L 39.40625 12.203125 
Q 39.015625 5.125 35.546875 1.84375 
Q 32.078125 -1.421875 25 -1.421875 
Q 17.234375 -1.421875 14.015625 2.015625 
Q 10.796875 5.46875 10.796875 13.71875 
z
" id="DejaVuSerif-116"/>
      <path d="M 5.609375 2.875 
L 5.609375 14.984375 
L 10.796875 14.984375 
Q 10.984375 9.1875 14.421875 6.296875 
Q 17.875 3.421875 24.609375 3.421875 
Q 30.671875 3.421875 33.84375 5.6875 
Q 37.015625 7.953125 37.015625 12.3125 
Q 37.015625 15.71875 34.6875 17.8125 
Q 32.375 19.921875 24.90625 22.3125 
L 18.40625 24.515625 
Q 11.71875 26.65625 8.71875 29.875 
Q 5.71875 33.109375 5.71875 38.09375 
Q 5.71875 45.21875 10.9375 49.265625 
Q 16.15625 53.328125 25.390625 53.328125 
Q 29.5 53.328125 34.03125 52.25 
Q 38.578125 51.171875 43.40625 49.125 
L 43.40625 37.796875 
L 38.234375 37.796875 
Q 38.03125 42.828125 34.703125 45.65625 
Q 31.390625 48.484375 25.6875 48.484375 
Q 20.015625 48.484375 17.109375 46.484375 
Q 14.203125 44.484375 14.203125 40.484375 
Q 14.203125 37.203125 16.40625 35.21875 
Q 18.609375 33.25 25.203125 31.203125 
L 32.328125 29 
Q 39.703125 26.703125 42.9375 23.265625 
Q 46.1875 19.828125 46.1875 14.40625 
Q 46.1875 7.03125 40.546875 2.796875 
Q 34.90625 -1.421875 25 -1.421875 
Q 19.96875 -1.421875 15.1875 -0.34375 
Q 10.40625 0.734375 5.609375 2.875 
z
" id="DejaVuSerif-115"/>
     </defs>
     <g transform="translate(1049.142812 976.315938)scale(0.14 -0.14)">
      <use xlink:href="#DejaVuSerif-84"/>
      <use x="66.699219" xlink:href="#DejaVuSerif-105"/>
      <use x="98.681641" xlink:href="#DejaVuSerif-109"/>
      <use x="193.505859" xlink:href="#DejaVuSerif-101"/>
      <use x="252.685547" xlink:href="#DejaVuSerif-32"/>
      <use x="284.472656" xlink:href="#DejaVuSerif-105"/>
      <use x="316.455078" xlink:href="#DejaVuSerif-110"/>
      <use x="380.859375" xlink:href="#DejaVuSerif-32"/>
      <use x="412.646484" xlink:href="#DejaVuSerif-77"/>
      <use x="515.039062" xlink:href="#DejaVuSerif-105"/>
      <use x="547.021484" xlink:href="#DejaVuSerif-110"/>
      <use x="611.425781" xlink:href="#DejaVuSerif-117"/>
      <use x="675.830078" xlink:href="#DejaVuSerif-116"/>
      <use x="716.015625" xlink:href="#DejaVuSerif-101"/>
      <use x="775.195312" xlink:href="#DejaVuSerif-115"/>
     </g>
    </g>
   </g>
   <g id="matplotlib.axis_2">
    <g id="ytick_1">
     <g id="line2d_44">
      <defs>
       <path d="M 0 0 
L -3.5 0 
" id="m47ac51ffe3" style="stroke:#000000;stroke-width:0.8;"/>
      </defs>
      <g>
       <use style="stroke:#000000;stroke-width:0.8;" x="270" xlink:href="#m47ac51ffe3" y="945"/>
      </g>
     </g>
     <g id="text_45">
      <!-- 0 -->
      <g transform="translate(256.6375 948.799219)scale(0.1 -0.1)">
       <use xlink:href="#DejaVuSans-48"/>
      </g>
     </g>
    </g>
    <g id="ytick_2">
     <g id="line2d_45">
      <g>
       <use style="stroke:#000000;stroke-width:0.8;" x="270" xlink:href="#m47ac51ffe3" y="801.190476"/>
      </g>
     </g>
     <g id="text_46">
      <!-- 5 -->
      <g transform="translate(256.6375 804.989695)scale(0.1 -0.1)">
       <use xlink:href="#DejaVuSans-53"/>
      </g>
     </g>
    </g>
    <g id="ytick_3">
     <g id="line2d_46">
      <g>
       <use style="stroke:#000000;stroke-width:0.8;" x="270" xlink:href="#m47ac51ffe3" y="657.380952"/>
      </g>
     </g>
     <g id="text_47">
      <!-- 10 -->
      <g transform="translate(250.275 661.180171)scale(0.1 -0.1)">
       <use xlink:href="#DejaVuSans-49"/>
       <use x="63.623047" xlink:href="#DejaVuSans-48"/>
      </g>
     </g>
    </g>
    <g id="ytick_4">
     <g id="line2d_47">
      <g>
       <use style="stroke:#000000;stroke-width:0.8;" x="270" xlink:href="#m47ac51ffe3" y="513.571429"/>
      </g>
     </g>
     <g id="text_48">
      <!-- 15 -->
      <g transform="translate(250.275 517.370647)scale(0.1 -0.1)">
       <use xlink:href="#DejaVuSans-49"/>
       <use x="63.623047" xlink:href="#DejaVuSans-53"/>
      </g>
     </g>
    </g>
    <g id="ytick_5">
     <g id="line2d_48">
      <g>
       <use style="stroke:#000000;stroke-width:0.8;" x="270" xlink:href="#m47ac51ffe3" y="369.761905"/>
      </g>
     </g>
     <g id="text_49">
      <!-- 20 -->
      <g transform="translate(250.275 373.561124)scale(0.1 -0.1)">
       <use xlink:href="#DejaVuSans-50"/>
       <use x="63.623047" xlink:href="#DejaVuSans-48"/>
      </g>
     </g>
    </g>
    <g id="ytick_6">
     <g id="line2d_49">
      <g>
       <use style="stroke:#000000;stroke-width:0.8;" x="270" xlink:href="#m47ac51ffe3" y="225.952381"/>
      </g>
     </g>
     <g id="text_50">
      <!-- 25 -->
      <g transform="translate(250.275 229.7516)scale(0.1 -0.1)">
       <use xlink:href="#DejaVuSans-50"/>
       <use x="63.623047" xlink:href="#DejaVuSans-53"/>
      </g>
     </g>
    </g>
    <g id="text_51">
     <!-- Number of Runners -->
     <defs>
      <path d="M 4.890625 0 
L 4.890625 5.171875 
L 14.703125 5.171875 
L 14.703125 67.671875 
L 4.890625 67.671875 
L 4.890625 72.90625 
L 23.578125 72.90625 
L 67.28125 15.375 
L 67.28125 67.671875 
L 57.515625 67.671875 
L 57.515625 72.90625 
L 83.109375 72.90625 
L 83.109375 67.671875 
L 73.296875 67.671875 
L 73.296875 -1.421875 
L 67.390625 -1.421875 
L 20.703125 60.015625 
L 20.703125 5.171875 
L 30.515625 5.171875 
L 30.515625 0 
z
" id="DejaVuSerif-78"/>
      <path d="M 11.53125 5.171875 
L 11.53125 70.796875 
L 2.875 70.796875 
L 2.875 75.984375 
L 20.515625 75.984375 
L 20.515625 43.796875 
Q 23.140625 48.6875 27.21875 51 
Q 31.296875 53.328125 37.3125 53.328125 
Q 46.875 53.328125 52.921875 45.75 
Q 58.984375 38.1875 58.984375 25.984375 
Q 58.984375 13.765625 52.921875 6.171875 
Q 46.875 -1.421875 37.3125 -1.421875 
Q 31.296875 -1.421875 27.21875 0.890625 
Q 23.140625 3.21875 20.515625 8.109375 
L 20.515625 0 
L 2.875 0 
L 2.875 5.171875 
z
M 20.515625 23.390625 
Q 20.515625 14.015625 24.09375 9.109375 
Q 27.6875 4.203125 34.515625 4.203125 
Q 41.40625 4.203125 44.9375 9.71875 
Q 48.484375 15.234375 48.484375 25.984375 
Q 48.484375 36.765625 44.9375 42.234375 
Q 41.40625 47.703125 34.515625 47.703125 
Q 27.6875 47.703125 24.09375 42.765625 
Q 20.515625 37.84375 20.515625 28.515625 
z
" id="DejaVuSerif-98"/>
      <path d="M 47.796875 52 
L 47.796875 39.015625 
L 42.625 39.015625 
Q 42.390625 42.875 40.484375 44.78125 
Q 38.578125 46.6875 34.90625 46.6875 
Q 28.265625 46.6875 24.71875 42.09375 
Q 21.1875 37.5 21.1875 28.90625 
L 21.1875 5.171875 
L 31.59375 5.171875 
L 31.59375 0 
L 4.109375 0 
L 4.109375 5.171875 
L 12.203125 5.171875 
L 12.203125 46.78125 
L 3.609375 46.78125 
L 3.609375 51.90625 
L 21.1875 51.90625 
L 21.1875 42.671875 
Q 23.828125 48.09375 27.96875 50.703125 
Q 32.125 53.328125 38.09375 53.328125 
Q 40.28125 53.328125 42.703125 52.984375 
Q 45.125 52.640625 47.796875 52 
z
" id="DejaVuSerif-114"/>
      <path d="M 30.078125 3.421875 
Q 37.3125 3.421875 40.984375 9.125 
Q 44.671875 14.84375 44.671875 25.984375 
Q 44.671875 37.109375 40.984375 42.796875 
Q 37.3125 48.484375 30.078125 48.484375 
Q 22.859375 48.484375 19.171875 42.796875 
Q 15.484375 37.109375 15.484375 25.984375 
Q 15.484375 14.84375 19.1875 9.125 
Q 22.90625 3.421875 30.078125 3.421875 
z
M 30.078125 -1.421875 
Q 18.75 -1.421875 11.859375 6.078125 
Q 4.984375 13.578125 4.984375 25.984375 
Q 4.984375 38.375 11.84375 45.84375 
Q 18.703125 53.328125 30.078125 53.328125 
Q 41.453125 53.328125 48.3125 45.84375 
Q 55.171875 38.375 55.171875 25.984375 
Q 55.171875 13.578125 48.3125 6.078125 
Q 41.453125 -1.421875 30.078125 -1.421875 
z
" id="DejaVuSerif-111"/>
      <path d="M 43.015625 63.71875 
L 38.28125 63.71875 
Q 38.234375 67.390625 36.203125 69.28125 
Q 34.1875 71.1875 30.328125 71.1875 
Q 25.296875 71.1875 23.234375 68.421875 
Q 21.1875 65.671875 21.1875 58.59375 
L 21.1875 51.90625 
L 35.6875 51.90625 
L 35.6875 46.6875 
L 21.1875 46.6875 
L 21.1875 5.171875 
L 32.71875 5.171875 
L 32.71875 0 
L 3.609375 0 
L 3.609375 5.171875 
L 12.203125 5.171875 
L 12.203125 46.6875 
L 3.609375 46.6875 
L 3.609375 51.90625 
L 12.203125 51.90625 
L 12.203125 58.40625 
Q 12.203125 67.09375 16.71875 71.53125 
Q 21.234375 75.984375 29.984375 75.984375 
Q 33.25 75.984375 36.515625 75.390625 
Q 39.796875 74.8125 43.015625 73.578125 
z
" id="DejaVuSerif-102"/>
      <path d="M 47.90625 36.1875 
Q 51.3125 35.25 53.78125 33.03125 
Q 56.25 30.8125 58.203125 26.8125 
L 68.796875 5.171875 
L 77.6875 5.171875 
L 77.6875 0 
L 60.5 0 
L 49.125 23.1875 
Q 45.84375 29.9375 43.109375 31.90625 
Q 40.375 33.890625 35.59375 33.890625 
L 24.703125 33.890625 
L 24.703125 5.171875 
L 35.015625 5.171875 
L 35.015625 0 
L 5.515625 0 
L 5.515625 5.171875 
L 14.796875 5.171875 
L 14.796875 67.671875 
L 5.515625 67.671875 
L 5.515625 72.90625 
L 42.484375 72.90625 
Q 53.125 72.90625 58.90625 67.828125 
Q 64.703125 62.75 64.703125 53.421875 
Q 64.703125 45.90625 60.46875 41.578125 
Q 56.25 37.25 47.90625 36.1875 
z
M 24.703125 39.109375 
L 39.109375 39.109375 
Q 46.484375 39.109375 50 42.59375 
Q 53.515625 46.09375 53.515625 53.421875 
Q 53.515625 60.75 50 64.203125 
Q 46.484375 67.671875 39.109375 67.671875 
L 24.703125 67.671875 
z
" id="DejaVuSerif-82"/>
     </defs>
     <g transform="translate(243.363438 607.672969)rotate(-90)scale(0.14 -0.14)">
      <use xlink:href="#DejaVuSerif-78"/>
      <use x="87.5" xlink:href="#DejaVuSerif-117"/>
      <use x="151.904297" xlink:href="#DejaVuSerif-109"/>
      <use x="246.728516" xlink:href="#DejaVuSerif-98"/>
      <use x="310.742188" xlink:href="#DejaVuSerif-101"/>
      <use x="369.921875" xlink:href="#DejaVuSerif-114"/>
      <use x="417.724609" xlink:href="#DejaVuSerif-32"/>
      <use x="449.511719" xlink:href="#DejaVuSerif-111"/>
      <use x="509.716797" xlink:href="#DejaVuSerif-102"/>
      <use x="546.728516" xlink:href="#DejaVuSerif-32"/>
      <use x="578.515625" xlink:href="#DejaVuSerif-82"/>
      <use x="653.808594" xlink:href="#DejaVuSerif-117"/>
      <use x="718.212891" xlink:href="#DejaVuSerif-110"/>
      <use x="782.617188" xlink:href="#DejaVuSerif-110"/>
      <use x="847.021484" xlink:href="#DejaVuSerif-101"/>
      <use x="906.201172" xlink:href="#DejaVuSerif-114"/>
      <use x="954.003906" xlink:href="#DejaVuSerif-115"/>
     </g>
    </g>
   </g>
   <g id="patch_217">
    <path d="M 270 945 
L 270 129.6 
" style="fill:none;stroke:#000000;stroke-linecap:square;stroke-linejoin:miter;stroke-width:0.8;"/>
   </g>
   <g id="patch_218">
    <path d="M 1944 945 
L 1944 129.6 
" style="fill:none;stroke:#000000;stroke-linecap:square;stroke-linejoin:miter;stroke-width:0.8;"/>
   </g>
   <g id="patch_219">
    <path d="M 270 945 
L 1944 945 
" style="fill:none;stroke:#000000;stroke-linecap:square;stroke-linejoin:miter;stroke-width:0.8;"/>
   </g>
   <g id="patch_220">
    <path d="M 270 129.6 
L 1944 129.6 
" style="fill:none;stroke:#000000;stroke-linecap:square;stroke-linejoin:miter;stroke-width:0.8;"/>
   </g>
   <g id="text_52">
    <!-- 55th Lincoln Presidential Half-Marathon Race Time Distribution -->
    <defs>
     <path d="M 50.296875 72.90625 
L 50.296875 64.890625 
L 16.890625 64.890625 
L 16.890625 44 
Q 19.4375 45.75 22.828125 46.625 
Q 26.21875 47.515625 30.421875 47.515625 
Q 42.234375 47.515625 49.0625 40.96875 
Q 55.90625 34.421875 55.90625 23.09375 
Q 55.90625 11.53125 49 5.046875 
Q 42.09375 -1.421875 29.59375 -1.421875 
Q 24.5625 -1.421875 19.28125 -0.1875 
Q 14.015625 1.03125 8.5 3.515625 
L 8.5 17.671875 
L 14.015625 17.671875 
Q 14.453125 10.75 18.421875 7.078125 
Q 22.40625 3.421875 29.59375 3.421875 
Q 37.3125 3.421875 41.453125 8.5 
Q 45.609375 13.578125 45.609375 23.09375 
Q 45.609375 32.5625 41.484375 37.609375 
Q 37.359375 42.671875 29.59375 42.671875 
Q 25.203125 42.671875 21.84375 41.109375 
Q 18.5 39.546875 15.921875 36.28125 
L 11.71875 36.28125 
L 11.71875 72.90625 
z
" id="DejaVuSerif-53"/>
     <path d="M 4.109375 0 
L 4.109375 5.171875 
L 12.203125 5.171875 
L 12.203125 70.796875 
L 3.609375 70.796875 
L 3.609375 75.984375 
L 21.1875 75.984375 
L 21.1875 42.671875 
Q 23.6875 47.953125 27.65625 50.640625 
Q 31.640625 53.328125 36.921875 53.328125 
Q 45.515625 53.328125 49.5625 48.390625 
Q 53.609375 43.453125 53.609375 33.015625 
L 53.609375 5.171875 
L 61.625 5.171875 
L 61.625 0 
L 36.8125 0 
L 36.8125 5.171875 
L 44.578125 5.171875 
L 44.578125 30.171875 
Q 44.578125 39.703125 42.25 43.1875 
Q 39.9375 46.6875 33.984375 46.6875 
Q 27.734375 46.6875 24.453125 42.140625 
Q 21.1875 37.59375 21.1875 28.90625 
L 21.1875 5.171875 
L 29 5.171875 
L 29 0 
z
" id="DejaVuSerif-104"/>
     <path d="M 5.515625 0 
L 5.515625 5.171875 
L 14.796875 5.171875 
L 14.796875 67.671875 
L 5.515625 67.671875 
L 5.515625 72.90625 
L 33.984375 72.90625 
L 33.984375 67.671875 
L 24.703125 67.671875 
L 24.703125 6 
L 58.015625 6 
L 58.015625 18.21875 
L 64.015625 18.21875 
L 64.015625 0 
z
" id="DejaVuSerif-76"/>
     <path d="M 51.421875 15.578125 
Q 49.515625 7.28125 44.09375 2.921875 
Q 38.671875 -1.421875 30.078125 -1.421875 
Q 18.75 -1.421875 11.859375 6.078125 
Q 4.984375 13.578125 4.984375 25.984375 
Q 4.984375 38.421875 11.859375 45.875 
Q 18.75 53.328125 30.078125 53.328125 
Q 35.015625 53.328125 39.890625 52.171875 
Q 44.78125 51.03125 49.703125 48.6875 
L 49.703125 35.40625 
L 44.484375 35.40625 
Q 43.453125 42.234375 40.015625 45.359375 
Q 36.578125 48.484375 30.171875 48.484375 
Q 22.90625 48.484375 19.1875 42.84375 
Q 15.484375 37.203125 15.484375 25.984375 
Q 15.484375 14.75 19.171875 9.078125 
Q 22.859375 3.421875 30.171875 3.421875 
Q 35.984375 3.421875 39.453125 6.4375 
Q 42.921875 9.46875 44.1875 15.578125 
z
" id="DejaVuSerif-99"/>
     <path d="M 20.515625 5.171875 
L 29 5.171875 
L 29 0 
L 2.875 0 
L 2.875 5.171875 
L 11.53125 5.171875 
L 11.53125 70.796875 
L 2.875 70.796875 
L 2.875 75.984375 
L 20.515625 75.984375 
z
" id="DejaVuSerif-108"/>
     <path d="M 24.703125 37.109375 
L 37.59375 37.109375 
Q 44.875 37.109375 48.671875 41.03125 
Q 52.484375 44.96875 52.484375 52.390625 
Q 52.484375 59.859375 48.671875 63.765625 
Q 44.875 67.671875 37.59375 67.671875 
L 24.703125 67.671875 
z
M 5.515625 0 
L 5.515625 5.171875 
L 14.796875 5.171875 
L 14.796875 67.671875 
L 5.515625 67.671875 
L 5.515625 72.90625 
L 39.984375 72.90625 
Q 50.921875 72.90625 57.3125 67.359375 
Q 63.71875 61.8125 63.71875 52.390625 
Q 63.71875 43.015625 57.3125 37.453125 
Q 50.921875 31.890625 39.984375 31.890625 
L 24.703125 31.890625 
L 24.703125 5.171875 
L 35.984375 5.171875 
L 35.984375 0 
z
" id="DejaVuSerif-80"/>
     <path d="M 52.484375 5.171875 
L 61.078125 5.171875 
L 61.078125 0 
L 43.5 0 
L 43.5 8.109375 
Q 40.875 3.21875 36.796875 0.890625 
Q 32.71875 -1.421875 26.703125 -1.421875 
Q 17.140625 -1.421875 11.0625 6.171875 
Q 4.984375 13.765625 4.984375 25.984375 
Q 4.984375 38.1875 11.03125 45.75 
Q 17.09375 53.328125 26.703125 53.328125 
Q 32.71875 53.328125 36.796875 51 
Q 40.875 48.6875 43.5 43.796875 
L 43.5 70.796875 
L 35.015625 70.796875 
L 35.015625 75.984375 
L 52.484375 75.984375 
z
M 43.5 23.390625 
L 43.5 28.515625 
Q 43.5 37.84375 39.90625 42.765625 
Q 36.328125 47.703125 29.5 47.703125 
Q 22.5625 47.703125 19.015625 42.234375 
Q 15.484375 36.765625 15.484375 25.984375 
Q 15.484375 15.234375 19.015625 9.71875 
Q 22.5625 4.203125 29.5 4.203125 
Q 36.328125 4.203125 39.90625 9.109375 
Q 43.5 14.015625 43.5 23.390625 
z
" id="DejaVuSerif-100"/>
     <path d="M 39.796875 16.3125 
L 39.796875 27.296875 
L 28.21875 27.296875 
Q 21.53125 27.296875 18.25 24.40625 
Q 14.984375 21.53125 14.984375 15.578125 
Q 14.984375 10.15625 18.296875 6.984375 
Q 21.625 3.8125 27.296875 3.8125 
Q 32.90625 3.8125 36.34375 7.28125 
Q 39.796875 10.75 39.796875 16.3125 
z
M 48.78125 32.421875 
L 48.78125 5.171875 
L 56.78125 5.171875 
L 56.78125 0 
L 39.796875 0 
L 39.796875 5.609375 
Q 36.8125 2 32.90625 0.28125 
Q 29 -1.421875 23.78125 -1.421875 
Q 15.140625 -1.421875 10.0625 3.171875 
Q 4.984375 7.765625 4.984375 15.578125 
Q 4.984375 23.640625 10.796875 28.078125 
Q 16.609375 32.515625 27.203125 32.515625 
L 39.796875 32.515625 
L 39.796875 36.078125 
Q 39.796875 42 36.203125 45.234375 
Q 32.625 48.484375 26.125 48.484375 
Q 20.75 48.484375 17.578125 46.046875 
Q 14.40625 43.609375 13.625 38.8125 
L 8.984375 38.8125 
L 8.984375 49.3125 
Q 13.671875 51.3125 18.09375 52.3125 
Q 22.515625 53.328125 26.703125 53.328125 
Q 37.5 53.328125 43.140625 47.96875 
Q 48.78125 42.625 48.78125 32.421875 
z
" id="DejaVuSerif-97"/>
     <path d="M 5.515625 0 
L 5.515625 5.171875 
L 14.796875 5.171875 
L 14.796875 67.671875 
L 5.515625 67.671875 
L 5.515625 72.90625 
L 33.984375 72.90625 
L 33.984375 67.671875 
L 24.703125 67.671875 
L 24.703125 42.484375 
L 62.5 42.484375 
L 62.5 67.671875 
L 53.21875 67.671875 
L 53.21875 72.90625 
L 81.6875 72.90625 
L 81.6875 67.671875 
L 72.40625 67.671875 
L 72.40625 5.171875 
L 81.6875 5.171875 
L 81.6875 0 
L 53.21875 0 
L 53.21875 5.171875 
L 62.5 5.171875 
L 62.5 36.53125 
L 24.703125 36.53125 
L 24.703125 5.171875 
L 33.984375 5.171875 
L 33.984375 0 
z
" id="DejaVuSerif-72"/>
     <path d="M 4.390625 30.609375 
L 29.390625 30.609375 
L 29.390625 23 
L 4.390625 23 
z
" id="DejaVuSerif-45"/>
     <path d="M 24.703125 5.171875 
L 33.796875 5.171875 
Q 48 5.171875 55.59375 13.28125 
Q 63.1875 21.390625 63.1875 36.53125 
Q 63.1875 51.65625 55.609375 59.65625 
Q 48.046875 67.671875 33.796875 67.671875 
L 24.703125 67.671875 
z
M 5.515625 0 
L 5.515625 5.171875 
L 14.796875 5.171875 
L 14.796875 67.671875 
L 5.515625 67.671875 
L 5.515625 72.90625 
L 34.515625 72.90625 
Q 53.375 72.90625 63.890625 63.28125 
Q 74.421875 53.65625 74.421875 36.53125 
Q 74.421875 19.34375 63.875 9.671875 
Q 53.328125 0 34.515625 0 
z
" id="DejaVuSerif-68"/>
    </defs>
    <g transform="translate(780.342187 123.6)scale(0.2 -0.2)">
     <use xlink:href="#DejaVuSerif-53"/>
     <use x="63.623047" xlink:href="#DejaVuSerif-53"/>
     <use x="127.246094" xlink:href="#DejaVuSerif-116"/>
     <use x="167.431641" xlink:href="#DejaVuSerif-104"/>
     <use x="231.835938" xlink:href="#DejaVuSerif-32"/>
     <use x="263.623047" xlink:href="#DejaVuSerif-76"/>
     <use x="330.029297" xlink:href="#DejaVuSerif-105"/>
     <use x="362.011719" xlink:href="#DejaVuSerif-110"/>
     <use x="426.416016" xlink:href="#DejaVuSerif-99"/>
     <use x="482.421875" xlink:href="#DejaVuSerif-111"/>
     <use x="542.626953" xlink:href="#DejaVuSerif-108"/>
     <use x="574.609375" xlink:href="#DejaVuSerif-110"/>
     <use x="639.013672" xlink:href="#DejaVuSerif-32"/>
     <use x="670.800781" xlink:href="#DejaVuSerif-80"/>
     <use x="738.085938" xlink:href="#DejaVuSerif-114"/>
     <use x="785.888672" xlink:href="#DejaVuSerif-101"/>
     <use x="845.068359" xlink:href="#DejaVuSerif-115"/>
     <use x="896.386719" xlink:href="#DejaVuSerif-105"/>
     <use x="928.369141" xlink:href="#DejaVuSerif-100"/>
     <use x="992.382812" xlink:href="#DejaVuSerif-101"/>
     <use x="1051.5625" xlink:href="#DejaVuSerif-110"/>
     <use x="1115.966797" xlink:href="#DejaVuSerif-116"/>
     <use x="1156.152344" xlink:href="#DejaVuSerif-105"/>
     <use x="1188.134766" xlink:href="#DejaVuSerif-97"/>
     <use x="1247.753906" xlink:href="#DejaVuSerif-108"/>
     <use x="1279.736328" xlink:href="#DejaVuSerif-32"/>
     <use x="1311.523438" xlink:href="#DejaVuSerif-72"/>
     <use x="1398.730469" xlink:href="#DejaVuSerif-97"/>
     <use x="1458.349609" xlink:href="#DejaVuSerif-108"/>
     <use x="1490.332031" xlink:href="#DejaVuSerif-102"/>
     <use x="1527.296875" xlink:href="#DejaVuSerif-45"/>
     <use x="1561.085938" xlink:href="#DejaVuSerif-77"/>
     <use x="1663.478516" xlink:href="#DejaVuSerif-97"/>
     <use x="1723.097656" xlink:href="#DejaVuSerif-114"/>
     <use x="1770.900391" xlink:href="#DejaVuSerif-97"/>
     <use x="1830.519531" xlink:href="#DejaVuSerif-116"/>
     <use x="1870.705078" xlink:href="#DejaVuSerif-104"/>
     <use x="1935.109375" xlink:href="#DejaVuSerif-111"/>
     <use x="1995.314453" xlink:href="#DejaVuSerif-110"/>
     <use x="2059.71875" xlink:href="#DejaVuSerif-32"/>
     <use x="2091.505859" xlink:href="#DejaVuSerif-82"/>
     <use x="2166.830078" xlink:href="#DejaVuSerif-97"/>
     <use x="2226.449219" xlink:href="#DejaVuSerif-99"/>
     <use x="2282.455078" xlink:href="#DejaVuSerif-101"/>
     <use x="2341.634766" xlink:href="#DejaVuSerif-32"/>
     <use x="2373.421875" xlink:href="#DejaVuSerif-84"/>
     <use x="2440.121094" xlink:href="#DejaVuSerif-105"/>
     <use x="2472.103516" xlink:href="#DejaVuSerif-109"/>
     <use x="2566.927734" xlink:href="#DejaVuSerif-101"/>
     <use x="2626.107422" xlink:href="#DejaVuSerif-32"/>
     <use x="2657.894531" xlink:href="#DejaVuSerif-68"/>
     <use x="2738.070312" xlink:href="#DejaVuSerif-105"/>
     <use x="2770.052734" xlink:href="#DejaVuSerif-115"/>
     <use x="2821.371094" xlink:href="#DejaVuSerif-116"/>
     <use x="2861.556641" xlink:href="#DejaVuSerif-114"/>
     <use x="2909.359375" xlink:href="#DejaVuSerif-105"/>
     <use x="2941.341797" xlink:href="#DejaVuSerif-98"/>
     <use x="3005.355469" xlink:href="#DejaVuSerif-117"/>
     <use x="3069.759766" xlink:href="#DejaVuSerif-116"/>
     <use x="3109.945312" xlink:href="#DejaVuSerif-105"/>
     <use x="3141.927734" xlink:href="#DejaVuSerif-111"/>
     <use x="3202.132812" xlink:href="#DejaVuSerif-110"/>
    </g>
   </g>
  </g>
 </g>
 <defs>
  <clipPath id="p9cb77599a8">
   <rect height="815.4" width="1674" x="270" y="129.6"/>
  </clipPath>
 </defs>
</svg>
